<mxfile host="app.diagrams.net" agent="Mozilla/5.0 (Windows NT 10.0; Win64; x64) AppleWebKit/537.36 (KHTML, like Gecko) Chrome/131.0.0.0 Safari/537.36" version="24.8.6" pages="17">
  <diagram name="TabelaHash1.1" id="2lo24KcT28NPZoo7ROFZ">
    <mxGraphModel dx="1434" dy="746" grid="1" gridSize="10" guides="1" tooltips="1" connect="1" arrows="1" fold="1" page="1" pageScale="1" pageWidth="827" pageHeight="1169" math="0" shadow="0">
      <root>
        <mxCell id="ptKzuCx5WeyX10jh85dy-0" />
        <mxCell id="ptKzuCx5WeyX10jh85dy-1" parent="ptKzuCx5WeyX10jh85dy-0" />
        <mxCell id="ptKzuCx5WeyX10jh85dy-2" value="" style="rounded=0;whiteSpace=wrap;html=1;" vertex="1" parent="ptKzuCx5WeyX10jh85dy-1">
          <mxGeometry x="420" y="220" width="150" height="50" as="geometry" />
        </mxCell>
        <mxCell id="ptKzuCx5WeyX10jh85dy-3" value="" style="rounded=0;whiteSpace=wrap;html=1;" vertex="1" parent="ptKzuCx5WeyX10jh85dy-1">
          <mxGeometry x="420" y="270" width="150" height="50" as="geometry" />
        </mxCell>
        <mxCell id="ptKzuCx5WeyX10jh85dy-4" value="" style="rounded=0;whiteSpace=wrap;html=1;" vertex="1" parent="ptKzuCx5WeyX10jh85dy-1">
          <mxGeometry x="420" y="320" width="150" height="50" as="geometry" />
        </mxCell>
        <mxCell id="ptKzuCx5WeyX10jh85dy-5" value="" style="rounded=0;whiteSpace=wrap;html=1;" vertex="1" parent="ptKzuCx5WeyX10jh85dy-1">
          <mxGeometry x="420" y="370" width="150" height="50" as="geometry" />
        </mxCell>
        <mxCell id="ptKzuCx5WeyX10jh85dy-6" value="" style="rounded=0;whiteSpace=wrap;html=1;" vertex="1" parent="ptKzuCx5WeyX10jh85dy-1">
          <mxGeometry x="420" y="420" width="150" height="50" as="geometry" />
        </mxCell>
        <mxCell id="ptKzuCx5WeyX10jh85dy-7" value="0" style="text;html=1;align=center;verticalAlign=middle;whiteSpace=wrap;rounded=0;fontSize=18;" vertex="1" parent="ptKzuCx5WeyX10jh85dy-1">
          <mxGeometry x="350" y="230" width="60" height="30" as="geometry" />
        </mxCell>
        <mxCell id="ptKzuCx5WeyX10jh85dy-8" value="1" style="text;html=1;align=center;verticalAlign=middle;whiteSpace=wrap;rounded=0;fontSize=18;" vertex="1" parent="ptKzuCx5WeyX10jh85dy-1">
          <mxGeometry x="350" y="280" width="60" height="30" as="geometry" />
        </mxCell>
        <mxCell id="ptKzuCx5WeyX10jh85dy-9" value="2" style="text;html=1;align=center;verticalAlign=middle;whiteSpace=wrap;rounded=0;fontSize=18;" vertex="1" parent="ptKzuCx5WeyX10jh85dy-1">
          <mxGeometry x="350" y="330" width="60" height="30" as="geometry" />
        </mxCell>
        <mxCell id="ptKzuCx5WeyX10jh85dy-10" value="3" style="text;html=1;align=center;verticalAlign=middle;whiteSpace=wrap;rounded=0;fontSize=18;" vertex="1" parent="ptKzuCx5WeyX10jh85dy-1">
          <mxGeometry x="350" y="380" width="60" height="30" as="geometry" />
        </mxCell>
        <mxCell id="ptKzuCx5WeyX10jh85dy-11" value="4" style="text;html=1;align=center;verticalAlign=middle;whiteSpace=wrap;rounded=0;fontSize=18;" vertex="1" parent="ptKzuCx5WeyX10jh85dy-1">
          <mxGeometry x="350" y="430" width="60" height="30" as="geometry" />
        </mxCell>
        <mxCell id="ptKzuCx5WeyX10jh85dy-12" value="CAPACIDADE: 5" style="text;html=1;align=center;verticalAlign=middle;whiteSpace=wrap;rounded=0;fontSize=18;" vertex="1" parent="ptKzuCx5WeyX10jh85dy-1">
          <mxGeometry x="80" y="260" width="160" height="30" as="geometry" />
        </mxCell>
        <mxCell id="ptKzuCx5WeyX10jh85dy-13" value="h(k): k mod m" style="text;html=1;align=center;verticalAlign=middle;whiteSpace=wrap;rounded=0;fontSize=18;" vertex="1" parent="ptKzuCx5WeyX10jh85dy-1">
          <mxGeometry x="80" y="300" width="170" height="30" as="geometry" />
        </mxCell>
        <mxCell id="FgsXC7TYOsSUd0kGJJwg-0" value="" style="shape=image;verticalLabelPosition=bottom;labelBackgroundColor=default;verticalAlign=top;aspect=fixed;imageAspect=0;image=data:image/png,iVBORw0KGgoAAAANSUhEUgAAAXMAAABSCAIAAAApX6PiAAAM00lEQVR4Ae1d7Y3jOAy9nlLNpBUjxQxSyQCpZIGpIwdSIvkoS4lv1+P12S9/Rpb5+Ug9yd4F/M+TPyJABIjA2gj8s7ZB2iMCRIAIPMksbAIiQATWR4DMsj6mtEgEiACZhT1ABIjA+giQWdbHlBaJABEgs7AHiAARWB8BMsv6mNIiESACZBb2ABEgAusjQGZZH1NaJAJEgMzCHiACRGB9BMgs62NKi0SACKzMLN+f18vt8RZWEfu4f7+V+12Bn7bfj+vX/Xq53n/1b/7Y7Pf94zJ9rWz+cbvYb8JyCrD1N870azKZpGshSsDXz5fF/5o67dGdNKP170xmScCQ7OUyqqAU1zIfBv/wzDvxlxADHLEGOIQuTDbp1csl7T2QeUyjBPuufn92TWapVdwBs/w+Hn+ieRRmkZVmvJ8aVFaFEYqMe8QBMknXgC1N8mrxlLVnAVS97qTZHMpAME8Z9wJ+Pqb+PFqXZW8xy7hH5cKYvq0Khr2F8LgNdd/Zt3gKxzX42M36ty9TyMsq2KisfbkSs1RGn6YBoE3Y2HOP2+X6eXeyj5pVmw21P7VF6u7hwt+fVzcyfT3D/q/79eN+LzvwvNKlX9UDnDVi9+g2h+bSk5GAvWzaZyXMaALdMb5s95N5t+OKz+dzrPsZOOlRIiStL2MGgy/rWcMJR4FSKo+E5MA+JcKqkuVjHrXTikqAqJSUY5qGZ5aCxnW64ZG2O4k+nxqknACyIrSBiPcDfmqHvDxBPUXGQBBD0rEzjSFzYajf94/AP25kXcF53qtVWiw0aYadsUw5l11vEyYyU1xzYjVmueuBPDXWOE7sUc0ZerduINjfMMYaQL3FINQ+7ItMrw+ehaGszGK2jGVlWt/gGJOBeJQFqnzEkxQBE10klWh0bDGDzBJdkbHmk7ERQTtfZRA0HGNOo3EkNUesewQIQ1GFOlfWVUowpGX0uOuKzYrdyazXV1wW8Nd0/YgHHdhg0IUUy7oCqx8yUMGYnI0e08c1nBk95XxL2H1sdQf9buWzm67M41NfPmA1s9bqVysxi8W1DN+0mSSVyLxbP1xF4lIgVnZvsI7LMGgh1r9tf1sY7Xyjhk7rLXGhfeC+2qd93y1TUuZRzbiKD6r1vm4kqNRWmaVhDYzn/YF/nqjMpCCfZffWo08cxHqKEsnsncXXpMVahvDMPqTc86hzHRkB4VXAouLgSNi22bROJGz99QXKQUbgKr/uoUODsW0g2EpiQHkR6zJLfXDrpBnRvpTxlgj5nxrtllmUNdoiSTHa328yS1rkiS/qqoh3DQ320T0RSmIWbda4p6PSjslpOlQboSzUhd6Sji/NCpMlZGclXxV+umly6l9qptHiGptdvlqEbg3z9dcZ2zHLfw94xqQllQEjeJ6VguMpUgFHskBRHwuGgqfEicIDZvF3NLNCu0WJf9AMKkNmCahsnetZFDs1RCovwC4X0A+hbE31qqucgCVXn+027oGYr/Dut+ogOR0yCyQCBpIuuFjCLOa+7qj9XRd8ybChlfL2x54ITGAGTseIynjHz+00KvNqFgFIea5RZ7JMS2HDwoE9sTBLKpvtP62katZnbWNhsJ+GxiBL7MvrRQuslXejb2WsRV3j5wb7PbNgzgZl2ysuYwJ1Ii6HULam+m1nu4o7GvW9CLivnpZaSOyQetHOLC//CSNOHJHgkqchjB5fDKV5vBBw/J+H7MYSxEYyknj7s3Vi9uMvZPdmMm7rKCuOgkGljgyyZxHNZvvMIjKYUa8HOnbKLpKFW1MahBJ9A2HLXO9lvEURg58Z75ZZcBFC+aUGvuXGfFOzuHwBJZqKcdjsvGWoNZDYvP96vsRI9Fn0DSYlhwI3IoRSjyqLdMMpMouOzS/YiQCA/sb9JA3aOzeJU3/+D8SyIfTVl0kIZ+V6BdnF/e5k3NZRI7Mk4JlMu1zFsHSR03qqPgSAxQXwQWJux965ICZoB5Vj3KQZN2DUl3mxHEB3leHPMks/vfJgab2bDguYufSl/WA30Fao874yG0dxiQbngIULZyt4SXnpLzAxo61Wg7BE4swiEtIf9vNmTU0zYJZFupFgAfPiRKY9XRwDaLibWTen9+iBDabmCdj/xEPw3U7o6ghkANUQwlUUszjC7Hy+O+l3y2AuA8E4NTRK8EYvNq1WJlUcgM1yUPSRDMDr3atGQjfPZw96NU9zLtSXeb0c5lb+YGZlZvmDSKhKBIjAcRAgsxynlsyECOwHATLLfmrBSIjAcRAgsxynlsyECOwHATLLfmrBSIjAcRAgsxynlsyECOwHATLLfmrBSIjAcRAgsxynlsyECOwHATLLfmrBSIjAcRAgsxynlsyECOwHATLLfmrBSIjAcRAgsxynlsyECOwHATLLfmrBSIjAcRAgsxynlsyECOwHATLLfmrBSIjAcRAgsxynlsyECOwHATLLfmrBSIjAcRAgsxynlsyECOwHATLLfmrBSIjAcRAgsxynlsyECOwHATLLfmrBSIjAcRAgsxynlsyECOwHATLLfmrBSIjAcRAgsxynlsyECOwHATLLfmrBSIjAcRBYjVngK3z+ScAhTPjlOvsOX/d7ekMLR7qRvhK5WWLxvdcfchkf/et+TbH/Eb8mFvyWa9ySryx2bYYIR38bgXWYRdaGfYR0SceITP48pXLNe0r623D9iP8jMovQSv2KaPeLn+UjpNYzA1gLNzVdUT8vS2YZgLaX6VWYRToAKv2YXnwfVxOfM0v5EHI2YqcZ5yBpx+nhH2O+PeBru9h/sVvaJ3LbbwnDN5Vrp4qzaPTHdJnu8oF0nPSagYrH5t9XFp3h+UsJtOQVMolZPDuAtMAlYvqbvuBTxBCAfHbefo6k6t7lC/b6q4CEpOEWMxFY+jp1OGrK7bDAQKyZZf2OvRWiyHzfP67T7QqAg64NH7fLdEM7lvVtyv1mCvy7JwRWYZacUHePyiLvmAV7F0ihbHSlxcu4ti/I6KfarY/FThmLx0QcZf2g4hNWuHJTrCWMXmml3oIxriUcg2qKAWTCL0zi9+dF0YimjOuJD6FeoKvUY8SBT0OiC/N1jODgGFJaMsQgVf7783r9/E5ozO18TZIjJiXcfX+IJLbHXJMzu0BgfWaJdTJOULoqr1tdMHWXa+9Ka+qt1KOp111FBsEgz2hN1PVF5YMaqp+2xr2bez3WfzPfyd2Nm7NbZT1DTDLys8azHIIUpZQUJqLHAVVZpotrMnJPSMrCvV20Ou18J6c3U0rQRu4mK+fBR8kOK2W39a8cau6/oHzp7rg6SYwXfxOBlZlFmjKOwcPEZKm0Pz88a2d37/YXlXhxZrFVYa5FpViOdeKPQr0wytY97N20yMWJ84XYLz9kB4vjCQ9ukVs5T1nMdR3G7UtZ4ZqdL8LISPI2Mlqm22eWNlkHMx6v3Hvk8x9GlqDidavsOUMyDJZDjVz3+boNODQ52g0CazLLQlpBIhAcZKnY2z7FBRsxAfVHzOLr07nAZ5KTEsLoSX62HsJasaIg9F61pOCTR8t3uGCS0zGzdBkt6f5XZilhaoGE7/IxM+Xw+sIJojzjqHAODPR/3a9OZK4I9/k0lMDY68VazKI7tjfEu2ylq7BNpYHiQeBVz/nrgNiuxZkbbHWxNcva/pzicQnvppiHi7zdRft8EecjsDq0aczS1bLsHNs+syzT7TNLq2vxQOzD40OWsatRFYx28VgWZ9WiLbrtz94BVftDJM0///59BNZhFukYb/0FSTkRuKz2nDeQtI69hYWTRVrGsh58lwaDqIvj+uyQ914xEhwXRPOid1EFxqFbTmGei6eoicSjYriIlSxGXFGMd14/95mlPDi80+0zS9aNGCIAePkS6bwcRXbliOHVdK2WffwGDhDVmEfjMcvRrhBYg1mk19tfWfOj7gEicDR0lfrCQ5vOWYuYpf7bQQmoaWjxC4cj9S1taj/fP1/3bglVleDkhRuyU56nVwZdmWCWcviyaDz4BOOIWZboIrPoOIhM1nD5OT3ld0NehWSkyQ8uoYKeCNyGDQNnmzGZpQHk/3O5BrP8f7JlpESACGyDAJllG5zphQicCwEyy7nqzWyJwDYIkFm2wZleiMC5ECCznKvezJYIbIMAmWUbnOmFCJwLATLLuerNbInANgiQWbbBmV6IwLkQILOcq97MlghsgwCZZRuc6YUInAsBMsu56s1sicA2CJBZtsGZXojAuRAgs5yr3syWCGyDAJllG5zphQicCwEyy7nqzWyJwDYIkFm2wZleiMC5ECCznKvezJYIbIMAmWUbnOmFCJwLATLLuerNbInANgiQWbbBmV6IwLkQILOcq97MlghsgwCZZRuc6YUInAsBMsu56s1sicA2CJBZtsGZXojAuRAgs5yr3syWCGyDwL+NJDhkGVVXHQAAAABJRU5ErkJggg==;" vertex="1" parent="ptKzuCx5WeyX10jh85dy-1">
          <mxGeometry x="80" y="34" width="371" height="82" as="geometry" />
        </mxCell>
      </root>
    </mxGraphModel>
  </diagram>
  <diagram name="TabelaHash1.12" id="GVB35_hHywdU-jiSuC9J">
    <mxGraphModel dx="1434" dy="746" grid="1" gridSize="10" guides="1" tooltips="1" connect="1" arrows="1" fold="1" page="1" pageScale="1" pageWidth="827" pageHeight="1169" math="0" shadow="0">
      <root>
        <mxCell id="36odmqtonVVxws34kpMb-0" />
        <mxCell id="36odmqtonVVxws34kpMb-1" parent="36odmqtonVVxws34kpMb-0" />
        <mxCell id="36odmqtonVVxws34kpMb-2" value="" style="rounded=0;whiteSpace=wrap;html=1;fontSize=18;" vertex="1" parent="36odmqtonVVxws34kpMb-1">
          <mxGeometry x="420" y="220" width="150" height="50" as="geometry" />
        </mxCell>
        <mxCell id="36odmqtonVVxws34kpMb-3" value="" style="rounded=0;whiteSpace=wrap;html=1;fontSize=18;" vertex="1" parent="36odmqtonVVxws34kpMb-1">
          <mxGeometry x="420" y="270" width="150" height="50" as="geometry" />
        </mxCell>
        <mxCell id="36odmqtonVVxws34kpMb-4" value="" style="rounded=0;whiteSpace=wrap;html=1;fontSize=18;" vertex="1" parent="36odmqtonVVxws34kpMb-1">
          <mxGeometry x="420" y="320" width="150" height="50" as="geometry" />
        </mxCell>
        <mxCell id="36odmqtonVVxws34kpMb-5" value="28" style="rounded=0;whiteSpace=wrap;html=1;fontSize=18;" vertex="1" parent="36odmqtonVVxws34kpMb-1">
          <mxGeometry x="420" y="370" width="150" height="50" as="geometry" />
        </mxCell>
        <mxCell id="36odmqtonVVxws34kpMb-6" value="" style="rounded=0;whiteSpace=wrap;html=1;fontSize=18;" vertex="1" parent="36odmqtonVVxws34kpMb-1">
          <mxGeometry x="420" y="420" width="150" height="50" as="geometry" />
        </mxCell>
        <mxCell id="36odmqtonVVxws34kpMb-7" value="0" style="text;html=1;align=center;verticalAlign=middle;whiteSpace=wrap;rounded=0;fontSize=18;" vertex="1" parent="36odmqtonVVxws34kpMb-1">
          <mxGeometry x="350" y="230" width="60" height="30" as="geometry" />
        </mxCell>
        <mxCell id="36odmqtonVVxws34kpMb-8" value="1" style="text;html=1;align=center;verticalAlign=middle;whiteSpace=wrap;rounded=0;fontSize=18;" vertex="1" parent="36odmqtonVVxws34kpMb-1">
          <mxGeometry x="350" y="280" width="60" height="30" as="geometry" />
        </mxCell>
        <mxCell id="36odmqtonVVxws34kpMb-9" value="2" style="text;html=1;align=center;verticalAlign=middle;whiteSpace=wrap;rounded=0;fontSize=18;" vertex="1" parent="36odmqtonVVxws34kpMb-1">
          <mxGeometry x="350" y="330" width="60" height="30" as="geometry" />
        </mxCell>
        <mxCell id="36odmqtonVVxws34kpMb-10" value="3" style="text;html=1;align=center;verticalAlign=middle;whiteSpace=wrap;rounded=0;fontSize=18;" vertex="1" parent="36odmqtonVVxws34kpMb-1">
          <mxGeometry x="350" y="380" width="60" height="30" as="geometry" />
        </mxCell>
        <mxCell id="36odmqtonVVxws34kpMb-11" value="4" style="text;html=1;align=center;verticalAlign=middle;whiteSpace=wrap;rounded=0;fontSize=18;" vertex="1" parent="36odmqtonVVxws34kpMb-1">
          <mxGeometry x="350" y="430" width="60" height="30" as="geometry" />
        </mxCell>
        <mxCell id="36odmqtonVVxws34kpMb-12" value="CAPACIDADE: 5" style="text;html=1;align=center;verticalAlign=middle;whiteSpace=wrap;rounded=0;fontSize=18;" vertex="1" parent="36odmqtonVVxws34kpMb-1">
          <mxGeometry x="80" y="260" width="160" height="30" as="geometry" />
        </mxCell>
        <mxCell id="36odmqtonVVxws34kpMb-13" value="h(k): k mod m" style="text;html=1;align=center;verticalAlign=middle;whiteSpace=wrap;rounded=0;fontSize=18;" vertex="1" parent="36odmqtonVVxws34kpMb-1">
          <mxGeometry x="80" y="300" width="170" height="30" as="geometry" />
        </mxCell>
        <mxCell id="36odmqtonVVxws34kpMb-14" value="" style="shape=image;verticalLabelPosition=bottom;labelBackgroundColor=default;verticalAlign=top;aspect=fixed;imageAspect=0;image=data:image/png,iVBORw0KGgoAAAANSUhEUgAAAXMAAABSCAIAAAApX6PiAAAM00lEQVR4Ae1d7Y3jOAy9nlLNpBUjxQxSyQCpZIGpIwdSIvkoS4lv1+P12S9/Rpb5+Ug9yd4F/M+TPyJABIjA2gj8s7ZB2iMCRIAIPMksbAIiQATWR4DMsj6mtEgEiACZhT1ABIjA+giQWdbHlBaJABEgs7AHiAARWB8BMsv6mNIiESACZBb2ABEgAusjQGZZH1NaJAJEgMzCHiACRGB9BMgs62NKi0SACKzMLN+f18vt8RZWEfu4f7+V+12Bn7bfj+vX/Xq53n/1b/7Y7Pf94zJ9rWz+cbvYb8JyCrD1N870azKZpGshSsDXz5fF/5o67dGdNKP170xmScCQ7OUyqqAU1zIfBv/wzDvxlxADHLEGOIQuTDbp1csl7T2QeUyjBPuufn92TWapVdwBs/w+Hn+ieRRmkZVmvJ8aVFaFEYqMe8QBMknXgC1N8mrxlLVnAVS97qTZHMpAME8Z9wJ+Pqb+PFqXZW8xy7hH5cKYvq0Khr2F8LgNdd/Zt3gKxzX42M36ty9TyMsq2KisfbkSs1RGn6YBoE3Y2HOP2+X6eXeyj5pVmw21P7VF6u7hwt+fVzcyfT3D/q/79eN+LzvwvNKlX9UDnDVi9+g2h+bSk5GAvWzaZyXMaALdMb5s95N5t+OKz+dzrPsZOOlRIiStL2MGgy/rWcMJR4FSKo+E5MA+JcKqkuVjHrXTikqAqJSUY5qGZ5aCxnW64ZG2O4k+nxqknACyIrSBiPcDfmqHvDxBPUXGQBBD0rEzjSFzYajf94/AP25kXcF53qtVWiw0aYadsUw5l11vEyYyU1xzYjVmueuBPDXWOE7sUc0ZerduINjfMMYaQL3FINQ+7ItMrw+ehaGszGK2jGVlWt/gGJOBeJQFqnzEkxQBE10klWh0bDGDzBJdkbHmk7ERQTtfZRA0HGNOo3EkNUesewQIQ1GFOlfWVUowpGX0uOuKzYrdyazXV1wW8Nd0/YgHHdhg0IUUy7oCqx8yUMGYnI0e08c1nBk95XxL2H1sdQf9buWzm67M41NfPmA1s9bqVysxi8W1DN+0mSSVyLxbP1xF4lIgVnZvsI7LMGgh1r9tf1sY7Xyjhk7rLXGhfeC+2qd93y1TUuZRzbiKD6r1vm4kqNRWmaVhDYzn/YF/nqjMpCCfZffWo08cxHqKEsnsncXXpMVahvDMPqTc86hzHRkB4VXAouLgSNi22bROJGz99QXKQUbgKr/uoUODsW0g2EpiQHkR6zJLfXDrpBnRvpTxlgj5nxrtllmUNdoiSTHa328yS1rkiS/qqoh3DQ320T0RSmIWbda4p6PSjslpOlQboSzUhd6Sji/NCpMlZGclXxV+umly6l9qptHiGptdvlqEbg3z9dcZ2zHLfw94xqQllQEjeJ6VguMpUgFHskBRHwuGgqfEicIDZvF3NLNCu0WJf9AMKkNmCahsnetZFDs1RCovwC4X0A+hbE31qqucgCVXn+027oGYr/Dut+ogOR0yCyQCBpIuuFjCLOa+7qj9XRd8ybChlfL2x54ITGAGTseIynjHz+00KvNqFgFIea5RZ7JMS2HDwoE9sTBLKpvtP62katZnbWNhsJ+GxiBL7MvrRQuslXejb2WsRV3j5wb7PbNgzgZl2ysuYwJ1Ii6HULam+m1nu4o7GvW9CLivnpZaSOyQetHOLC//CSNOHJHgkqchjB5fDKV5vBBw/J+H7MYSxEYyknj7s3Vi9uMvZPdmMm7rKCuOgkGljgyyZxHNZvvMIjKYUa8HOnbKLpKFW1MahBJ9A2HLXO9lvEURg58Z75ZZcBFC+aUGvuXGfFOzuHwBJZqKcdjsvGWoNZDYvP96vsRI9Fn0DSYlhwI3IoRSjyqLdMMpMouOzS/YiQCA/sb9JA3aOzeJU3/+D8SyIfTVl0kIZ+V6BdnF/e5k3NZRI7Mk4JlMu1zFsHSR03qqPgSAxQXwQWJux965ICZoB5Vj3KQZN2DUl3mxHEB3leHPMks/vfJgab2bDguYufSl/WA30Fao874yG0dxiQbngIULZyt4SXnpLzAxo61Wg7BE4swiEtIf9vNmTU0zYJZFupFgAfPiRKY9XRwDaLibWTen9+iBDabmCdj/xEPw3U7o6ghkANUQwlUUszjC7Hy+O+l3y2AuA8E4NTRK8EYvNq1WJlUcgM1yUPSRDMDr3atGQjfPZw96NU9zLtSXeb0c5lb+YGZlZvmDSKhKBIjAcRAgsxynlsyECOwHATLLfmrBSIjAcRAgsxynlsyECOwHATLLfmrBSIjAcRAgsxynlsyECOwHATLLfmrBSIjAcRAgsxynlsyECOwHATLLfmrBSIjAcRAgsxynlsyECOwHATLLfmrBSIjAcRAgsxynlsyECOwHATLLfmrBSIjAcRAgsxynlsyECOwHATLLfmrBSIjAcRAgsxynlsyECOwHATLLfmrBSIjAcRAgsxynlsyECOwHATLLfmrBSIjAcRAgsxynlsyECOwHATLLfmrBSIjAcRAgsxynlsyECOwHATLLfmrBSIjAcRAgsxynlsyECOwHATLLfmrBSIjAcRBYjVngK3z+ScAhTPjlOvsOX/d7ekMLR7qRvhK5WWLxvdcfchkf/et+TbH/Eb8mFvyWa9ySryx2bYYIR38bgXWYRdaGfYR0SceITP48pXLNe0r623D9iP8jMovQSv2KaPeLn+UjpNYzA1gLNzVdUT8vS2YZgLaX6VWYRToAKv2YXnwfVxOfM0v5EHI2YqcZ5yBpx+nhH2O+PeBru9h/sVvaJ3LbbwnDN5Vrp4qzaPTHdJnu8oF0nPSagYrH5t9XFp3h+UsJtOQVMolZPDuAtMAlYvqbvuBTxBCAfHbefo6k6t7lC/b6q4CEpOEWMxFY+jp1OGrK7bDAQKyZZf2OvRWiyHzfP67T7QqAg64NH7fLdEM7lvVtyv1mCvy7JwRWYZacUHePyiLvmAV7F0ihbHSlxcu4ti/I6KfarY/FThmLx0QcZf2g4hNWuHJTrCWMXmml3oIxriUcg2qKAWTCL0zi9+dF0YimjOuJD6FeoKvUY8SBT0OiC/N1jODgGFJaMsQgVf7783r9/E5ozO18TZIjJiXcfX+IJLbHXJMzu0BgfWaJdTJOULoqr1tdMHWXa+9Ka+qt1KOp111FBsEgz2hN1PVF5YMaqp+2xr2bez3WfzPfyd2Nm7NbZT1DTDLys8azHIIUpZQUJqLHAVVZpotrMnJPSMrCvV20Ou18J6c3U0rQRu4mK+fBR8kOK2W39a8cau6/oHzp7rg6SYwXfxOBlZlFmjKOwcPEZKm0Pz88a2d37/YXlXhxZrFVYa5FpViOdeKPQr0wytY97N20yMWJ84XYLz9kB4vjCQ9ukVs5T1nMdR3G7UtZ4ZqdL8LISPI2Mlqm22eWNlkHMx6v3Hvk8x9GlqDidavsOUMyDJZDjVz3+boNODQ52g0CazLLQlpBIhAcZKnY2z7FBRsxAfVHzOLr07nAZ5KTEsLoSX62HsJasaIg9F61pOCTR8t3uGCS0zGzdBkt6f5XZilhaoGE7/IxM+Xw+sIJojzjqHAODPR/3a9OZK4I9/k0lMDY68VazKI7tjfEu2ylq7BNpYHiQeBVz/nrgNiuxZkbbHWxNcva/pzicQnvppiHi7zdRft8EecjsDq0aczS1bLsHNs+syzT7TNLq2vxQOzD40OWsatRFYx28VgWZ9WiLbrtz94BVftDJM0///59BNZhFukYb/0FSTkRuKz2nDeQtI69hYWTRVrGsh58lwaDqIvj+uyQ914xEhwXRPOid1EFxqFbTmGei6eoicSjYriIlSxGXFGMd14/95mlPDi80+0zS9aNGCIAePkS6bwcRXbliOHVdK2WffwGDhDVmEfjMcvRrhBYg1mk19tfWfOj7gEicDR0lfrCQ5vOWYuYpf7bQQmoaWjxC4cj9S1taj/fP1/3bglVleDkhRuyU56nVwZdmWCWcviyaDz4BOOIWZboIrPoOIhM1nD5OT3ld0NehWSkyQ8uoYKeCNyGDQNnmzGZpQHk/3O5BrP8f7JlpESACGyDAJllG5zphQicCwEyy7nqzWyJwDYIkFm2wZleiMC5ECCznKvezJYIbIMAmWUbnOmFCJwLATLLuerNbInANgiQWbbBmV6IwLkQILOcq97MlghsgwCZZRuc6YUInAsBMsu56s1sicA2CJBZtsGZXojAuRAgs5yr3syWCGyDAJllG5zphQicCwEyy7nqzWyJwDYIkFm2wZleiMC5ECCznKvezJYIbIMAmWUbnOmFCJwLATLLuerNbInANgiQWbbBmV6IwLkQILOcq97MlghsgwCZZRuc6YUInAsBMsu56s1sicA2CJBZtsGZXojAuRAgs5yr3syWCGyDwL+NJDhkGVVXHQAAAABJRU5ErkJggg==;" vertex="1" parent="36odmqtonVVxws34kpMb-1">
          <mxGeometry x="80" y="34" width="371" height="82" as="geometry" />
        </mxCell>
        <mxCell id="nwFOgDfzbWqzwjKS6rcl-0" value="28 mod 5 = 3" style="text;html=1;align=center;verticalAlign=middle;whiteSpace=wrap;rounded=0;fontSize=18;" vertex="1" parent="36odmqtonVVxws34kpMb-1">
          <mxGeometry x="105" y="340" width="120" height="30" as="geometry" />
        </mxCell>
      </root>
    </mxGraphModel>
  </diagram>
  <diagram name="Cópia do TabelaHash1.2" id="3m43XVq1tjeDu5zxCS1B">
    <mxGraphModel dx="1434" dy="746" grid="1" gridSize="10" guides="1" tooltips="1" connect="1" arrows="1" fold="1" page="1" pageScale="1" pageWidth="827" pageHeight="1169" math="0" shadow="0">
      <root>
        <mxCell id="g7-eBNZsfT_fldZL2Wij-0" />
        <mxCell id="g7-eBNZsfT_fldZL2Wij-1" parent="g7-eBNZsfT_fldZL2Wij-0" />
        <mxCell id="g7-eBNZsfT_fldZL2Wij-2" value="" style="rounded=0;whiteSpace=wrap;html=1;fontSize=18;" vertex="1" parent="g7-eBNZsfT_fldZL2Wij-1">
          <mxGeometry x="420" y="220" width="150" height="50" as="geometry" />
        </mxCell>
        <mxCell id="g7-eBNZsfT_fldZL2Wij-3" value="" style="rounded=0;whiteSpace=wrap;html=1;fontSize=18;" vertex="1" parent="g7-eBNZsfT_fldZL2Wij-1">
          <mxGeometry x="420" y="270" width="150" height="50" as="geometry" />
        </mxCell>
        <mxCell id="g7-eBNZsfT_fldZL2Wij-4" value="" style="rounded=0;whiteSpace=wrap;html=1;fontSize=18;" vertex="1" parent="g7-eBNZsfT_fldZL2Wij-1">
          <mxGeometry x="420" y="320" width="150" height="50" as="geometry" />
        </mxCell>
        <mxCell id="g7-eBNZsfT_fldZL2Wij-5" value="28" style="rounded=0;whiteSpace=wrap;html=1;fontSize=18;" vertex="1" parent="g7-eBNZsfT_fldZL2Wij-1">
          <mxGeometry x="420" y="370" width="150" height="50" as="geometry" />
        </mxCell>
        <mxCell id="g7-eBNZsfT_fldZL2Wij-6" value="34" style="rounded=0;whiteSpace=wrap;html=1;fontSize=18;" vertex="1" parent="g7-eBNZsfT_fldZL2Wij-1">
          <mxGeometry x="420" y="420" width="150" height="50" as="geometry" />
        </mxCell>
        <mxCell id="g7-eBNZsfT_fldZL2Wij-7" value="0" style="text;html=1;align=center;verticalAlign=middle;whiteSpace=wrap;rounded=0;fontSize=18;" vertex="1" parent="g7-eBNZsfT_fldZL2Wij-1">
          <mxGeometry x="350" y="230" width="60" height="30" as="geometry" />
        </mxCell>
        <mxCell id="g7-eBNZsfT_fldZL2Wij-8" value="1" style="text;html=1;align=center;verticalAlign=middle;whiteSpace=wrap;rounded=0;fontSize=18;" vertex="1" parent="g7-eBNZsfT_fldZL2Wij-1">
          <mxGeometry x="350" y="280" width="60" height="30" as="geometry" />
        </mxCell>
        <mxCell id="g7-eBNZsfT_fldZL2Wij-9" value="2" style="text;html=1;align=center;verticalAlign=middle;whiteSpace=wrap;rounded=0;fontSize=18;" vertex="1" parent="g7-eBNZsfT_fldZL2Wij-1">
          <mxGeometry x="350" y="330" width="60" height="30" as="geometry" />
        </mxCell>
        <mxCell id="g7-eBNZsfT_fldZL2Wij-10" value="3" style="text;html=1;align=center;verticalAlign=middle;whiteSpace=wrap;rounded=0;fontSize=18;" vertex="1" parent="g7-eBNZsfT_fldZL2Wij-1">
          <mxGeometry x="350" y="380" width="60" height="30" as="geometry" />
        </mxCell>
        <mxCell id="g7-eBNZsfT_fldZL2Wij-11" value="4" style="text;html=1;align=center;verticalAlign=middle;whiteSpace=wrap;rounded=0;fontSize=18;" vertex="1" parent="g7-eBNZsfT_fldZL2Wij-1">
          <mxGeometry x="350" y="430" width="60" height="30" as="geometry" />
        </mxCell>
        <mxCell id="g7-eBNZsfT_fldZL2Wij-12" value="CAPACIDADE: 5" style="text;html=1;align=center;verticalAlign=middle;whiteSpace=wrap;rounded=0;fontSize=18;" vertex="1" parent="g7-eBNZsfT_fldZL2Wij-1">
          <mxGeometry x="80" y="260" width="160" height="30" as="geometry" />
        </mxCell>
        <mxCell id="g7-eBNZsfT_fldZL2Wij-13" value="h(k): k mod m" style="text;html=1;align=center;verticalAlign=middle;whiteSpace=wrap;rounded=0;fontSize=18;" vertex="1" parent="g7-eBNZsfT_fldZL2Wij-1">
          <mxGeometry x="80" y="300" width="170" height="30" as="geometry" />
        </mxCell>
        <mxCell id="g7-eBNZsfT_fldZL2Wij-14" value="" style="shape=image;verticalLabelPosition=bottom;labelBackgroundColor=default;verticalAlign=top;aspect=fixed;imageAspect=0;image=data:image/png,iVBORw0KGgoAAAANSUhEUgAAAXMAAABSCAIAAAApX6PiAAAM00lEQVR4Ae1d7Y3jOAy9nlLNpBUjxQxSyQCpZIGpIwdSIvkoS4lv1+P12S9/Rpb5+Ug9yd4F/M+TPyJABIjA2gj8s7ZB2iMCRIAIPMksbAIiQATWR4DMsj6mtEgEiACZhT1ABIjA+giQWdbHlBaJABEgs7AHiAARWB8BMsv6mNIiESACZBb2ABEgAusjQGZZH1NaJAJEgMzCHiACRGB9BMgs62NKi0SACKzMLN+f18vt8RZWEfu4f7+V+12Bn7bfj+vX/Xq53n/1b/7Y7Pf94zJ9rWz+cbvYb8JyCrD1N870azKZpGshSsDXz5fF/5o67dGdNKP170xmScCQ7OUyqqAU1zIfBv/wzDvxlxADHLEGOIQuTDbp1csl7T2QeUyjBPuufn92TWapVdwBs/w+Hn+ieRRmkZVmvJ8aVFaFEYqMe8QBMknXgC1N8mrxlLVnAVS97qTZHMpAME8Z9wJ+Pqb+PFqXZW8xy7hH5cKYvq0Khr2F8LgNdd/Zt3gKxzX42M36ty9TyMsq2KisfbkSs1RGn6YBoE3Y2HOP2+X6eXeyj5pVmw21P7VF6u7hwt+fVzcyfT3D/q/79eN+LzvwvNKlX9UDnDVi9+g2h+bSk5GAvWzaZyXMaALdMb5s95N5t+OKz+dzrPsZOOlRIiStL2MGgy/rWcMJR4FSKo+E5MA+JcKqkuVjHrXTikqAqJSUY5qGZ5aCxnW64ZG2O4k+nxqknACyIrSBiPcDfmqHvDxBPUXGQBBD0rEzjSFzYajf94/AP25kXcF53qtVWiw0aYadsUw5l11vEyYyU1xzYjVmueuBPDXWOE7sUc0ZerduINjfMMYaQL3FINQ+7ItMrw+ehaGszGK2jGVlWt/gGJOBeJQFqnzEkxQBE10klWh0bDGDzBJdkbHmk7ERQTtfZRA0HGNOo3EkNUesewQIQ1GFOlfWVUowpGX0uOuKzYrdyazXV1wW8Nd0/YgHHdhg0IUUy7oCqx8yUMGYnI0e08c1nBk95XxL2H1sdQf9buWzm67M41NfPmA1s9bqVysxi8W1DN+0mSSVyLxbP1xF4lIgVnZvsI7LMGgh1r9tf1sY7Xyjhk7rLXGhfeC+2qd93y1TUuZRzbiKD6r1vm4kqNRWmaVhDYzn/YF/nqjMpCCfZffWo08cxHqKEsnsncXXpMVahvDMPqTc86hzHRkB4VXAouLgSNi22bROJGz99QXKQUbgKr/uoUODsW0g2EpiQHkR6zJLfXDrpBnRvpTxlgj5nxrtllmUNdoiSTHa328yS1rkiS/qqoh3DQ320T0RSmIWbda4p6PSjslpOlQboSzUhd6Sji/NCpMlZGclXxV+umly6l9qptHiGptdvlqEbg3z9dcZ2zHLfw94xqQllQEjeJ6VguMpUgFHskBRHwuGgqfEicIDZvF3NLNCu0WJf9AMKkNmCahsnetZFDs1RCovwC4X0A+hbE31qqucgCVXn+027oGYr/Dut+ogOR0yCyQCBpIuuFjCLOa+7qj9XRd8ybChlfL2x54ITGAGTseIynjHz+00KvNqFgFIea5RZ7JMS2HDwoE9sTBLKpvtP62katZnbWNhsJ+GxiBL7MvrRQuslXejb2WsRV3j5wb7PbNgzgZl2ysuYwJ1Ii6HULam+m1nu4o7GvW9CLivnpZaSOyQetHOLC//CSNOHJHgkqchjB5fDKV5vBBw/J+H7MYSxEYyknj7s3Vi9uMvZPdmMm7rKCuOgkGljgyyZxHNZvvMIjKYUa8HOnbKLpKFW1MahBJ9A2HLXO9lvEURg58Z75ZZcBFC+aUGvuXGfFOzuHwBJZqKcdjsvGWoNZDYvP96vsRI9Fn0DSYlhwI3IoRSjyqLdMMpMouOzS/YiQCA/sb9JA3aOzeJU3/+D8SyIfTVl0kIZ+V6BdnF/e5k3NZRI7Mk4JlMu1zFsHSR03qqPgSAxQXwQWJux965ICZoB5Vj3KQZN2DUl3mxHEB3leHPMks/vfJgab2bDguYufSl/WA30Fao874yG0dxiQbngIULZyt4SXnpLzAxo61Wg7BE4swiEtIf9vNmTU0zYJZFupFgAfPiRKY9XRwDaLibWTen9+iBDabmCdj/xEPw3U7o6ghkANUQwlUUszjC7Hy+O+l3y2AuA8E4NTRK8EYvNq1WJlUcgM1yUPSRDMDr3atGQjfPZw96NU9zLtSXeb0c5lb+YGZlZvmDSKhKBIjAcRAgsxynlsyECOwHATLLfmrBSIjAcRAgsxynlsyECOwHATLLfmrBSIjAcRAgsxynlsyECOwHATLLfmrBSIjAcRAgsxynlsyECOwHATLLfmrBSIjAcRAgsxynlsyECOwHATLLfmrBSIjAcRAgsxynlsyECOwHATLLfmrBSIjAcRAgsxynlsyECOwHATLLfmrBSIjAcRAgsxynlsyECOwHATLLfmrBSIjAcRAgsxynlsyECOwHATLLfmrBSIjAcRAgsxynlsyECOwHATLLfmrBSIjAcRAgsxynlsyECOwHATLLfmrBSIjAcRAgsxynlsyECOwHATLLfmrBSIjAcRBYjVngK3z+ScAhTPjlOvsOX/d7ekMLR7qRvhK5WWLxvdcfchkf/et+TbH/Eb8mFvyWa9ySryx2bYYIR38bgXWYRdaGfYR0SceITP48pXLNe0r623D9iP8jMovQSv2KaPeLn+UjpNYzA1gLNzVdUT8vS2YZgLaX6VWYRToAKv2YXnwfVxOfM0v5EHI2YqcZ5yBpx+nhH2O+PeBru9h/sVvaJ3LbbwnDN5Vrp4qzaPTHdJnu8oF0nPSagYrH5t9XFp3h+UsJtOQVMolZPDuAtMAlYvqbvuBTxBCAfHbefo6k6t7lC/b6q4CEpOEWMxFY+jp1OGrK7bDAQKyZZf2OvRWiyHzfP67T7QqAg64NH7fLdEM7lvVtyv1mCvy7JwRWYZacUHePyiLvmAV7F0ihbHSlxcu4ti/I6KfarY/FThmLx0QcZf2g4hNWuHJTrCWMXmml3oIxriUcg2qKAWTCL0zi9+dF0YimjOuJD6FeoKvUY8SBT0OiC/N1jODgGFJaMsQgVf7783r9/E5ozO18TZIjJiXcfX+IJLbHXJMzu0BgfWaJdTJOULoqr1tdMHWXa+9Ka+qt1KOp111FBsEgz2hN1PVF5YMaqp+2xr2bez3WfzPfyd2Nm7NbZT1DTDLys8azHIIUpZQUJqLHAVVZpotrMnJPSMrCvV20Ou18J6c3U0rQRu4mK+fBR8kOK2W39a8cau6/oHzp7rg6SYwXfxOBlZlFmjKOwcPEZKm0Pz88a2d37/YXlXhxZrFVYa5FpViOdeKPQr0wytY97N20yMWJ84XYLz9kB4vjCQ9ukVs5T1nMdR3G7UtZ4ZqdL8LISPI2Mlqm22eWNlkHMx6v3Hvk8x9GlqDidavsOUMyDJZDjVz3+boNODQ52g0CazLLQlpBIhAcZKnY2z7FBRsxAfVHzOLr07nAZ5KTEsLoSX62HsJasaIg9F61pOCTR8t3uGCS0zGzdBkt6f5XZilhaoGE7/IxM+Xw+sIJojzjqHAODPR/3a9OZK4I9/k0lMDY68VazKI7tjfEu2ylq7BNpYHiQeBVz/nrgNiuxZkbbHWxNcva/pzicQnvppiHi7zdRft8EecjsDq0aczS1bLsHNs+syzT7TNLq2vxQOzD40OWsatRFYx28VgWZ9WiLbrtz94BVftDJM0///59BNZhFukYb/0FSTkRuKz2nDeQtI69hYWTRVrGsh58lwaDqIvj+uyQ914xEhwXRPOid1EFxqFbTmGei6eoicSjYriIlSxGXFGMd14/95mlPDi80+0zS9aNGCIAePkS6bwcRXbliOHVdK2WffwGDhDVmEfjMcvRrhBYg1mk19tfWfOj7gEicDR0lfrCQ5vOWYuYpf7bQQmoaWjxC4cj9S1taj/fP1/3bglVleDkhRuyU56nVwZdmWCWcviyaDz4BOOIWZboIrPoOIhM1nD5OT3ld0NehWSkyQ8uoYKeCNyGDQNnmzGZpQHk/3O5BrP8f7JlpESACGyDAJllG5zphQicCwEyy7nqzWyJwDYIkFm2wZleiMC5ECCznKvezJYIbIMAmWUbnOmFCJwLATLLuerNbInANgiQWbbBmV6IwLkQILOcq97MlghsgwCZZRuc6YUInAsBMsu56s1sicA2CJBZtsGZXojAuRAgs5yr3syWCGyDAJllG5zphQicCwEyy7nqzWyJwDYIkFm2wZleiMC5ECCznKvezJYIbIMAmWUbnOmFCJwLATLLuerNbInANgiQWbbBmV6IwLkQILOcq97MlghsgwCZZRuc6YUInAsBMsu56s1sicA2CJBZtsGZXojAuRAgs5yr3syWCGyDwL+NJDhkGVVXHQAAAABJRU5ErkJggg==;" vertex="1" parent="g7-eBNZsfT_fldZL2Wij-1">
          <mxGeometry x="80" y="34" width="371" height="82" as="geometry" />
        </mxCell>
        <mxCell id="g7-eBNZsfT_fldZL2Wij-15" value="34 mod 5 = 4" style="text;html=1;align=center;verticalAlign=middle;whiteSpace=wrap;rounded=0;fontSize=18;" vertex="1" parent="g7-eBNZsfT_fldZL2Wij-1">
          <mxGeometry x="105" y="340" width="120" height="30" as="geometry" />
        </mxCell>
      </root>
    </mxGraphModel>
  </diagram>
  <diagram name="TabelaHash1.3" id="djyG_f_xOqkCBBKHgu2T">
    <mxGraphModel dx="1434" dy="746" grid="1" gridSize="10" guides="1" tooltips="1" connect="1" arrows="1" fold="1" page="1" pageScale="1" pageWidth="827" pageHeight="1169" math="0" shadow="0">
      <root>
        <mxCell id="Xh3adcpeIHSascqncOTH-0" />
        <mxCell id="Xh3adcpeIHSascqncOTH-1" parent="Xh3adcpeIHSascqncOTH-0" />
        <mxCell id="Xh3adcpeIHSascqncOTH-2" value="" style="rounded=0;whiteSpace=wrap;html=1;fontSize=18;" vertex="1" parent="Xh3adcpeIHSascqncOTH-1">
          <mxGeometry x="420" y="220" width="150" height="50" as="geometry" />
        </mxCell>
        <mxCell id="Xh3adcpeIHSascqncOTH-3" value="11" style="rounded=0;whiteSpace=wrap;html=1;fontSize=18;" vertex="1" parent="Xh3adcpeIHSascqncOTH-1">
          <mxGeometry x="420" y="270" width="150" height="50" as="geometry" />
        </mxCell>
        <mxCell id="Xh3adcpeIHSascqncOTH-4" value="" style="rounded=0;whiteSpace=wrap;html=1;fontSize=18;" vertex="1" parent="Xh3adcpeIHSascqncOTH-1">
          <mxGeometry x="420" y="320" width="150" height="50" as="geometry" />
        </mxCell>
        <mxCell id="Xh3adcpeIHSascqncOTH-5" value="28" style="rounded=0;whiteSpace=wrap;html=1;fontSize=18;" vertex="1" parent="Xh3adcpeIHSascqncOTH-1">
          <mxGeometry x="420" y="370" width="150" height="50" as="geometry" />
        </mxCell>
        <mxCell id="Xh3adcpeIHSascqncOTH-6" value="34" style="rounded=0;whiteSpace=wrap;html=1;fontSize=18;" vertex="1" parent="Xh3adcpeIHSascqncOTH-1">
          <mxGeometry x="420" y="420" width="150" height="50" as="geometry" />
        </mxCell>
        <mxCell id="Xh3adcpeIHSascqncOTH-7" value="0" style="text;html=1;align=center;verticalAlign=middle;whiteSpace=wrap;rounded=0;fontSize=18;" vertex="1" parent="Xh3adcpeIHSascqncOTH-1">
          <mxGeometry x="350" y="230" width="60" height="30" as="geometry" />
        </mxCell>
        <mxCell id="Xh3adcpeIHSascqncOTH-8" value="1" style="text;html=1;align=center;verticalAlign=middle;whiteSpace=wrap;rounded=0;fontSize=18;" vertex="1" parent="Xh3adcpeIHSascqncOTH-1">
          <mxGeometry x="350" y="280" width="60" height="30" as="geometry" />
        </mxCell>
        <mxCell id="Xh3adcpeIHSascqncOTH-9" value="2" style="text;html=1;align=center;verticalAlign=middle;whiteSpace=wrap;rounded=0;fontSize=18;" vertex="1" parent="Xh3adcpeIHSascqncOTH-1">
          <mxGeometry x="350" y="330" width="60" height="30" as="geometry" />
        </mxCell>
        <mxCell id="Xh3adcpeIHSascqncOTH-10" value="3" style="text;html=1;align=center;verticalAlign=middle;whiteSpace=wrap;rounded=0;fontSize=18;" vertex="1" parent="Xh3adcpeIHSascqncOTH-1">
          <mxGeometry x="350" y="380" width="60" height="30" as="geometry" />
        </mxCell>
        <mxCell id="Xh3adcpeIHSascqncOTH-11" value="4" style="text;html=1;align=center;verticalAlign=middle;whiteSpace=wrap;rounded=0;fontSize=18;" vertex="1" parent="Xh3adcpeIHSascqncOTH-1">
          <mxGeometry x="350" y="430" width="60" height="30" as="geometry" />
        </mxCell>
        <mxCell id="Xh3adcpeIHSascqncOTH-12" value="CAPACIDADE: 5" style="text;html=1;align=center;verticalAlign=middle;whiteSpace=wrap;rounded=0;fontSize=18;" vertex="1" parent="Xh3adcpeIHSascqncOTH-1">
          <mxGeometry x="80" y="260" width="160" height="30" as="geometry" />
        </mxCell>
        <mxCell id="Xh3adcpeIHSascqncOTH-13" value="h(k): k mod m" style="text;html=1;align=center;verticalAlign=middle;whiteSpace=wrap;rounded=0;fontSize=18;" vertex="1" parent="Xh3adcpeIHSascqncOTH-1">
          <mxGeometry x="80" y="300" width="170" height="30" as="geometry" />
        </mxCell>
        <mxCell id="Xh3adcpeIHSascqncOTH-14" value="" style="shape=image;verticalLabelPosition=bottom;labelBackgroundColor=default;verticalAlign=top;aspect=fixed;imageAspect=0;image=data:image/png,iVBORw0KGgoAAAANSUhEUgAAAXMAAABSCAIAAAApX6PiAAAM00lEQVR4Ae1d7Y3jOAy9nlLNpBUjxQxSyQCpZIGpIwdSIvkoS4lv1+P12S9/Rpb5+Ug9yd4F/M+TPyJABIjA2gj8s7ZB2iMCRIAIPMksbAIiQATWR4DMsj6mtEgEiACZhT1ABIjA+giQWdbHlBaJABEgs7AHiAARWB8BMsv6mNIiESACZBb2ABEgAusjQGZZH1NaJAJEgMzCHiACRGB9BMgs62NKi0SACKzMLN+f18vt8RZWEfu4f7+V+12Bn7bfj+vX/Xq53n/1b/7Y7Pf94zJ9rWz+cbvYb8JyCrD1N870azKZpGshSsDXz5fF/5o67dGdNKP170xmScCQ7OUyqqAU1zIfBv/wzDvxlxADHLEGOIQuTDbp1csl7T2QeUyjBPuufn92TWapVdwBs/w+Hn+ieRRmkZVmvJ8aVFaFEYqMe8QBMknXgC1N8mrxlLVnAVS97qTZHMpAME8Z9wJ+Pqb+PFqXZW8xy7hH5cKYvq0Khr2F8LgNdd/Zt3gKxzX42M36ty9TyMsq2KisfbkSs1RGn6YBoE3Y2HOP2+X6eXeyj5pVmw21P7VF6u7hwt+fVzcyfT3D/q/79eN+LzvwvNKlX9UDnDVi9+g2h+bSk5GAvWzaZyXMaALdMb5s95N5t+OKz+dzrPsZOOlRIiStL2MGgy/rWcMJR4FSKo+E5MA+JcKqkuVjHrXTikqAqJSUY5qGZ5aCxnW64ZG2O4k+nxqknACyIrSBiPcDfmqHvDxBPUXGQBBD0rEzjSFzYajf94/AP25kXcF53qtVWiw0aYadsUw5l11vEyYyU1xzYjVmueuBPDXWOE7sUc0ZerduINjfMMYaQL3FINQ+7ItMrw+ehaGszGK2jGVlWt/gGJOBeJQFqnzEkxQBE10klWh0bDGDzBJdkbHmk7ERQTtfZRA0HGNOo3EkNUesewQIQ1GFOlfWVUowpGX0uOuKzYrdyazXV1wW8Nd0/YgHHdhg0IUUy7oCqx8yUMGYnI0e08c1nBk95XxL2H1sdQf9buWzm67M41NfPmA1s9bqVysxi8W1DN+0mSSVyLxbP1xF4lIgVnZvsI7LMGgh1r9tf1sY7Xyjhk7rLXGhfeC+2qd93y1TUuZRzbiKD6r1vm4kqNRWmaVhDYzn/YF/nqjMpCCfZffWo08cxHqKEsnsncXXpMVahvDMPqTc86hzHRkB4VXAouLgSNi22bROJGz99QXKQUbgKr/uoUODsW0g2EpiQHkR6zJLfXDrpBnRvpTxlgj5nxrtllmUNdoiSTHa328yS1rkiS/qqoh3DQ320T0RSmIWbda4p6PSjslpOlQboSzUhd6Sji/NCpMlZGclXxV+umly6l9qptHiGptdvlqEbg3z9dcZ2zHLfw94xqQllQEjeJ6VguMpUgFHskBRHwuGgqfEicIDZvF3NLNCu0WJf9AMKkNmCahsnetZFDs1RCovwC4X0A+hbE31qqucgCVXn+027oGYr/Dut+ogOR0yCyQCBpIuuFjCLOa+7qj9XRd8ybChlfL2x54ITGAGTseIynjHz+00KvNqFgFIea5RZ7JMS2HDwoE9sTBLKpvtP62katZnbWNhsJ+GxiBL7MvrRQuslXejb2WsRV3j5wb7PbNgzgZl2ysuYwJ1Ii6HULam+m1nu4o7GvW9CLivnpZaSOyQetHOLC//CSNOHJHgkqchjB5fDKV5vBBw/J+H7MYSxEYyknj7s3Vi9uMvZPdmMm7rKCuOgkGljgyyZxHNZvvMIjKYUa8HOnbKLpKFW1MahBJ9A2HLXO9lvEURg58Z75ZZcBFC+aUGvuXGfFOzuHwBJZqKcdjsvGWoNZDYvP96vsRI9Fn0DSYlhwI3IoRSjyqLdMMpMouOzS/YiQCA/sb9JA3aOzeJU3/+D8SyIfTVl0kIZ+V6BdnF/e5k3NZRI7Mk4JlMu1zFsHSR03qqPgSAxQXwQWJux965ICZoB5Vj3KQZN2DUl3mxHEB3leHPMks/vfJgab2bDguYufSl/WA30Fao874yG0dxiQbngIULZyt4SXnpLzAxo61Wg7BE4swiEtIf9vNmTU0zYJZFupFgAfPiRKY9XRwDaLibWTen9+iBDabmCdj/xEPw3U7o6ghkANUQwlUUszjC7Hy+O+l3y2AuA8E4NTRK8EYvNq1WJlUcgM1yUPSRDMDr3atGQjfPZw96NU9zLtSXeb0c5lb+YGZlZvmDSKhKBIjAcRAgsxynlsyECOwHATLLfmrBSIjAcRAgsxynlsyECOwHATLLfmrBSIjAcRAgsxynlsyECOwHATLLfmrBSIjAcRAgsxynlsyECOwHATLLfmrBSIjAcRAgsxynlsyECOwHATLLfmrBSIjAcRAgsxynlsyECOwHATLLfmrBSIjAcRAgsxynlsyECOwHATLLfmrBSIjAcRAgsxynlsyECOwHATLLfmrBSIjAcRAgsxynlsyECOwHATLLfmrBSIjAcRAgsxynlsyECOwHATLLfmrBSIjAcRAgsxynlsyECOwHATLLfmrBSIjAcRAgsxynlsyECOwHATLLfmrBSIjAcRBYjVngK3z+ScAhTPjlOvsOX/d7ekMLR7qRvhK5WWLxvdcfchkf/et+TbH/Eb8mFvyWa9ySryx2bYYIR38bgXWYRdaGfYR0SceITP48pXLNe0r623D9iP8jMovQSv2KaPeLn+UjpNYzA1gLNzVdUT8vS2YZgLaX6VWYRToAKv2YXnwfVxOfM0v5EHI2YqcZ5yBpx+nhH2O+PeBru9h/sVvaJ3LbbwnDN5Vrp4qzaPTHdJnu8oF0nPSagYrH5t9XFp3h+UsJtOQVMolZPDuAtMAlYvqbvuBTxBCAfHbefo6k6t7lC/b6q4CEpOEWMxFY+jp1OGrK7bDAQKyZZf2OvRWiyHzfP67T7QqAg64NH7fLdEM7lvVtyv1mCvy7JwRWYZacUHePyiLvmAV7F0ihbHSlxcu4ti/I6KfarY/FThmLx0QcZf2g4hNWuHJTrCWMXmml3oIxriUcg2qKAWTCL0zi9+dF0YimjOuJD6FeoKvUY8SBT0OiC/N1jODgGFJaMsQgVf7783r9/E5ozO18TZIjJiXcfX+IJLbHXJMzu0BgfWaJdTJOULoqr1tdMHWXa+9Ka+qt1KOp111FBsEgz2hN1PVF5YMaqp+2xr2bez3WfzPfyd2Nm7NbZT1DTDLys8azHIIUpZQUJqLHAVVZpotrMnJPSMrCvV20Ou18J6c3U0rQRu4mK+fBR8kOK2W39a8cau6/oHzp7rg6SYwXfxOBlZlFmjKOwcPEZKm0Pz88a2d37/YXlXhxZrFVYa5FpViOdeKPQr0wytY97N20yMWJ84XYLz9kB4vjCQ9ukVs5T1nMdR3G7UtZ4ZqdL8LISPI2Mlqm22eWNlkHMx6v3Hvk8x9GlqDidavsOUMyDJZDjVz3+boNODQ52g0CazLLQlpBIhAcZKnY2z7FBRsxAfVHzOLr07nAZ5KTEsLoSX62HsJasaIg9F61pOCTR8t3uGCS0zGzdBkt6f5XZilhaoGE7/IxM+Xw+sIJojzjqHAODPR/3a9OZK4I9/k0lMDY68VazKI7tjfEu2ylq7BNpYHiQeBVz/nrgNiuxZkbbHWxNcva/pzicQnvppiHi7zdRft8EecjsDq0aczS1bLsHNs+syzT7TNLq2vxQOzD40OWsatRFYx28VgWZ9WiLbrtz94BVftDJM0///59BNZhFukYb/0FSTkRuKz2nDeQtI69hYWTRVrGsh58lwaDqIvj+uyQ914xEhwXRPOid1EFxqFbTmGei6eoicSjYriIlSxGXFGMd14/95mlPDi80+0zS9aNGCIAePkS6bwcRXbliOHVdK2WffwGDhDVmEfjMcvRrhBYg1mk19tfWfOj7gEicDR0lfrCQ5vOWYuYpf7bQQmoaWjxC4cj9S1taj/fP1/3bglVleDkhRuyU56nVwZdmWCWcviyaDz4BOOIWZboIrPoOIhM1nD5OT3ld0NehWSkyQ8uoYKeCNyGDQNnmzGZpQHk/3O5BrP8f7JlpESACGyDAJllG5zphQicCwEyy7nqzWyJwDYIkFm2wZleiMC5ECCznKvezJYIbIMAmWUbnOmFCJwLATLLuerNbInANgiQWbbBmV6IwLkQILOcq97MlghsgwCZZRuc6YUInAsBMsu56s1sicA2CJBZtsGZXojAuRAgs5yr3syWCGyDAJllG5zphQicCwEyy7nqzWyJwDYIkFm2wZleiMC5ECCznKvezJYIbIMAmWUbnOmFCJwLATLLuerNbInANgiQWbbBmV6IwLkQILOcq97MlghsgwCZZRuc6YUInAsBMsu56s1sicA2CJBZtsGZXojAuRAgs5yr3syWCGyDwL+NJDhkGVVXHQAAAABJRU5ErkJggg==;" vertex="1" parent="Xh3adcpeIHSascqncOTH-1">
          <mxGeometry x="80" y="34" width="371" height="82" as="geometry" />
        </mxCell>
        <mxCell id="Xh3adcpeIHSascqncOTH-15" value="11 mod 5 = 1" style="text;html=1;align=center;verticalAlign=middle;whiteSpace=wrap;rounded=0;fontSize=18;" vertex="1" parent="Xh3adcpeIHSascqncOTH-1">
          <mxGeometry x="105" y="340" width="120" height="30" as="geometry" />
        </mxCell>
      </root>
    </mxGraphModel>
  </diagram>
  <diagram name="TabelaHash1.4" id="yY-HyIl6-cu2QkHVbZb1">
    <mxGraphModel dx="1434" dy="746" grid="1" gridSize="10" guides="1" tooltips="1" connect="1" arrows="1" fold="1" page="1" pageScale="1" pageWidth="827" pageHeight="1169" math="0" shadow="0">
      <root>
        <mxCell id="nYuFqMgBZ-saXqrDgAKb-0" />
        <mxCell id="nYuFqMgBZ-saXqrDgAKb-1" parent="nYuFqMgBZ-saXqrDgAKb-0" />
        <mxCell id="nYuFqMgBZ-saXqrDgAKb-2" value="" style="rounded=0;whiteSpace=wrap;html=1;fontSize=18;" vertex="1" parent="nYuFqMgBZ-saXqrDgAKb-1">
          <mxGeometry x="170" y="410" width="150" height="50" as="geometry" />
        </mxCell>
        <mxCell id="nYuFqMgBZ-saXqrDgAKb-3" value="11" style="rounded=0;whiteSpace=wrap;html=1;fontSize=18;" vertex="1" parent="nYuFqMgBZ-saXqrDgAKb-1">
          <mxGeometry x="170" y="460" width="150" height="50" as="geometry" />
        </mxCell>
        <mxCell id="nYuFqMgBZ-saXqrDgAKb-4" value="" style="rounded=0;whiteSpace=wrap;html=1;fontSize=18;" vertex="1" parent="nYuFqMgBZ-saXqrDgAKb-1">
          <mxGeometry x="170" y="510" width="150" height="50" as="geometry" />
        </mxCell>
        <mxCell id="aalnIR_4WBfFgW1O9F8c-1" style="edgeStyle=orthogonalEdgeStyle;rounded=0;orthogonalLoop=1;jettySize=auto;html=1;entryX=0;entryY=0.5;entryDx=0;entryDy=0;" edge="1" parent="nYuFqMgBZ-saXqrDgAKb-1" source="nYuFqMgBZ-saXqrDgAKb-5" target="aalnIR_4WBfFgW1O9F8c-0">
          <mxGeometry relative="1" as="geometry">
            <mxPoint x="370" y="585" as="targetPoint" />
          </mxGeometry>
        </mxCell>
        <mxCell id="nYuFqMgBZ-saXqrDgAKb-5" value="28" style="rounded=0;whiteSpace=wrap;html=1;fontSize=18;" vertex="1" parent="nYuFqMgBZ-saXqrDgAKb-1">
          <mxGeometry x="170" y="560" width="150" height="50" as="geometry" />
        </mxCell>
        <mxCell id="nYuFqMgBZ-saXqrDgAKb-6" value="34" style="rounded=0;whiteSpace=wrap;html=1;fontSize=18;" vertex="1" parent="nYuFqMgBZ-saXqrDgAKb-1">
          <mxGeometry x="170" y="610" width="150" height="50" as="geometry" />
        </mxCell>
        <mxCell id="nYuFqMgBZ-saXqrDgAKb-7" value="0" style="text;html=1;align=center;verticalAlign=middle;whiteSpace=wrap;rounded=0;fontSize=18;" vertex="1" parent="nYuFqMgBZ-saXqrDgAKb-1">
          <mxGeometry x="100" y="420" width="60" height="30" as="geometry" />
        </mxCell>
        <mxCell id="nYuFqMgBZ-saXqrDgAKb-8" value="1" style="text;html=1;align=center;verticalAlign=middle;whiteSpace=wrap;rounded=0;fontSize=18;" vertex="1" parent="nYuFqMgBZ-saXqrDgAKb-1">
          <mxGeometry x="100" y="470" width="60" height="30" as="geometry" />
        </mxCell>
        <mxCell id="nYuFqMgBZ-saXqrDgAKb-9" value="2" style="text;html=1;align=center;verticalAlign=middle;whiteSpace=wrap;rounded=0;fontSize=18;" vertex="1" parent="nYuFqMgBZ-saXqrDgAKb-1">
          <mxGeometry x="100" y="520" width="60" height="30" as="geometry" />
        </mxCell>
        <mxCell id="nYuFqMgBZ-saXqrDgAKb-10" value="3" style="text;html=1;align=center;verticalAlign=middle;whiteSpace=wrap;rounded=0;fontSize=18;" vertex="1" parent="nYuFqMgBZ-saXqrDgAKb-1">
          <mxGeometry x="100" y="570" width="60" height="30" as="geometry" />
        </mxCell>
        <mxCell id="nYuFqMgBZ-saXqrDgAKb-11" value="4" style="text;html=1;align=center;verticalAlign=middle;whiteSpace=wrap;rounded=0;fontSize=18;" vertex="1" parent="nYuFqMgBZ-saXqrDgAKb-1">
          <mxGeometry x="100" y="620" width="60" height="30" as="geometry" />
        </mxCell>
        <mxCell id="nYuFqMgBZ-saXqrDgAKb-12" value="CAPACIDADE: 5" style="text;html=1;align=center;verticalAlign=middle;whiteSpace=wrap;rounded=0;fontSize=18;" vertex="1" parent="nYuFqMgBZ-saXqrDgAKb-1">
          <mxGeometry x="80" y="260" width="160" height="30" as="geometry" />
        </mxCell>
        <mxCell id="nYuFqMgBZ-saXqrDgAKb-13" value="h(k): k mod m" style="text;html=1;align=center;verticalAlign=middle;whiteSpace=wrap;rounded=0;fontSize=18;" vertex="1" parent="nYuFqMgBZ-saXqrDgAKb-1">
          <mxGeometry x="80" y="300" width="170" height="30" as="geometry" />
        </mxCell>
        <mxCell id="nYuFqMgBZ-saXqrDgAKb-14" value="" style="shape=image;verticalLabelPosition=bottom;labelBackgroundColor=default;verticalAlign=top;aspect=fixed;imageAspect=0;image=data:image/png,iVBORw0KGgoAAAANSUhEUgAAAXMAAABSCAIAAAApX6PiAAAM00lEQVR4Ae1d7Y3jOAy9nlLNpBUjxQxSyQCpZIGpIwdSIvkoS4lv1+P12S9/Rpb5+Ug9yd4F/M+TPyJABIjA2gj8s7ZB2iMCRIAIPMksbAIiQATWR4DMsj6mtEgEiACZhT1ABIjA+giQWdbHlBaJABEgs7AHiAARWB8BMsv6mNIiESACZBb2ABEgAusjQGZZH1NaJAJEgMzCHiACRGB9BMgs62NKi0SACKzMLN+f18vt8RZWEfu4f7+V+12Bn7bfj+vX/Xq53n/1b/7Y7Pf94zJ9rWz+cbvYb8JyCrD1N870azKZpGshSsDXz5fF/5o67dGdNKP170xmScCQ7OUyqqAU1zIfBv/wzDvxlxADHLEGOIQuTDbp1csl7T2QeUyjBPuufn92TWapVdwBs/w+Hn+ieRRmkZVmvJ8aVFaFEYqMe8QBMknXgC1N8mrxlLVnAVS97qTZHMpAME8Z9wJ+Pqb+PFqXZW8xy7hH5cKYvq0Khr2F8LgNdd/Zt3gKxzX42M36ty9TyMsq2KisfbkSs1RGn6YBoE3Y2HOP2+X6eXeyj5pVmw21P7VF6u7hwt+fVzcyfT3D/q/79eN+LzvwvNKlX9UDnDVi9+g2h+bSk5GAvWzaZyXMaALdMb5s95N5t+OKz+dzrPsZOOlRIiStL2MGgy/rWcMJR4FSKo+E5MA+JcKqkuVjHrXTikqAqJSUY5qGZ5aCxnW64ZG2O4k+nxqknACyIrSBiPcDfmqHvDxBPUXGQBBD0rEzjSFzYajf94/AP25kXcF53qtVWiw0aYadsUw5l11vEyYyU1xzYjVmueuBPDXWOE7sUc0ZerduINjfMMYaQL3FINQ+7ItMrw+ehaGszGK2jGVlWt/gGJOBeJQFqnzEkxQBE10klWh0bDGDzBJdkbHmk7ERQTtfZRA0HGNOo3EkNUesewQIQ1GFOlfWVUowpGX0uOuKzYrdyazXV1wW8Nd0/YgHHdhg0IUUy7oCqx8yUMGYnI0e08c1nBk95XxL2H1sdQf9buWzm67M41NfPmA1s9bqVysxi8W1DN+0mSSVyLxbP1xF4lIgVnZvsI7LMGgh1r9tf1sY7Xyjhk7rLXGhfeC+2qd93y1TUuZRzbiKD6r1vm4kqNRWmaVhDYzn/YF/nqjMpCCfZffWo08cxHqKEsnsncXXpMVahvDMPqTc86hzHRkB4VXAouLgSNi22bROJGz99QXKQUbgKr/uoUODsW0g2EpiQHkR6zJLfXDrpBnRvpTxlgj5nxrtllmUNdoiSTHa328yS1rkiS/qqoh3DQ320T0RSmIWbda4p6PSjslpOlQboSzUhd6Sji/NCpMlZGclXxV+umly6l9qptHiGptdvlqEbg3z9dcZ2zHLfw94xqQllQEjeJ6VguMpUgFHskBRHwuGgqfEicIDZvF3NLNCu0WJf9AMKkNmCahsnetZFDs1RCovwC4X0A+hbE31qqucgCVXn+027oGYr/Dut+ogOR0yCyQCBpIuuFjCLOa+7qj9XRd8ybChlfL2x54ITGAGTseIynjHz+00KvNqFgFIea5RZ7JMS2HDwoE9sTBLKpvtP62katZnbWNhsJ+GxiBL7MvrRQuslXejb2WsRV3j5wb7PbNgzgZl2ysuYwJ1Ii6HULam+m1nu4o7GvW9CLivnpZaSOyQetHOLC//CSNOHJHgkqchjB5fDKV5vBBw/J+H7MYSxEYyknj7s3Vi9uMvZPdmMm7rKCuOgkGljgyyZxHNZvvMIjKYUa8HOnbKLpKFW1MahBJ9A2HLXO9lvEURg58Z75ZZcBFC+aUGvuXGfFOzuHwBJZqKcdjsvGWoNZDYvP96vsRI9Fn0DSYlhwI3IoRSjyqLdMMpMouOzS/YiQCA/sb9JA3aOzeJU3/+D8SyIfTVl0kIZ+V6BdnF/e5k3NZRI7Mk4JlMu1zFsHSR03qqPgSAxQXwQWJux965ICZoB5Vj3KQZN2DUl3mxHEB3leHPMks/vfJgab2bDguYufSl/WA30Fao874yG0dxiQbngIULZyt4SXnpLzAxo61Wg7BE4swiEtIf9vNmTU0zYJZFupFgAfPiRKY9XRwDaLibWTen9+iBDabmCdj/xEPw3U7o6ghkANUQwlUUszjC7Hy+O+l3y2AuA8E4NTRK8EYvNq1WJlUcgM1yUPSRDMDr3atGQjfPZw96NU9zLtSXeb0c5lb+YGZlZvmDSKhKBIjAcRAgsxynlsyECOwHATLLfmrBSIjAcRAgsxynlsyECOwHATLLfmrBSIjAcRAgsxynlsyECOwHATLLfmrBSIjAcRAgsxynlsyECOwHATLLfmrBSIjAcRAgsxynlsyECOwHATLLfmrBSIjAcRAgsxynlsyECOwHATLLfmrBSIjAcRAgsxynlsyECOwHATLLfmrBSIjAcRAgsxynlsyECOwHATLLfmrBSIjAcRAgsxynlsyECOwHATLLfmrBSIjAcRAgsxynlsyECOwHATLLfmrBSIjAcRAgsxynlsyECOwHATLLfmrBSIjAcRAgsxynlsyECOwHATLLfmrBSIjAcRBYjVngK3z+ScAhTPjlOvsOX/d7ekMLR7qRvhK5WWLxvdcfchkf/et+TbH/Eb8mFvyWa9ySryx2bYYIR38bgXWYRdaGfYR0SceITP48pXLNe0r623D9iP8jMovQSv2KaPeLn+UjpNYzA1gLNzVdUT8vS2YZgLaX6VWYRToAKv2YXnwfVxOfM0v5EHI2YqcZ5yBpx+nhH2O+PeBru9h/sVvaJ3LbbwnDN5Vrp4qzaPTHdJnu8oF0nPSagYrH5t9XFp3h+UsJtOQVMolZPDuAtMAlYvqbvuBTxBCAfHbefo6k6t7lC/b6q4CEpOEWMxFY+jp1OGrK7bDAQKyZZf2OvRWiyHzfP67T7QqAg64NH7fLdEM7lvVtyv1mCvy7JwRWYZacUHePyiLvmAV7F0ihbHSlxcu4ti/I6KfarY/FThmLx0QcZf2g4hNWuHJTrCWMXmml3oIxriUcg2qKAWTCL0zi9+dF0YimjOuJD6FeoKvUY8SBT0OiC/N1jODgGFJaMsQgVf7783r9/E5ozO18TZIjJiXcfX+IJLbHXJMzu0BgfWaJdTJOULoqr1tdMHWXa+9Ka+qt1KOp111FBsEgz2hN1PVF5YMaqp+2xr2bez3WfzPfyd2Nm7NbZT1DTDLys8azHIIUpZQUJqLHAVVZpotrMnJPSMrCvV20Ou18J6c3U0rQRu4mK+fBR8kOK2W39a8cau6/oHzp7rg6SYwXfxOBlZlFmjKOwcPEZKm0Pz88a2d37/YXlXhxZrFVYa5FpViOdeKPQr0wytY97N20yMWJ84XYLz9kB4vjCQ9ukVs5T1nMdR3G7UtZ4ZqdL8LISPI2Mlqm22eWNlkHMx6v3Hvk8x9GlqDidavsOUMyDJZDjVz3+boNODQ52g0CazLLQlpBIhAcZKnY2z7FBRsxAfVHzOLr07nAZ5KTEsLoSX62HsJasaIg9F61pOCTR8t3uGCS0zGzdBkt6f5XZilhaoGE7/IxM+Xw+sIJojzjqHAODPR/3a9OZK4I9/k0lMDY68VazKI7tjfEu2ylq7BNpYHiQeBVz/nrgNiuxZkbbHWxNcva/pzicQnvppiHi7zdRft8EecjsDq0aczS1bLsHNs+syzT7TNLq2vxQOzD40OWsatRFYx28VgWZ9WiLbrtz94BVftDJM0///59BNZhFukYb/0FSTkRuKz2nDeQtI69hYWTRVrGsh58lwaDqIvj+uyQ914xEhwXRPOid1EFxqFbTmGei6eoicSjYriIlSxGXFGMd14/95mlPDi80+0zS9aNGCIAePkS6bwcRXbliOHVdK2WffwGDhDVmEfjMcvRrhBYg1mk19tfWfOj7gEicDR0lfrCQ5vOWYuYpf7bQQmoaWjxC4cj9S1taj/fP1/3bglVleDkhRuyU56nVwZdmWCWcviyaDz4BOOIWZboIrPoOIhM1nD5OT3ld0NehWSkyQ8uoYKeCNyGDQNnmzGZpQHk/3O5BrP8f7JlpESACGyDAJllG5zphQicCwEyy7nqzWyJwDYIkFm2wZleiMC5ECCznKvezJYIbIMAmWUbnOmFCJwLATLLuerNbInANgiQWbbBmV6IwLkQILOcq97MlghsgwCZZRuc6YUInAsBMsu56s1sicA2CJBZtsGZXojAuRAgs5yr3syWCGyDAJllG5zphQicCwEyy7nqzWyJwDYIkFm2wZleiMC5ECCznKvezJYIbIMAmWUbnOmFCJwLATLLuerNbInANgiQWbbBmV6IwLkQILOcq97MlghsgwCZZRuc6YUInAsBMsu56s1sicA2CJBZtsGZXojAuRAgs5yr3syWCGyDwL+NJDhkGVVXHQAAAABJRU5ErkJggg==;" vertex="1" parent="nYuFqMgBZ-saXqrDgAKb-1">
          <mxGeometry x="80" y="34" width="371" height="82" as="geometry" />
        </mxCell>
        <mxCell id="nYuFqMgBZ-saXqrDgAKb-15" value="18 mod 5 = 3" style="text;html=1;align=center;verticalAlign=middle;whiteSpace=wrap;rounded=0;fontSize=18;" vertex="1" parent="nYuFqMgBZ-saXqrDgAKb-1">
          <mxGeometry x="105" y="340" width="120" height="30" as="geometry" />
        </mxCell>
        <mxCell id="aalnIR_4WBfFgW1O9F8c-0" value="18" style="rounded=0;whiteSpace=wrap;html=1;fontSize=18;" vertex="1" parent="nYuFqMgBZ-saXqrDgAKb-1">
          <mxGeometry x="360" y="560" width="80" height="50" as="geometry" />
        </mxCell>
      </root>
    </mxGraphModel>
  </diagram>
  <diagram name="TabelaHash1.5" id="1s-6p_NJYlInFPWOCCQ2">
    <mxGraphModel dx="1434" dy="746" grid="1" gridSize="10" guides="1" tooltips="1" connect="1" arrows="1" fold="1" page="1" pageScale="1" pageWidth="827" pageHeight="1169" math="0" shadow="0">
      <root>
        <mxCell id="C8uWq60G4xzynA7yCvNI-0" />
        <mxCell id="C8uWq60G4xzynA7yCvNI-1" parent="C8uWq60G4xzynA7yCvNI-0" />
        <mxCell id="C8uWq60G4xzynA7yCvNI-2" value="5" style="rounded=0;whiteSpace=wrap;html=1;fontSize=18;" vertex="1" parent="C8uWq60G4xzynA7yCvNI-1">
          <mxGeometry x="170" y="410" width="150" height="50" as="geometry" />
        </mxCell>
        <mxCell id="C8uWq60G4xzynA7yCvNI-3" value="11" style="rounded=0;whiteSpace=wrap;html=1;fontSize=18;" vertex="1" parent="C8uWq60G4xzynA7yCvNI-1">
          <mxGeometry x="170" y="460" width="150" height="50" as="geometry" />
        </mxCell>
        <mxCell id="C8uWq60G4xzynA7yCvNI-4" value="" style="rounded=0;whiteSpace=wrap;html=1;fontSize=18;" vertex="1" parent="C8uWq60G4xzynA7yCvNI-1">
          <mxGeometry x="170" y="510" width="150" height="50" as="geometry" />
        </mxCell>
        <mxCell id="C8uWq60G4xzynA7yCvNI-5" style="edgeStyle=orthogonalEdgeStyle;rounded=0;orthogonalLoop=1;jettySize=auto;html=1;entryX=0;entryY=0.5;entryDx=0;entryDy=0;" edge="1" parent="C8uWq60G4xzynA7yCvNI-1" source="C8uWq60G4xzynA7yCvNI-6" target="C8uWq60G4xzynA7yCvNI-17">
          <mxGeometry relative="1" as="geometry">
            <mxPoint x="370" y="585" as="targetPoint" />
          </mxGeometry>
        </mxCell>
        <mxCell id="C8uWq60G4xzynA7yCvNI-6" value="28" style="rounded=0;whiteSpace=wrap;html=1;fontSize=18;" vertex="1" parent="C8uWq60G4xzynA7yCvNI-1">
          <mxGeometry x="170" y="560" width="150" height="50" as="geometry" />
        </mxCell>
        <mxCell id="C8uWq60G4xzynA7yCvNI-7" value="34" style="rounded=0;whiteSpace=wrap;html=1;fontSize=18;" vertex="1" parent="C8uWq60G4xzynA7yCvNI-1">
          <mxGeometry x="170" y="610" width="150" height="50" as="geometry" />
        </mxCell>
        <mxCell id="C8uWq60G4xzynA7yCvNI-8" value="0" style="text;html=1;align=center;verticalAlign=middle;whiteSpace=wrap;rounded=0;fontSize=18;" vertex="1" parent="C8uWq60G4xzynA7yCvNI-1">
          <mxGeometry x="100" y="420" width="60" height="30" as="geometry" />
        </mxCell>
        <mxCell id="C8uWq60G4xzynA7yCvNI-9" value="1" style="text;html=1;align=center;verticalAlign=middle;whiteSpace=wrap;rounded=0;fontSize=18;" vertex="1" parent="C8uWq60G4xzynA7yCvNI-1">
          <mxGeometry x="100" y="470" width="60" height="30" as="geometry" />
        </mxCell>
        <mxCell id="C8uWq60G4xzynA7yCvNI-10" value="2" style="text;html=1;align=center;verticalAlign=middle;whiteSpace=wrap;rounded=0;fontSize=18;" vertex="1" parent="C8uWq60G4xzynA7yCvNI-1">
          <mxGeometry x="100" y="520" width="60" height="30" as="geometry" />
        </mxCell>
        <mxCell id="C8uWq60G4xzynA7yCvNI-11" value="3" style="text;html=1;align=center;verticalAlign=middle;whiteSpace=wrap;rounded=0;fontSize=18;" vertex="1" parent="C8uWq60G4xzynA7yCvNI-1">
          <mxGeometry x="100" y="570" width="60" height="30" as="geometry" />
        </mxCell>
        <mxCell id="C8uWq60G4xzynA7yCvNI-12" value="4" style="text;html=1;align=center;verticalAlign=middle;whiteSpace=wrap;rounded=0;fontSize=18;" vertex="1" parent="C8uWq60G4xzynA7yCvNI-1">
          <mxGeometry x="100" y="620" width="60" height="30" as="geometry" />
        </mxCell>
        <mxCell id="C8uWq60G4xzynA7yCvNI-13" value="CAPACIDADE: 5" style="text;html=1;align=center;verticalAlign=middle;whiteSpace=wrap;rounded=0;fontSize=18;" vertex="1" parent="C8uWq60G4xzynA7yCvNI-1">
          <mxGeometry x="80" y="260" width="160" height="30" as="geometry" />
        </mxCell>
        <mxCell id="C8uWq60G4xzynA7yCvNI-14" value="h(k): k mod m" style="text;html=1;align=center;verticalAlign=middle;whiteSpace=wrap;rounded=0;fontSize=18;" vertex="1" parent="C8uWq60G4xzynA7yCvNI-1">
          <mxGeometry x="80" y="300" width="170" height="30" as="geometry" />
        </mxCell>
        <mxCell id="C8uWq60G4xzynA7yCvNI-15" value="" style="shape=image;verticalLabelPosition=bottom;labelBackgroundColor=default;verticalAlign=top;aspect=fixed;imageAspect=0;image=data:image/png,iVBORw0KGgoAAAANSUhEUgAAAXMAAABSCAIAAAApX6PiAAAM00lEQVR4Ae1d7Y3jOAy9nlLNpBUjxQxSyQCpZIGpIwdSIvkoS4lv1+P12S9/Rpb5+Ug9yd4F/M+TPyJABIjA2gj8s7ZB2iMCRIAIPMksbAIiQATWR4DMsj6mtEgEiACZhT1ABIjA+giQWdbHlBaJABEgs7AHiAARWB8BMsv6mNIiESACZBb2ABEgAusjQGZZH1NaJAJEgMzCHiACRGB9BMgs62NKi0SACKzMLN+f18vt8RZWEfu4f7+V+12Bn7bfj+vX/Xq53n/1b/7Y7Pf94zJ9rWz+cbvYb8JyCrD1N870azKZpGshSsDXz5fF/5o67dGdNKP170xmScCQ7OUyqqAU1zIfBv/wzDvxlxADHLEGOIQuTDbp1csl7T2QeUyjBPuufn92TWapVdwBs/w+Hn+ieRRmkZVmvJ8aVFaFEYqMe8QBMknXgC1N8mrxlLVnAVS97qTZHMpAME8Z9wJ+Pqb+PFqXZW8xy7hH5cKYvq0Khr2F8LgNdd/Zt3gKxzX42M36ty9TyMsq2KisfbkSs1RGn6YBoE3Y2HOP2+X6eXeyj5pVmw21P7VF6u7hwt+fVzcyfT3D/q/79eN+LzvwvNKlX9UDnDVi9+g2h+bSk5GAvWzaZyXMaALdMb5s95N5t+OKz+dzrPsZOOlRIiStL2MGgy/rWcMJR4FSKo+E5MA+JcKqkuVjHrXTikqAqJSUY5qGZ5aCxnW64ZG2O4k+nxqknACyIrSBiPcDfmqHvDxBPUXGQBBD0rEzjSFzYajf94/AP25kXcF53qtVWiw0aYadsUw5l11vEyYyU1xzYjVmueuBPDXWOE7sUc0ZerduINjfMMYaQL3FINQ+7ItMrw+ehaGszGK2jGVlWt/gGJOBeJQFqnzEkxQBE10klWh0bDGDzBJdkbHmk7ERQTtfZRA0HGNOo3EkNUesewQIQ1GFOlfWVUowpGX0uOuKzYrdyazXV1wW8Nd0/YgHHdhg0IUUy7oCqx8yUMGYnI0e08c1nBk95XxL2H1sdQf9buWzm67M41NfPmA1s9bqVysxi8W1DN+0mSSVyLxbP1xF4lIgVnZvsI7LMGgh1r9tf1sY7Xyjhk7rLXGhfeC+2qd93y1TUuZRzbiKD6r1vm4kqNRWmaVhDYzn/YF/nqjMpCCfZffWo08cxHqKEsnsncXXpMVahvDMPqTc86hzHRkB4VXAouLgSNi22bROJGz99QXKQUbgKr/uoUODsW0g2EpiQHkR6zJLfXDrpBnRvpTxlgj5nxrtllmUNdoiSTHa328yS1rkiS/qqoh3DQ320T0RSmIWbda4p6PSjslpOlQboSzUhd6Sji/NCpMlZGclXxV+umly6l9qptHiGptdvlqEbg3z9dcZ2zHLfw94xqQllQEjeJ6VguMpUgFHskBRHwuGgqfEicIDZvF3NLNCu0WJf9AMKkNmCahsnetZFDs1RCovwC4X0A+hbE31qqucgCVXn+027oGYr/Dut+ogOR0yCyQCBpIuuFjCLOa+7qj9XRd8ybChlfL2x54ITGAGTseIynjHz+00KvNqFgFIea5RZ7JMS2HDwoE9sTBLKpvtP62katZnbWNhsJ+GxiBL7MvrRQuslXejb2WsRV3j5wb7PbNgzgZl2ysuYwJ1Ii6HULam+m1nu4o7GvW9CLivnpZaSOyQetHOLC//CSNOHJHgkqchjB5fDKV5vBBw/J+H7MYSxEYyknj7s3Vi9uMvZPdmMm7rKCuOgkGljgyyZxHNZvvMIjKYUa8HOnbKLpKFW1MahBJ9A2HLXO9lvEURg58Z75ZZcBFC+aUGvuXGfFOzuHwBJZqKcdjsvGWoNZDYvP96vsRI9Fn0DSYlhwI3IoRSjyqLdMMpMouOzS/YiQCA/sb9JA3aOzeJU3/+D8SyIfTVl0kIZ+V6BdnF/e5k3NZRI7Mk4JlMu1zFsHSR03qqPgSAxQXwQWJux965ICZoB5Vj3KQZN2DUl3mxHEB3leHPMks/vfJgab2bDguYufSl/WA30Fao874yG0dxiQbngIULZyt4SXnpLzAxo61Wg7BE4swiEtIf9vNmTU0zYJZFupFgAfPiRKY9XRwDaLibWTen9+iBDabmCdj/xEPw3U7o6ghkANUQwlUUszjC7Hy+O+l3y2AuA8E4NTRK8EYvNq1WJlUcgM1yUPSRDMDr3atGQjfPZw96NU9zLtSXeb0c5lb+YGZlZvmDSKhKBIjAcRAgsxynlsyECOwHATLLfmrBSIjAcRAgsxynlsyECOwHATLLfmrBSIjAcRAgsxynlsyECOwHATLLfmrBSIjAcRAgsxynlsyECOwHATLLfmrBSIjAcRAgsxynlsyECOwHATLLfmrBSIjAcRAgsxynlsyECOwHATLLfmrBSIjAcRAgsxynlsyECOwHATLLfmrBSIjAcRAgsxynlsyECOwHATLLfmrBSIjAcRAgsxynlsyECOwHATLLfmrBSIjAcRAgsxynlsyECOwHATLLfmrBSIjAcRAgsxynlsyECOwHATLLfmrBSIjAcRAgsxynlsyECOwHATLLfmrBSIjAcRBYjVngK3z+ScAhTPjlOvsOX/d7ekMLR7qRvhK5WWLxvdcfchkf/et+TbH/Eb8mFvyWa9ySryx2bYYIR38bgXWYRdaGfYR0SceITP48pXLNe0r623D9iP8jMovQSv2KaPeLn+UjpNYzA1gLNzVdUT8vS2YZgLaX6VWYRToAKv2YXnwfVxOfM0v5EHI2YqcZ5yBpx+nhH2O+PeBru9h/sVvaJ3LbbwnDN5Vrp4qzaPTHdJnu8oF0nPSagYrH5t9XFp3h+UsJtOQVMolZPDuAtMAlYvqbvuBTxBCAfHbefo6k6t7lC/b6q4CEpOEWMxFY+jp1OGrK7bDAQKyZZf2OvRWiyHzfP67T7QqAg64NH7fLdEM7lvVtyv1mCvy7JwRWYZacUHePyiLvmAV7F0ihbHSlxcu4ti/I6KfarY/FThmLx0QcZf2g4hNWuHJTrCWMXmml3oIxriUcg2qKAWTCL0zi9+dF0YimjOuJD6FeoKvUY8SBT0OiC/N1jODgGFJaMsQgVf7783r9/E5ozO18TZIjJiXcfX+IJLbHXJMzu0BgfWaJdTJOULoqr1tdMHWXa+9Ka+qt1KOp111FBsEgz2hN1PVF5YMaqp+2xr2bez3WfzPfyd2Nm7NbZT1DTDLys8azHIIUpZQUJqLHAVVZpotrMnJPSMrCvV20Ou18J6c3U0rQRu4mK+fBR8kOK2W39a8cau6/oHzp7rg6SYwXfxOBlZlFmjKOwcPEZKm0Pz88a2d37/YXlXhxZrFVYa5FpViOdeKPQr0wytY97N20yMWJ84XYLz9kB4vjCQ9ukVs5T1nMdR3G7UtZ4ZqdL8LISPI2Mlqm22eWNlkHMx6v3Hvk8x9GlqDidavsOUMyDJZDjVz3+boNODQ52g0CazLLQlpBIhAcZKnY2z7FBRsxAfVHzOLr07nAZ5KTEsLoSX62HsJasaIg9F61pOCTR8t3uGCS0zGzdBkt6f5XZilhaoGE7/IxM+Xw+sIJojzjqHAODPR/3a9OZK4I9/k0lMDY68VazKI7tjfEu2ylq7BNpYHiQeBVz/nrgNiuxZkbbHWxNcva/pzicQnvppiHi7zdRft8EecjsDq0aczS1bLsHNs+syzT7TNLq2vxQOzD40OWsatRFYx28VgWZ9WiLbrtz94BVftDJM0///59BNZhFukYb/0FSTkRuKz2nDeQtI69hYWTRVrGsh58lwaDqIvj+uyQ914xEhwXRPOid1EFxqFbTmGei6eoicSjYriIlSxGXFGMd14/95mlPDi80+0zS9aNGCIAePkS6bwcRXbliOHVdK2WffwGDhDVmEfjMcvRrhBYg1mk19tfWfOj7gEicDR0lfrCQ5vOWYuYpf7bQQmoaWjxC4cj9S1taj/fP1/3bglVleDkhRuyU56nVwZdmWCWcviyaDz4BOOIWZboIrPoOIhM1nD5OT3ld0NehWSkyQ8uoYKeCNyGDQNnmzGZpQHk/3O5BrP8f7JlpESACGyDAJllG5zphQicCwEyy7nqzWyJwDYIkFm2wZleiMC5ECCznKvezJYIbIMAmWUbnOmFCJwLATLLuerNbInANgiQWbbBmV6IwLkQILOcq97MlghsgwCZZRuc6YUInAsBMsu56s1sicA2CJBZtsGZXojAuRAgs5yr3syWCGyDAJllG5zphQicCwEyy7nqzWyJwDYIkFm2wZleiMC5ECCznKvezJYIbIMAmWUbnOmFCJwLATLLuerNbInANgiQWbbBmV6IwLkQILOcq97MlghsgwCZZRuc6YUInAsBMsu56s1sicA2CJBZtsGZXojAuRAgs5yr3syWCGyDwL+NJDhkGVVXHQAAAABJRU5ErkJggg==;" vertex="1" parent="C8uWq60G4xzynA7yCvNI-1">
          <mxGeometry x="80" y="34" width="371" height="82" as="geometry" />
        </mxCell>
        <mxCell id="C8uWq60G4xzynA7yCvNI-16" value="5 mod 5 = 0" style="text;html=1;align=center;verticalAlign=middle;whiteSpace=wrap;rounded=0;fontSize=18;" vertex="1" parent="C8uWq60G4xzynA7yCvNI-1">
          <mxGeometry x="105" y="340" width="120" height="30" as="geometry" />
        </mxCell>
        <mxCell id="C8uWq60G4xzynA7yCvNI-17" value="18" style="rounded=0;whiteSpace=wrap;html=1;fontSize=18;" vertex="1" parent="C8uWq60G4xzynA7yCvNI-1">
          <mxGeometry x="360" y="560" width="80" height="50" as="geometry" />
        </mxCell>
      </root>
    </mxGraphModel>
  </diagram>
  <diagram name="TabelaHash1.6" id="puvzF4MT5dP40CdboI4_">
    <mxGraphModel dx="1434" dy="746" grid="1" gridSize="10" guides="1" tooltips="1" connect="1" arrows="1" fold="1" page="1" pageScale="1" pageWidth="827" pageHeight="1169" math="0" shadow="0">
      <root>
        <mxCell id="1aRGqkABkOmQv85ShNvO-0" />
        <mxCell id="1aRGqkABkOmQv85ShNvO-1" parent="1aRGqkABkOmQv85ShNvO-0" />
        <mxCell id="1aRGqkABkOmQv85ShNvO-2" value="5" style="rounded=0;whiteSpace=wrap;html=1;fontSize=18;" vertex="1" parent="1aRGqkABkOmQv85ShNvO-1">
          <mxGeometry x="170" y="410" width="150" height="50" as="geometry" />
        </mxCell>
        <mxCell id="1aRGqkABkOmQv85ShNvO-3" value="11" style="rounded=0;whiteSpace=wrap;html=1;fontSize=18;" vertex="1" parent="1aRGqkABkOmQv85ShNvO-1">
          <mxGeometry x="170" y="460" width="150" height="50" as="geometry" />
        </mxCell>
        <mxCell id="1aRGqkABkOmQv85ShNvO-4" value="" style="rounded=0;whiteSpace=wrap;html=1;fontSize=18;" vertex="1" parent="1aRGqkABkOmQv85ShNvO-1">
          <mxGeometry x="170" y="510" width="150" height="50" as="geometry" />
        </mxCell>
        <mxCell id="1aRGqkABkOmQv85ShNvO-5" style="edgeStyle=orthogonalEdgeStyle;rounded=0;orthogonalLoop=1;jettySize=auto;html=1;entryX=0;entryY=0.5;entryDx=0;entryDy=0;" edge="1" parent="1aRGqkABkOmQv85ShNvO-1" source="1aRGqkABkOmQv85ShNvO-6" target="1aRGqkABkOmQv85ShNvO-17">
          <mxGeometry relative="1" as="geometry">
            <mxPoint x="370" y="585" as="targetPoint" />
          </mxGeometry>
        </mxCell>
        <mxCell id="1aRGqkABkOmQv85ShNvO-6" value="28" style="rounded=0;whiteSpace=wrap;html=1;fontSize=18;" vertex="1" parent="1aRGqkABkOmQv85ShNvO-1">
          <mxGeometry x="170" y="560" width="150" height="50" as="geometry" />
        </mxCell>
        <mxCell id="1aRGqkABkOmQv85ShNvO-7" value="34" style="rounded=0;whiteSpace=wrap;html=1;fontSize=18;" vertex="1" parent="1aRGqkABkOmQv85ShNvO-1">
          <mxGeometry x="170" y="610" width="150" height="50" as="geometry" />
        </mxCell>
        <mxCell id="1aRGqkABkOmQv85ShNvO-8" value="0" style="text;html=1;align=center;verticalAlign=middle;whiteSpace=wrap;rounded=0;fontSize=18;" vertex="1" parent="1aRGqkABkOmQv85ShNvO-1">
          <mxGeometry x="100" y="420" width="60" height="30" as="geometry" />
        </mxCell>
        <mxCell id="1aRGqkABkOmQv85ShNvO-9" value="1" style="text;html=1;align=center;verticalAlign=middle;whiteSpace=wrap;rounded=0;fontSize=18;" vertex="1" parent="1aRGqkABkOmQv85ShNvO-1">
          <mxGeometry x="100" y="470" width="60" height="30" as="geometry" />
        </mxCell>
        <mxCell id="1aRGqkABkOmQv85ShNvO-10" value="2" style="text;html=1;align=center;verticalAlign=middle;whiteSpace=wrap;rounded=0;fontSize=18;" vertex="1" parent="1aRGqkABkOmQv85ShNvO-1">
          <mxGeometry x="100" y="520" width="60" height="30" as="geometry" />
        </mxCell>
        <mxCell id="1aRGqkABkOmQv85ShNvO-11" value="3" style="text;html=1;align=center;verticalAlign=middle;whiteSpace=wrap;rounded=0;fontSize=18;" vertex="1" parent="1aRGqkABkOmQv85ShNvO-1">
          <mxGeometry x="100" y="570" width="60" height="30" as="geometry" />
        </mxCell>
        <mxCell id="1aRGqkABkOmQv85ShNvO-12" value="4" style="text;html=1;align=center;verticalAlign=middle;whiteSpace=wrap;rounded=0;fontSize=18;" vertex="1" parent="1aRGqkABkOmQv85ShNvO-1">
          <mxGeometry x="100" y="620" width="60" height="30" as="geometry" />
        </mxCell>
        <mxCell id="1aRGqkABkOmQv85ShNvO-13" value="CAPACIDADE: 5" style="text;html=1;align=center;verticalAlign=middle;whiteSpace=wrap;rounded=0;fontSize=18;" vertex="1" parent="1aRGqkABkOmQv85ShNvO-1">
          <mxGeometry x="80" y="260" width="160" height="30" as="geometry" />
        </mxCell>
        <mxCell id="1aRGqkABkOmQv85ShNvO-14" value="h(k): k mod m" style="text;html=1;align=center;verticalAlign=middle;whiteSpace=wrap;rounded=0;fontSize=18;" vertex="1" parent="1aRGqkABkOmQv85ShNvO-1">
          <mxGeometry x="80" y="300" width="170" height="30" as="geometry" />
        </mxCell>
        <mxCell id="1aRGqkABkOmQv85ShNvO-15" value="" style="shape=image;verticalLabelPosition=bottom;labelBackgroundColor=default;verticalAlign=top;aspect=fixed;imageAspect=0;image=data:image/png,iVBORw0KGgoAAAANSUhEUgAAAXMAAABSCAIAAAApX6PiAAAM00lEQVR4Ae1d7Y3jOAy9nlLNpBUjxQxSyQCpZIGpIwdSIvkoS4lv1+P12S9/Rpb5+Ug9yd4F/M+TPyJABIjA2gj8s7ZB2iMCRIAIPMksbAIiQATWR4DMsj6mtEgEiACZhT1ABIjA+giQWdbHlBaJABEgs7AHiAARWB8BMsv6mNIiESACZBb2ABEgAusjQGZZH1NaJAJEgMzCHiACRGB9BMgs62NKi0SACKzMLN+f18vt8RZWEfu4f7+V+12Bn7bfj+vX/Xq53n/1b/7Y7Pf94zJ9rWz+cbvYb8JyCrD1N870azKZpGshSsDXz5fF/5o67dGdNKP170xmScCQ7OUyqqAU1zIfBv/wzDvxlxADHLEGOIQuTDbp1csl7T2QeUyjBPuufn92TWapVdwBs/w+Hn+ieRRmkZVmvJ8aVFaFEYqMe8QBMknXgC1N8mrxlLVnAVS97qTZHMpAME8Z9wJ+Pqb+PFqXZW8xy7hH5cKYvq0Khr2F8LgNdd/Zt3gKxzX42M36ty9TyMsq2KisfbkSs1RGn6YBoE3Y2HOP2+X6eXeyj5pVmw21P7VF6u7hwt+fVzcyfT3D/q/79eN+LzvwvNKlX9UDnDVi9+g2h+bSk5GAvWzaZyXMaALdMb5s95N5t+OKz+dzrPsZOOlRIiStL2MGgy/rWcMJR4FSKo+E5MA+JcKqkuVjHrXTikqAqJSUY5qGZ5aCxnW64ZG2O4k+nxqknACyIrSBiPcDfmqHvDxBPUXGQBBD0rEzjSFzYajf94/AP25kXcF53qtVWiw0aYadsUw5l11vEyYyU1xzYjVmueuBPDXWOE7sUc0ZerduINjfMMYaQL3FINQ+7ItMrw+ehaGszGK2jGVlWt/gGJOBeJQFqnzEkxQBE10klWh0bDGDzBJdkbHmk7ERQTtfZRA0HGNOo3EkNUesewQIQ1GFOlfWVUowpGX0uOuKzYrdyazXV1wW8Nd0/YgHHdhg0IUUy7oCqx8yUMGYnI0e08c1nBk95XxL2H1sdQf9buWzm67M41NfPmA1s9bqVysxi8W1DN+0mSSVyLxbP1xF4lIgVnZvsI7LMGgh1r9tf1sY7Xyjhk7rLXGhfeC+2qd93y1TUuZRzbiKD6r1vm4kqNRWmaVhDYzn/YF/nqjMpCCfZffWo08cxHqKEsnsncXXpMVahvDMPqTc86hzHRkB4VXAouLgSNi22bROJGz99QXKQUbgKr/uoUODsW0g2EpiQHkR6zJLfXDrpBnRvpTxlgj5nxrtllmUNdoiSTHa328yS1rkiS/qqoh3DQ320T0RSmIWbda4p6PSjslpOlQboSzUhd6Sji/NCpMlZGclXxV+umly6l9qptHiGptdvlqEbg3z9dcZ2zHLfw94xqQllQEjeJ6VguMpUgFHskBRHwuGgqfEicIDZvF3NLNCu0WJf9AMKkNmCahsnetZFDs1RCovwC4X0A+hbE31qqucgCVXn+027oGYr/Dut+ogOR0yCyQCBpIuuFjCLOa+7qj9XRd8ybChlfL2x54ITGAGTseIynjHz+00KvNqFgFIea5RZ7JMS2HDwoE9sTBLKpvtP62katZnbWNhsJ+GxiBL7MvrRQuslXejb2WsRV3j5wb7PbNgzgZl2ysuYwJ1Ii6HULam+m1nu4o7GvW9CLivnpZaSOyQetHOLC//CSNOHJHgkqchjB5fDKV5vBBw/J+H7MYSxEYyknj7s3Vi9uMvZPdmMm7rKCuOgkGljgyyZxHNZvvMIjKYUa8HOnbKLpKFW1MahBJ9A2HLXO9lvEURg58Z75ZZcBFC+aUGvuXGfFOzuHwBJZqKcdjsvGWoNZDYvP96vsRI9Fn0DSYlhwI3IoRSjyqLdMMpMouOzS/YiQCA/sb9JA3aOzeJU3/+D8SyIfTVl0kIZ+V6BdnF/e5k3NZRI7Mk4JlMu1zFsHSR03qqPgSAxQXwQWJux965ICZoB5Vj3KQZN2DUl3mxHEB3leHPMks/vfJgab2bDguYufSl/WA30Fao874yG0dxiQbngIULZyt4SXnpLzAxo61Wg7BE4swiEtIf9vNmTU0zYJZFupFgAfPiRKY9XRwDaLibWTen9+iBDabmCdj/xEPw3U7o6ghkANUQwlUUszjC7Hy+O+l3y2AuA8E4NTRK8EYvNq1WJlUcgM1yUPSRDMDr3atGQjfPZw96NU9zLtSXeb0c5lb+YGZlZvmDSKhKBIjAcRAgsxynlsyECOwHATLLfmrBSIjAcRAgsxynlsyECOwHATLLfmrBSIjAcRAgsxynlsyECOwHATLLfmrBSIjAcRAgsxynlsyECOwHATLLfmrBSIjAcRAgsxynlsyECOwHATLLfmrBSIjAcRAgsxynlsyECOwHATLLfmrBSIjAcRAgsxynlsyECOwHATLLfmrBSIjAcRAgsxynlsyECOwHATLLfmrBSIjAcRAgsxynlsyECOwHATLLfmrBSIjAcRAgsxynlsyECOwHATLLfmrBSIjAcRAgsxynlsyECOwHATLLfmrBSIjAcRAgsxynlsyECOwHATLLfmrBSIjAcRBYjVngK3z+ScAhTPjlOvsOX/d7ekMLR7qRvhK5WWLxvdcfchkf/et+TbH/Eb8mFvyWa9ySryx2bYYIR38bgXWYRdaGfYR0SceITP48pXLNe0r623D9iP8jMovQSv2KaPeLn+UjpNYzA1gLNzVdUT8vS2YZgLaX6VWYRToAKv2YXnwfVxOfM0v5EHI2YqcZ5yBpx+nhH2O+PeBru9h/sVvaJ3LbbwnDN5Vrp4qzaPTHdJnu8oF0nPSagYrH5t9XFp3h+UsJtOQVMolZPDuAtMAlYvqbvuBTxBCAfHbefo6k6t7lC/b6q4CEpOEWMxFY+jp1OGrK7bDAQKyZZf2OvRWiyHzfP67T7QqAg64NH7fLdEM7lvVtyv1mCvy7JwRWYZacUHePyiLvmAV7F0ihbHSlxcu4ti/I6KfarY/FThmLx0QcZf2g4hNWuHJTrCWMXmml3oIxriUcg2qKAWTCL0zi9+dF0YimjOuJD6FeoKvUY8SBT0OiC/N1jODgGFJaMsQgVf7783r9/E5ozO18TZIjJiXcfX+IJLbHXJMzu0BgfWaJdTJOULoqr1tdMHWXa+9Ka+qt1KOp111FBsEgz2hN1PVF5YMaqp+2xr2bez3WfzPfyd2Nm7NbZT1DTDLys8azHIIUpZQUJqLHAVVZpotrMnJPSMrCvV20Ou18J6c3U0rQRu4mK+fBR8kOK2W39a8cau6/oHzp7rg6SYwXfxOBlZlFmjKOwcPEZKm0Pz88a2d37/YXlXhxZrFVYa5FpViOdeKPQr0wytY97N20yMWJ84XYLz9kB4vjCQ9ukVs5T1nMdR3G7UtZ4ZqdL8LISPI2Mlqm22eWNlkHMx6v3Hvk8x9GlqDidavsOUMyDJZDjVz3+boNODQ52g0CazLLQlpBIhAcZKnY2z7FBRsxAfVHzOLr07nAZ5KTEsLoSX62HsJasaIg9F61pOCTR8t3uGCS0zGzdBkt6f5XZilhaoGE7/IxM+Xw+sIJojzjqHAODPR/3a9OZK4I9/k0lMDY68VazKI7tjfEu2ylq7BNpYHiQeBVz/nrgNiuxZkbbHWxNcva/pzicQnvppiHi7zdRft8EecjsDq0aczS1bLsHNs+syzT7TNLq2vxQOzD40OWsatRFYx28VgWZ9WiLbrtz94BVftDJM0///59BNZhFukYb/0FSTkRuKz2nDeQtI69hYWTRVrGsh58lwaDqIvj+uyQ914xEhwXRPOid1EFxqFbTmGei6eoicSjYriIlSxGXFGMd14/95mlPDi80+0zS9aNGCIAePkS6bwcRXbliOHVdK2WffwGDhDVmEfjMcvRrhBYg1mk19tfWfOj7gEicDR0lfrCQ5vOWYuYpf7bQQmoaWjxC4cj9S1taj/fP1/3bglVleDkhRuyU56nVwZdmWCWcviyaDz4BOOIWZboIrPoOIhM1nD5OT3ld0NehWSkyQ8uoYKeCNyGDQNnmzGZpQHk/3O5BrP8f7JlpESACGyDAJllG5zphQicCwEyy7nqzWyJwDYIkFm2wZleiMC5ECCznKvezJYIbIMAmWUbnOmFCJwLATLLuerNbInANgiQWbbBmV6IwLkQILOcq97MlghsgwCZZRuc6YUInAsBMsu56s1sicA2CJBZtsGZXojAuRAgs5yr3syWCGyDAJllG5zphQicCwEyy7nqzWyJwDYIkFm2wZleiMC5ECCznKvezJYIbIMAmWUbnOmFCJwLATLLuerNbInANgiQWbbBmV6IwLkQILOcq97MlghsgwCZZRuc6YUInAsBMsu56s1sicA2CJBZtsGZXojAuRAgs5yr3syWCGyDwL+NJDhkGVVXHQAAAABJRU5ErkJggg==;" vertex="1" parent="1aRGqkABkOmQv85ShNvO-1">
          <mxGeometry x="80" y="34" width="371" height="82" as="geometry" />
        </mxCell>
        <mxCell id="1aRGqkABkOmQv85ShNvO-16" value="8 mod 5 = 3" style="text;html=1;align=center;verticalAlign=middle;whiteSpace=wrap;rounded=0;fontSize=18;" vertex="1" parent="1aRGqkABkOmQv85ShNvO-1">
          <mxGeometry x="105" y="340" width="120" height="30" as="geometry" />
        </mxCell>
        <mxCell id="-X36lEdkLP7Mox8sQB6C-1" style="edgeStyle=orthogonalEdgeStyle;rounded=0;orthogonalLoop=1;jettySize=auto;html=1;entryX=0;entryY=0.5;entryDx=0;entryDy=0;" edge="1" parent="1aRGqkABkOmQv85ShNvO-1" source="1aRGqkABkOmQv85ShNvO-17" target="-X36lEdkLP7Mox8sQB6C-0">
          <mxGeometry relative="1" as="geometry" />
        </mxCell>
        <mxCell id="1aRGqkABkOmQv85ShNvO-17" value="18" style="rounded=0;whiteSpace=wrap;html=1;fontSize=18;" vertex="1" parent="1aRGqkABkOmQv85ShNvO-1">
          <mxGeometry x="360" y="560" width="80" height="50" as="geometry" />
        </mxCell>
        <mxCell id="-X36lEdkLP7Mox8sQB6C-0" value="8" style="rounded=0;whiteSpace=wrap;html=1;fontSize=18;" vertex="1" parent="1aRGqkABkOmQv85ShNvO-1">
          <mxGeometry x="480" y="560" width="80" height="50" as="geometry" />
        </mxCell>
      </root>
    </mxGraphModel>
  </diagram>
  <diagram name="TabelaHash1.7" id="407O_6JkiNr-PLOfyzGz">
    <mxGraphModel dx="1434" dy="746" grid="1" gridSize="10" guides="1" tooltips="1" connect="1" arrows="1" fold="1" page="1" pageScale="1" pageWidth="827" pageHeight="1169" math="0" shadow="0">
      <root>
        <mxCell id="jovZ6llVegrI9W0mO5rb-0" />
        <mxCell id="jovZ6llVegrI9W0mO5rb-1" parent="jovZ6llVegrI9W0mO5rb-0" />
        <mxCell id="jovZ6llVegrI9W0mO5rb-2" value="5" style="rounded=0;whiteSpace=wrap;html=1;fontSize=18;" vertex="1" parent="jovZ6llVegrI9W0mO5rb-1">
          <mxGeometry x="170" y="410" width="150" height="50" as="geometry" />
        </mxCell>
        <mxCell id="kYGIIuIVDXT8EI_0-tkE-2" style="edgeStyle=orthogonalEdgeStyle;rounded=0;orthogonalLoop=1;jettySize=auto;html=1;entryX=0;entryY=0.5;entryDx=0;entryDy=0;" edge="1" parent="jovZ6llVegrI9W0mO5rb-1" source="jovZ6llVegrI9W0mO5rb-3" target="kYGIIuIVDXT8EI_0-tkE-0">
          <mxGeometry relative="1" as="geometry" />
        </mxCell>
        <mxCell id="jovZ6llVegrI9W0mO5rb-3" value="11" style="rounded=0;whiteSpace=wrap;html=1;fontSize=18;" vertex="1" parent="jovZ6llVegrI9W0mO5rb-1">
          <mxGeometry x="170" y="460" width="150" height="50" as="geometry" />
        </mxCell>
        <mxCell id="jovZ6llVegrI9W0mO5rb-4" value="" style="rounded=0;whiteSpace=wrap;html=1;fontSize=18;" vertex="1" parent="jovZ6llVegrI9W0mO5rb-1">
          <mxGeometry x="170" y="510" width="150" height="50" as="geometry" />
        </mxCell>
        <mxCell id="jovZ6llVegrI9W0mO5rb-5" style="edgeStyle=orthogonalEdgeStyle;rounded=0;orthogonalLoop=1;jettySize=auto;html=1;entryX=0;entryY=0.5;entryDx=0;entryDy=0;" edge="1" parent="jovZ6llVegrI9W0mO5rb-1" source="jovZ6llVegrI9W0mO5rb-6" target="jovZ6llVegrI9W0mO5rb-18">
          <mxGeometry relative="1" as="geometry">
            <mxPoint x="370" y="585" as="targetPoint" />
          </mxGeometry>
        </mxCell>
        <mxCell id="jovZ6llVegrI9W0mO5rb-6" value="28" style="rounded=0;whiteSpace=wrap;html=1;fontSize=18;" vertex="1" parent="jovZ6llVegrI9W0mO5rb-1">
          <mxGeometry x="170" y="560" width="150" height="50" as="geometry" />
        </mxCell>
        <mxCell id="jovZ6llVegrI9W0mO5rb-7" value="34" style="rounded=0;whiteSpace=wrap;html=1;fontSize=18;" vertex="1" parent="jovZ6llVegrI9W0mO5rb-1">
          <mxGeometry x="170" y="610" width="150" height="50" as="geometry" />
        </mxCell>
        <mxCell id="jovZ6llVegrI9W0mO5rb-8" value="0" style="text;html=1;align=center;verticalAlign=middle;whiteSpace=wrap;rounded=0;fontSize=18;" vertex="1" parent="jovZ6llVegrI9W0mO5rb-1">
          <mxGeometry x="100" y="420" width="60" height="30" as="geometry" />
        </mxCell>
        <mxCell id="jovZ6llVegrI9W0mO5rb-9" value="1" style="text;html=1;align=center;verticalAlign=middle;whiteSpace=wrap;rounded=0;fontSize=18;" vertex="1" parent="jovZ6llVegrI9W0mO5rb-1">
          <mxGeometry x="100" y="470" width="60" height="30" as="geometry" />
        </mxCell>
        <mxCell id="jovZ6llVegrI9W0mO5rb-10" value="2" style="text;html=1;align=center;verticalAlign=middle;whiteSpace=wrap;rounded=0;fontSize=18;" vertex="1" parent="jovZ6llVegrI9W0mO5rb-1">
          <mxGeometry x="100" y="520" width="60" height="30" as="geometry" />
        </mxCell>
        <mxCell id="jovZ6llVegrI9W0mO5rb-11" value="3" style="text;html=1;align=center;verticalAlign=middle;whiteSpace=wrap;rounded=0;fontSize=18;" vertex="1" parent="jovZ6llVegrI9W0mO5rb-1">
          <mxGeometry x="100" y="570" width="60" height="30" as="geometry" />
        </mxCell>
        <mxCell id="jovZ6llVegrI9W0mO5rb-12" value="4" style="text;html=1;align=center;verticalAlign=middle;whiteSpace=wrap;rounded=0;fontSize=18;" vertex="1" parent="jovZ6llVegrI9W0mO5rb-1">
          <mxGeometry x="100" y="620" width="60" height="30" as="geometry" />
        </mxCell>
        <mxCell id="jovZ6llVegrI9W0mO5rb-13" value="CAPACIDADE: 5" style="text;html=1;align=center;verticalAlign=middle;whiteSpace=wrap;rounded=0;fontSize=18;" vertex="1" parent="jovZ6llVegrI9W0mO5rb-1">
          <mxGeometry x="80" y="260" width="160" height="30" as="geometry" />
        </mxCell>
        <mxCell id="jovZ6llVegrI9W0mO5rb-14" value="h(k): k mod m" style="text;html=1;align=center;verticalAlign=middle;whiteSpace=wrap;rounded=0;fontSize=18;" vertex="1" parent="jovZ6llVegrI9W0mO5rb-1">
          <mxGeometry x="80" y="300" width="170" height="30" as="geometry" />
        </mxCell>
        <mxCell id="jovZ6llVegrI9W0mO5rb-15" value="" style="shape=image;verticalLabelPosition=bottom;labelBackgroundColor=default;verticalAlign=top;aspect=fixed;imageAspect=0;image=data:image/png,iVBORw0KGgoAAAANSUhEUgAAAXMAAABSCAIAAAApX6PiAAAM00lEQVR4Ae1d7Y3jOAy9nlLNpBUjxQxSyQCpZIGpIwdSIvkoS4lv1+P12S9/Rpb5+Ug9yd4F/M+TPyJABIjA2gj8s7ZB2iMCRIAIPMksbAIiQATWR4DMsj6mtEgEiACZhT1ABIjA+giQWdbHlBaJABEgs7AHiAARWB8BMsv6mNIiESACZBb2ABEgAusjQGZZH1NaJAJEgMzCHiACRGB9BMgs62NKi0SACKzMLN+f18vt8RZWEfu4f7+V+12Bn7bfj+vX/Xq53n/1b/7Y7Pf94zJ9rWz+cbvYb8JyCrD1N870azKZpGshSsDXz5fF/5o67dGdNKP170xmScCQ7OUyqqAU1zIfBv/wzDvxlxADHLEGOIQuTDbp1csl7T2QeUyjBPuufn92TWapVdwBs/w+Hn+ieRRmkZVmvJ8aVFaFEYqMe8QBMknXgC1N8mrxlLVnAVS97qTZHMpAME8Z9wJ+Pqb+PFqXZW8xy7hH5cKYvq0Khr2F8LgNdd/Zt3gKxzX42M36ty9TyMsq2KisfbkSs1RGn6YBoE3Y2HOP2+X6eXeyj5pVmw21P7VF6u7hwt+fVzcyfT3D/q/79eN+LzvwvNKlX9UDnDVi9+g2h+bSk5GAvWzaZyXMaALdMb5s95N5t+OKz+dzrPsZOOlRIiStL2MGgy/rWcMJR4FSKo+E5MA+JcKqkuVjHrXTikqAqJSUY5qGZ5aCxnW64ZG2O4k+nxqknACyIrSBiPcDfmqHvDxBPUXGQBBD0rEzjSFzYajf94/AP25kXcF53qtVWiw0aYadsUw5l11vEyYyU1xzYjVmueuBPDXWOE7sUc0ZerduINjfMMYaQL3FINQ+7ItMrw+ehaGszGK2jGVlWt/gGJOBeJQFqnzEkxQBE10klWh0bDGDzBJdkbHmk7ERQTtfZRA0HGNOo3EkNUesewQIQ1GFOlfWVUowpGX0uOuKzYrdyazXV1wW8Nd0/YgHHdhg0IUUy7oCqx8yUMGYnI0e08c1nBk95XxL2H1sdQf9buWzm67M41NfPmA1s9bqVysxi8W1DN+0mSSVyLxbP1xF4lIgVnZvsI7LMGgh1r9tf1sY7Xyjhk7rLXGhfeC+2qd93y1TUuZRzbiKD6r1vm4kqNRWmaVhDYzn/YF/nqjMpCCfZffWo08cxHqKEsnsncXXpMVahvDMPqTc86hzHRkB4VXAouLgSNi22bROJGz99QXKQUbgKr/uoUODsW0g2EpiQHkR6zJLfXDrpBnRvpTxlgj5nxrtllmUNdoiSTHa328yS1rkiS/qqoh3DQ320T0RSmIWbda4p6PSjslpOlQboSzUhd6Sji/NCpMlZGclXxV+umly6l9qptHiGptdvlqEbg3z9dcZ2zHLfw94xqQllQEjeJ6VguMpUgFHskBRHwuGgqfEicIDZvF3NLNCu0WJf9AMKkNmCahsnetZFDs1RCovwC4X0A+hbE31qqucgCVXn+027oGYr/Dut+ogOR0yCyQCBpIuuFjCLOa+7qj9XRd8ybChlfL2x54ITGAGTseIynjHz+00KvNqFgFIea5RZ7JMS2HDwoE9sTBLKpvtP62katZnbWNhsJ+GxiBL7MvrRQuslXejb2WsRV3j5wb7PbNgzgZl2ysuYwJ1Ii6HULam+m1nu4o7GvW9CLivnpZaSOyQetHOLC//CSNOHJHgkqchjB5fDKV5vBBw/J+H7MYSxEYyknj7s3Vi9uMvZPdmMm7rKCuOgkGljgyyZxHNZvvMIjKYUa8HOnbKLpKFW1MahBJ9A2HLXO9lvEURg58Z75ZZcBFC+aUGvuXGfFOzuHwBJZqKcdjsvGWoNZDYvP96vsRI9Fn0DSYlhwI3IoRSjyqLdMMpMouOzS/YiQCA/sb9JA3aOzeJU3/+D8SyIfTVl0kIZ+V6BdnF/e5k3NZRI7Mk4JlMu1zFsHSR03qqPgSAxQXwQWJux965ICZoB5Vj3KQZN2DUl3mxHEB3leHPMks/vfJgab2bDguYufSl/WA30Fao874yG0dxiQbngIULZyt4SXnpLzAxo61Wg7BE4swiEtIf9vNmTU0zYJZFupFgAfPiRKY9XRwDaLibWTen9+iBDabmCdj/xEPw3U7o6ghkANUQwlUUszjC7Hy+O+l3y2AuA8E4NTRK8EYvNq1WJlUcgM1yUPSRDMDr3atGQjfPZw96NU9zLtSXeb0c5lb+YGZlZvmDSKhKBIjAcRAgsxynlsyECOwHATLLfmrBSIjAcRAgsxynlsyECOwHATLLfmrBSIjAcRAgsxynlsyECOwHATLLfmrBSIjAcRAgsxynlsyECOwHATLLfmrBSIjAcRAgsxynlsyECOwHATLLfmrBSIjAcRAgsxynlsyECOwHATLLfmrBSIjAcRAgsxynlsyECOwHATLLfmrBSIjAcRAgsxynlsyECOwHATLLfmrBSIjAcRAgsxynlsyECOwHATLLfmrBSIjAcRAgsxynlsyECOwHATLLfmrBSIjAcRAgsxynlsyECOwHATLLfmrBSIjAcRAgsxynlsyECOwHATLLfmrBSIjAcRBYjVngK3z+ScAhTPjlOvsOX/d7ekMLR7qRvhK5WWLxvdcfchkf/et+TbH/Eb8mFvyWa9ySryx2bYYIR38bgXWYRdaGfYR0SceITP48pXLNe0r623D9iP8jMovQSv2KaPeLn+UjpNYzA1gLNzVdUT8vS2YZgLaX6VWYRToAKv2YXnwfVxOfM0v5EHI2YqcZ5yBpx+nhH2O+PeBru9h/sVvaJ3LbbwnDN5Vrp4qzaPTHdJnu8oF0nPSagYrH5t9XFp3h+UsJtOQVMolZPDuAtMAlYvqbvuBTxBCAfHbefo6k6t7lC/b6q4CEpOEWMxFY+jp1OGrK7bDAQKyZZf2OvRWiyHzfP67T7QqAg64NH7fLdEM7lvVtyv1mCvy7JwRWYZacUHePyiLvmAV7F0ihbHSlxcu4ti/I6KfarY/FThmLx0QcZf2g4hNWuHJTrCWMXmml3oIxriUcg2qKAWTCL0zi9+dF0YimjOuJD6FeoKvUY8SBT0OiC/N1jODgGFJaMsQgVf7783r9/E5ozO18TZIjJiXcfX+IJLbHXJMzu0BgfWaJdTJOULoqr1tdMHWXa+9Ka+qt1KOp111FBsEgz2hN1PVF5YMaqp+2xr2bez3WfzPfyd2Nm7NbZT1DTDLys8azHIIUpZQUJqLHAVVZpotrMnJPSMrCvV20Ou18J6c3U0rQRu4mK+fBR8kOK2W39a8cau6/oHzp7rg6SYwXfxOBlZlFmjKOwcPEZKm0Pz88a2d37/YXlXhxZrFVYa5FpViOdeKPQr0wytY97N20yMWJ84XYLz9kB4vjCQ9ukVs5T1nMdR3G7UtZ4ZqdL8LISPI2Mlqm22eWNlkHMx6v3Hvk8x9GlqDidavsOUMyDJZDjVz3+boNODQ52g0CazLLQlpBIhAcZKnY2z7FBRsxAfVHzOLr07nAZ5KTEsLoSX62HsJasaIg9F61pOCTR8t3uGCS0zGzdBkt6f5XZilhaoGE7/IxM+Xw+sIJojzjqHAODPR/3a9OZK4I9/k0lMDY68VazKI7tjfEu2ylq7BNpYHiQeBVz/nrgNiuxZkbbHWxNcva/pzicQnvppiHi7zdRft8EecjsDq0aczS1bLsHNs+syzT7TNLq2vxQOzD40OWsatRFYx28VgWZ9WiLbrtz94BVftDJM0///59BNZhFukYb/0FSTkRuKz2nDeQtI69hYWTRVrGsh58lwaDqIvj+uyQ914xEhwXRPOid1EFxqFbTmGei6eoicSjYriIlSxGXFGMd14/95mlPDi80+0zS9aNGCIAePkS6bwcRXbliOHVdK2WffwGDhDVmEfjMcvRrhBYg1mk19tfWfOj7gEicDR0lfrCQ5vOWYuYpf7bQQmoaWjxC4cj9S1taj/fP1/3bglVleDkhRuyU56nVwZdmWCWcviyaDz4BOOIWZboIrPoOIhM1nD5OT3ld0NehWSkyQ8uoYKeCNyGDQNnmzGZpQHk/3O5BrP8f7JlpESACGyDAJllG5zphQicCwEyy7nqzWyJwDYIkFm2wZleiMC5ECCznKvezJYIbIMAmWUbnOmFCJwLATLLuerNbInANgiQWbbBmV6IwLkQILOcq97MlghsgwCZZRuc6YUInAsBMsu56s1sicA2CJBZtsGZXojAuRAgs5yr3syWCGyDAJllG5zphQicCwEyy7nqzWyJwDYIkFm2wZleiMC5ECCznKvezJYIbIMAmWUbnOmFCJwLATLLuerNbInANgiQWbbBmV6IwLkQILOcq97MlghsgwCZZRuc6YUInAsBMsu56s1sicA2CJBZtsGZXojAuRAgs5yr3syWCGyDwL+NJDhkGVVXHQAAAABJRU5ErkJggg==;" vertex="1" parent="jovZ6llVegrI9W0mO5rb-1">
          <mxGeometry x="80" y="34" width="371" height="82" as="geometry" />
        </mxCell>
        <mxCell id="jovZ6llVegrI9W0mO5rb-16" value="6 mod 5 = 1" style="text;html=1;align=center;verticalAlign=middle;whiteSpace=wrap;rounded=0;fontSize=18;" vertex="1" parent="jovZ6llVegrI9W0mO5rb-1">
          <mxGeometry x="105" y="340" width="120" height="30" as="geometry" />
        </mxCell>
        <mxCell id="jovZ6llVegrI9W0mO5rb-17" style="edgeStyle=orthogonalEdgeStyle;rounded=0;orthogonalLoop=1;jettySize=auto;html=1;entryX=0;entryY=0.5;entryDx=0;entryDy=0;" edge="1" parent="jovZ6llVegrI9W0mO5rb-1" source="jovZ6llVegrI9W0mO5rb-18" target="jovZ6llVegrI9W0mO5rb-19">
          <mxGeometry relative="1" as="geometry" />
        </mxCell>
        <mxCell id="jovZ6llVegrI9W0mO5rb-18" value="18" style="rounded=0;whiteSpace=wrap;html=1;fontSize=18;" vertex="1" parent="jovZ6llVegrI9W0mO5rb-1">
          <mxGeometry x="360" y="560" width="80" height="50" as="geometry" />
        </mxCell>
        <mxCell id="jovZ6llVegrI9W0mO5rb-19" value="8" style="rounded=0;whiteSpace=wrap;html=1;fontSize=18;" vertex="1" parent="jovZ6llVegrI9W0mO5rb-1">
          <mxGeometry x="480" y="560" width="80" height="50" as="geometry" />
        </mxCell>
        <mxCell id="kYGIIuIVDXT8EI_0-tkE-0" value="6" style="rounded=0;whiteSpace=wrap;html=1;fontSize=18;" vertex="1" parent="jovZ6llVegrI9W0mO5rb-1">
          <mxGeometry x="360" y="460" width="80" height="50" as="geometry" />
        </mxCell>
      </root>
    </mxGraphModel>
  </diagram>
  <diagram name="TabelaHash1.8" id="e7lqjvSvyi4R413iBxdM">
    <mxGraphModel dx="1434" dy="746" grid="1" gridSize="10" guides="1" tooltips="1" connect="1" arrows="1" fold="1" page="1" pageScale="1" pageWidth="827" pageHeight="1169" math="0" shadow="0">
      <root>
        <mxCell id="0J-YokYhcZ13ACoSyKrV-0" />
        <mxCell id="0J-YokYhcZ13ACoSyKrV-1" parent="0J-YokYhcZ13ACoSyKrV-0" />
        <mxCell id="w2a4vnRgNTc7VFzY9i5j-1" style="edgeStyle=orthogonalEdgeStyle;rounded=0;orthogonalLoop=1;jettySize=auto;html=1;entryX=0;entryY=0.5;entryDx=0;entryDy=0;" edge="1" parent="0J-YokYhcZ13ACoSyKrV-1" source="0J-YokYhcZ13ACoSyKrV-2" target="w2a4vnRgNTc7VFzY9i5j-0">
          <mxGeometry relative="1" as="geometry" />
        </mxCell>
        <mxCell id="0J-YokYhcZ13ACoSyKrV-2" value="5" style="rounded=0;whiteSpace=wrap;html=1;fontSize=18;" vertex="1" parent="0J-YokYhcZ13ACoSyKrV-1">
          <mxGeometry x="170" y="410" width="150" height="50" as="geometry" />
        </mxCell>
        <mxCell id="0J-YokYhcZ13ACoSyKrV-3" style="edgeStyle=orthogonalEdgeStyle;rounded=0;orthogonalLoop=1;jettySize=auto;html=1;entryX=0;entryY=0.5;entryDx=0;entryDy=0;" edge="1" parent="0J-YokYhcZ13ACoSyKrV-1" source="0J-YokYhcZ13ACoSyKrV-4" target="0J-YokYhcZ13ACoSyKrV-21">
          <mxGeometry relative="1" as="geometry" />
        </mxCell>
        <mxCell id="0J-YokYhcZ13ACoSyKrV-4" value="11" style="rounded=0;whiteSpace=wrap;html=1;fontSize=18;" vertex="1" parent="0J-YokYhcZ13ACoSyKrV-1">
          <mxGeometry x="170" y="460" width="150" height="50" as="geometry" />
        </mxCell>
        <mxCell id="0J-YokYhcZ13ACoSyKrV-5" value="" style="rounded=0;whiteSpace=wrap;html=1;fontSize=18;" vertex="1" parent="0J-YokYhcZ13ACoSyKrV-1">
          <mxGeometry x="170" y="510" width="150" height="50" as="geometry" />
        </mxCell>
        <mxCell id="0J-YokYhcZ13ACoSyKrV-6" style="edgeStyle=orthogonalEdgeStyle;rounded=0;orthogonalLoop=1;jettySize=auto;html=1;entryX=0;entryY=0.5;entryDx=0;entryDy=0;" edge="1" parent="0J-YokYhcZ13ACoSyKrV-1" source="0J-YokYhcZ13ACoSyKrV-7" target="0J-YokYhcZ13ACoSyKrV-19">
          <mxGeometry relative="1" as="geometry">
            <mxPoint x="370" y="585" as="targetPoint" />
          </mxGeometry>
        </mxCell>
        <mxCell id="0J-YokYhcZ13ACoSyKrV-7" value="28" style="rounded=0;whiteSpace=wrap;html=1;fontSize=18;" vertex="1" parent="0J-YokYhcZ13ACoSyKrV-1">
          <mxGeometry x="170" y="560" width="150" height="50" as="geometry" />
        </mxCell>
        <mxCell id="0J-YokYhcZ13ACoSyKrV-8" value="34" style="rounded=0;whiteSpace=wrap;html=1;fontSize=18;" vertex="1" parent="0J-YokYhcZ13ACoSyKrV-1">
          <mxGeometry x="170" y="610" width="150" height="50" as="geometry" />
        </mxCell>
        <mxCell id="0J-YokYhcZ13ACoSyKrV-9" value="0" style="text;html=1;align=center;verticalAlign=middle;whiteSpace=wrap;rounded=0;fontSize=18;" vertex="1" parent="0J-YokYhcZ13ACoSyKrV-1">
          <mxGeometry x="100" y="420" width="60" height="30" as="geometry" />
        </mxCell>
        <mxCell id="0J-YokYhcZ13ACoSyKrV-10" value="1" style="text;html=1;align=center;verticalAlign=middle;whiteSpace=wrap;rounded=0;fontSize=18;" vertex="1" parent="0J-YokYhcZ13ACoSyKrV-1">
          <mxGeometry x="100" y="470" width="60" height="30" as="geometry" />
        </mxCell>
        <mxCell id="0J-YokYhcZ13ACoSyKrV-11" value="2" style="text;html=1;align=center;verticalAlign=middle;whiteSpace=wrap;rounded=0;fontSize=18;" vertex="1" parent="0J-YokYhcZ13ACoSyKrV-1">
          <mxGeometry x="100" y="520" width="60" height="30" as="geometry" />
        </mxCell>
        <mxCell id="0J-YokYhcZ13ACoSyKrV-12" value="3" style="text;html=1;align=center;verticalAlign=middle;whiteSpace=wrap;rounded=0;fontSize=18;" vertex="1" parent="0J-YokYhcZ13ACoSyKrV-1">
          <mxGeometry x="100" y="570" width="60" height="30" as="geometry" />
        </mxCell>
        <mxCell id="0J-YokYhcZ13ACoSyKrV-13" value="4" style="text;html=1;align=center;verticalAlign=middle;whiteSpace=wrap;rounded=0;fontSize=18;" vertex="1" parent="0J-YokYhcZ13ACoSyKrV-1">
          <mxGeometry x="100" y="620" width="60" height="30" as="geometry" />
        </mxCell>
        <mxCell id="0J-YokYhcZ13ACoSyKrV-14" value="CAPACIDADE: 5" style="text;html=1;align=center;verticalAlign=middle;whiteSpace=wrap;rounded=0;fontSize=18;" vertex="1" parent="0J-YokYhcZ13ACoSyKrV-1">
          <mxGeometry x="80" y="260" width="160" height="30" as="geometry" />
        </mxCell>
        <mxCell id="0J-YokYhcZ13ACoSyKrV-15" value="h(k): k mod m" style="text;html=1;align=center;verticalAlign=middle;whiteSpace=wrap;rounded=0;fontSize=18;" vertex="1" parent="0J-YokYhcZ13ACoSyKrV-1">
          <mxGeometry x="80" y="300" width="170" height="30" as="geometry" />
        </mxCell>
        <mxCell id="0J-YokYhcZ13ACoSyKrV-16" value="" style="shape=image;verticalLabelPosition=bottom;labelBackgroundColor=default;verticalAlign=top;aspect=fixed;imageAspect=0;image=data:image/png,iVBORw0KGgoAAAANSUhEUgAAAXMAAABSCAIAAAApX6PiAAAM00lEQVR4Ae1d7Y3jOAy9nlLNpBUjxQxSyQCpZIGpIwdSIvkoS4lv1+P12S9/Rpb5+Ug9yd4F/M+TPyJABIjA2gj8s7ZB2iMCRIAIPMksbAIiQATWR4DMsj6mtEgEiACZhT1ABIjA+giQWdbHlBaJABEgs7AHiAARWB8BMsv6mNIiESACZBb2ABEgAusjQGZZH1NaJAJEgMzCHiACRGB9BMgs62NKi0SACKzMLN+f18vt8RZWEfu4f7+V+12Bn7bfj+vX/Xq53n/1b/7Y7Pf94zJ9rWz+cbvYb8JyCrD1N870azKZpGshSsDXz5fF/5o67dGdNKP170xmScCQ7OUyqqAU1zIfBv/wzDvxlxADHLEGOIQuTDbp1csl7T2QeUyjBPuufn92TWapVdwBs/w+Hn+ieRRmkZVmvJ8aVFaFEYqMe8QBMknXgC1N8mrxlLVnAVS97qTZHMpAME8Z9wJ+Pqb+PFqXZW8xy7hH5cKYvq0Khr2F8LgNdd/Zt3gKxzX42M36ty9TyMsq2KisfbkSs1RGn6YBoE3Y2HOP2+X6eXeyj5pVmw21P7VF6u7hwt+fVzcyfT3D/q/79eN+LzvwvNKlX9UDnDVi9+g2h+bSk5GAvWzaZyXMaALdMb5s95N5t+OKz+dzrPsZOOlRIiStL2MGgy/rWcMJR4FSKo+E5MA+JcKqkuVjHrXTikqAqJSUY5qGZ5aCxnW64ZG2O4k+nxqknACyIrSBiPcDfmqHvDxBPUXGQBBD0rEzjSFzYajf94/AP25kXcF53qtVWiw0aYadsUw5l11vEyYyU1xzYjVmueuBPDXWOE7sUc0ZerduINjfMMYaQL3FINQ+7ItMrw+ehaGszGK2jGVlWt/gGJOBeJQFqnzEkxQBE10klWh0bDGDzBJdkbHmk7ERQTtfZRA0HGNOo3EkNUesewQIQ1GFOlfWVUowpGX0uOuKzYrdyazXV1wW8Nd0/YgHHdhg0IUUy7oCqx8yUMGYnI0e08c1nBk95XxL2H1sdQf9buWzm67M41NfPmA1s9bqVysxi8W1DN+0mSSVyLxbP1xF4lIgVnZvsI7LMGgh1r9tf1sY7Xyjhk7rLXGhfeC+2qd93y1TUuZRzbiKD6r1vm4kqNRWmaVhDYzn/YF/nqjMpCCfZffWo08cxHqKEsnsncXXpMVahvDMPqTc86hzHRkB4VXAouLgSNi22bROJGz99QXKQUbgKr/uoUODsW0g2EpiQHkR6zJLfXDrpBnRvpTxlgj5nxrtllmUNdoiSTHa328yS1rkiS/qqoh3DQ320T0RSmIWbda4p6PSjslpOlQboSzUhd6Sji/NCpMlZGclXxV+umly6l9qptHiGptdvlqEbg3z9dcZ2zHLfw94xqQllQEjeJ6VguMpUgFHskBRHwuGgqfEicIDZvF3NLNCu0WJf9AMKkNmCahsnetZFDs1RCovwC4X0A+hbE31qqucgCVXn+027oGYr/Dut+ogOR0yCyQCBpIuuFjCLOa+7qj9XRd8ybChlfL2x54ITGAGTseIynjHz+00KvNqFgFIea5RZ7JMS2HDwoE9sTBLKpvtP62katZnbWNhsJ+GxiBL7MvrRQuslXejb2WsRV3j5wb7PbNgzgZl2ysuYwJ1Ii6HULam+m1nu4o7GvW9CLivnpZaSOyQetHOLC//CSNOHJHgkqchjB5fDKV5vBBw/J+H7MYSxEYyknj7s3Vi9uMvZPdmMm7rKCuOgkGljgyyZxHNZvvMIjKYUa8HOnbKLpKFW1MahBJ9A2HLXO9lvEURg58Z75ZZcBFC+aUGvuXGfFOzuHwBJZqKcdjsvGWoNZDYvP96vsRI9Fn0DSYlhwI3IoRSjyqLdMMpMouOzS/YiQCA/sb9JA3aOzeJU3/+D8SyIfTVl0kIZ+V6BdnF/e5k3NZRI7Mk4JlMu1zFsHSR03qqPgSAxQXwQWJux965ICZoB5Vj3KQZN2DUl3mxHEB3leHPMks/vfJgab2bDguYufSl/WA30Fao874yG0dxiQbngIULZyt4SXnpLzAxo61Wg7BE4swiEtIf9vNmTU0zYJZFupFgAfPiRKY9XRwDaLibWTen9+iBDabmCdj/xEPw3U7o6ghkANUQwlUUszjC7Hy+O+l3y2AuA8E4NTRK8EYvNq1WJlUcgM1yUPSRDMDr3atGQjfPZw96NU9zLtSXeb0c5lb+YGZlZvmDSKhKBIjAcRAgsxynlsyECOwHATLLfmrBSIjAcRAgsxynlsyECOwHATLLfmrBSIjAcRAgsxynlsyECOwHATLLfmrBSIjAcRAgsxynlsyECOwHATLLfmrBSIjAcRAgsxynlsyECOwHATLLfmrBSIjAcRAgsxynlsyECOwHATLLfmrBSIjAcRAgsxynlsyECOwHATLLfmrBSIjAcRAgsxynlsyECOwHATLLfmrBSIjAcRAgsxynlsyECOwHATLLfmrBSIjAcRAgsxynlsyECOwHATLLfmrBSIjAcRAgsxynlsyECOwHATLLfmrBSIjAcRAgsxynlsyECOwHATLLfmrBSIjAcRBYjVngK3z+ScAhTPjlOvsOX/d7ekMLR7qRvhK5WWLxvdcfchkf/et+TbH/Eb8mFvyWa9ySryx2bYYIR38bgXWYRdaGfYR0SceITP48pXLNe0r623D9iP8jMovQSv2KaPeLn+UjpNYzA1gLNzVdUT8vS2YZgLaX6VWYRToAKv2YXnwfVxOfM0v5EHI2YqcZ5yBpx+nhH2O+PeBru9h/sVvaJ3LbbwnDN5Vrp4qzaPTHdJnu8oF0nPSagYrH5t9XFp3h+UsJtOQVMolZPDuAtMAlYvqbvuBTxBCAfHbefo6k6t7lC/b6q4CEpOEWMxFY+jp1OGrK7bDAQKyZZf2OvRWiyHzfP67T7QqAg64NH7fLdEM7lvVtyv1mCvy7JwRWYZacUHePyiLvmAV7F0ihbHSlxcu4ti/I6KfarY/FThmLx0QcZf2g4hNWuHJTrCWMXmml3oIxriUcg2qKAWTCL0zi9+dF0YimjOuJD6FeoKvUY8SBT0OiC/N1jODgGFJaMsQgVf7783r9/E5ozO18TZIjJiXcfX+IJLbHXJMzu0BgfWaJdTJOULoqr1tdMHWXa+9Ka+qt1KOp111FBsEgz2hN1PVF5YMaqp+2xr2bez3WfzPfyd2Nm7NbZT1DTDLys8azHIIUpZQUJqLHAVVZpotrMnJPSMrCvV20Ou18J6c3U0rQRu4mK+fBR8kOK2W39a8cau6/oHzp7rg6SYwXfxOBlZlFmjKOwcPEZKm0Pz88a2d37/YXlXhxZrFVYa5FpViOdeKPQr0wytY97N20yMWJ84XYLz9kB4vjCQ9ukVs5T1nMdR3G7UtZ4ZqdL8LISPI2Mlqm22eWNlkHMx6v3Hvk8x9GlqDidavsOUMyDJZDjVz3+boNODQ52g0CazLLQlpBIhAcZKnY2z7FBRsxAfVHzOLr07nAZ5KTEsLoSX62HsJasaIg9F61pOCTR8t3uGCS0zGzdBkt6f5XZilhaoGE7/IxM+Xw+sIJojzjqHAODPR/3a9OZK4I9/k0lMDY68VazKI7tjfEu2ylq7BNpYHiQeBVz/nrgNiuxZkbbHWxNcva/pzicQnvppiHi7zdRft8EecjsDq0aczS1bLsHNs+syzT7TNLq2vxQOzD40OWsatRFYx28VgWZ9WiLbrtz94BVftDJM0///59BNZhFukYb/0FSTkRuKz2nDeQtI69hYWTRVrGsh58lwaDqIvj+uyQ914xEhwXRPOid1EFxqFbTmGei6eoicSjYriIlSxGXFGMd14/95mlPDi80+0zS9aNGCIAePkS6bwcRXbliOHVdK2WffwGDhDVmEfjMcvRrhBYg1mk19tfWfOj7gEicDR0lfrCQ5vOWYuYpf7bQQmoaWjxC4cj9S1taj/fP1/3bglVleDkhRuyU56nVwZdmWCWcviyaDz4BOOIWZboIrPoOIhM1nD5OT3ld0NehWSkyQ8uoYKeCNyGDQNnmzGZpQHk/3O5BrP8f7JlpESACGyDAJllG5zphQicCwEyy7nqzWyJwDYIkFm2wZleiMC5ECCznKvezJYIbIMAmWUbnOmFCJwLATLLuerNbInANgiQWbbBmV6IwLkQILOcq97MlghsgwCZZRuc6YUInAsBMsu56s1sicA2CJBZtsGZXojAuRAgs5yr3syWCGyDAJllG5zphQicCwEyy7nqzWyJwDYIkFm2wZleiMC5ECCznKvezJYIbIMAmWUbnOmFCJwLATLLuerNbInANgiQWbbBmV6IwLkQILOcq97MlghsgwCZZRuc6YUInAsBMsu56s1sicA2CJBZtsGZXojAuRAgs5yr3syWCGyDwL+NJDhkGVVXHQAAAABJRU5ErkJggg==;" vertex="1" parent="0J-YokYhcZ13ACoSyKrV-1">
          <mxGeometry x="80" y="34" width="371" height="82" as="geometry" />
        </mxCell>
        <mxCell id="0J-YokYhcZ13ACoSyKrV-17" value="50 mod 5 = 0" style="text;html=1;align=center;verticalAlign=middle;whiteSpace=wrap;rounded=0;fontSize=18;" vertex="1" parent="0J-YokYhcZ13ACoSyKrV-1">
          <mxGeometry x="105" y="340" width="120" height="30" as="geometry" />
        </mxCell>
        <mxCell id="0J-YokYhcZ13ACoSyKrV-18" style="edgeStyle=orthogonalEdgeStyle;rounded=0;orthogonalLoop=1;jettySize=auto;html=1;entryX=0;entryY=0.5;entryDx=0;entryDy=0;" edge="1" parent="0J-YokYhcZ13ACoSyKrV-1" source="0J-YokYhcZ13ACoSyKrV-19" target="0J-YokYhcZ13ACoSyKrV-20">
          <mxGeometry relative="1" as="geometry" />
        </mxCell>
        <mxCell id="0J-YokYhcZ13ACoSyKrV-19" value="18" style="rounded=0;whiteSpace=wrap;html=1;fontSize=18;" vertex="1" parent="0J-YokYhcZ13ACoSyKrV-1">
          <mxGeometry x="360" y="560" width="80" height="50" as="geometry" />
        </mxCell>
        <mxCell id="0J-YokYhcZ13ACoSyKrV-20" value="8" style="rounded=0;whiteSpace=wrap;html=1;fontSize=18;" vertex="1" parent="0J-YokYhcZ13ACoSyKrV-1">
          <mxGeometry x="480" y="560" width="80" height="50" as="geometry" />
        </mxCell>
        <mxCell id="0J-YokYhcZ13ACoSyKrV-21" value="6" style="rounded=0;whiteSpace=wrap;html=1;fontSize=18;" vertex="1" parent="0J-YokYhcZ13ACoSyKrV-1">
          <mxGeometry x="360" y="460" width="80" height="50" as="geometry" />
        </mxCell>
        <mxCell id="w2a4vnRgNTc7VFzY9i5j-0" value="50" style="rounded=0;whiteSpace=wrap;html=1;fontSize=18;" vertex="1" parent="0J-YokYhcZ13ACoSyKrV-1">
          <mxGeometry x="360" y="410" width="80" height="50" as="geometry" />
        </mxCell>
      </root>
    </mxGraphModel>
  </diagram>
  <diagram name="TabelaHash1.9" id="BDLMD8EGZrAGr1HOQ-vQ">
    <mxGraphModel dx="1434" dy="746" grid="1" gridSize="10" guides="1" tooltips="1" connect="1" arrows="1" fold="1" page="1" pageScale="1" pageWidth="827" pageHeight="1169" math="0" shadow="0">
      <root>
        <mxCell id="3_ge1cEKQbOKK87kORAc-0" />
        <mxCell id="3_ge1cEKQbOKK87kORAc-1" parent="3_ge1cEKQbOKK87kORAc-0" />
        <mxCell id="3_ge1cEKQbOKK87kORAc-2" style="edgeStyle=orthogonalEdgeStyle;rounded=0;orthogonalLoop=1;jettySize=auto;html=1;entryX=0;entryY=0.5;entryDx=0;entryDy=0;" edge="1" parent="3_ge1cEKQbOKK87kORAc-1" source="3_ge1cEKQbOKK87kORAc-3" target="3_ge1cEKQbOKK87kORAc-23">
          <mxGeometry relative="1" as="geometry" />
        </mxCell>
        <mxCell id="3_ge1cEKQbOKK87kORAc-3" value="5" style="rounded=0;whiteSpace=wrap;html=1;fontSize=18;" vertex="1" parent="3_ge1cEKQbOKK87kORAc-1">
          <mxGeometry x="170" y="410" width="150" height="50" as="geometry" />
        </mxCell>
        <mxCell id="3_ge1cEKQbOKK87kORAc-4" style="edgeStyle=orthogonalEdgeStyle;rounded=0;orthogonalLoop=1;jettySize=auto;html=1;entryX=0;entryY=0.5;entryDx=0;entryDy=0;" edge="1" parent="3_ge1cEKQbOKK87kORAc-1" source="3_ge1cEKQbOKK87kORAc-5" target="3_ge1cEKQbOKK87kORAc-22">
          <mxGeometry relative="1" as="geometry" />
        </mxCell>
        <mxCell id="3_ge1cEKQbOKK87kORAc-5" value="11" style="rounded=0;whiteSpace=wrap;html=1;fontSize=18;" vertex="1" parent="3_ge1cEKQbOKK87kORAc-1">
          <mxGeometry x="170" y="460" width="150" height="50" as="geometry" />
        </mxCell>
        <mxCell id="3_ge1cEKQbOKK87kORAc-6" value="" style="rounded=0;whiteSpace=wrap;html=1;fontSize=18;" vertex="1" parent="3_ge1cEKQbOKK87kORAc-1">
          <mxGeometry x="170" y="510" width="150" height="50" as="geometry" />
        </mxCell>
        <mxCell id="3_ge1cEKQbOKK87kORAc-7" style="edgeStyle=orthogonalEdgeStyle;rounded=0;orthogonalLoop=1;jettySize=auto;html=1;entryX=0;entryY=0.5;entryDx=0;entryDy=0;" edge="1" parent="3_ge1cEKQbOKK87kORAc-1" source="3_ge1cEKQbOKK87kORAc-8" target="3_ge1cEKQbOKK87kORAc-20">
          <mxGeometry relative="1" as="geometry">
            <mxPoint x="370" y="585" as="targetPoint" />
          </mxGeometry>
        </mxCell>
        <mxCell id="3_ge1cEKQbOKK87kORAc-8" value="28" style="rounded=0;whiteSpace=wrap;html=1;fontSize=18;" vertex="1" parent="3_ge1cEKQbOKK87kORAc-1">
          <mxGeometry x="170" y="560" width="150" height="50" as="geometry" />
        </mxCell>
        <mxCell id="D509GFSLjh7sNcOQE1TG-1" style="edgeStyle=orthogonalEdgeStyle;rounded=0;orthogonalLoop=1;jettySize=auto;html=1;entryX=0;entryY=0.5;entryDx=0;entryDy=0;" edge="1" parent="3_ge1cEKQbOKK87kORAc-1" source="3_ge1cEKQbOKK87kORAc-9" target="D509GFSLjh7sNcOQE1TG-0">
          <mxGeometry relative="1" as="geometry" />
        </mxCell>
        <mxCell id="3_ge1cEKQbOKK87kORAc-9" value="34" style="rounded=0;whiteSpace=wrap;html=1;fontSize=18;" vertex="1" parent="3_ge1cEKQbOKK87kORAc-1">
          <mxGeometry x="170" y="610" width="150" height="50" as="geometry" />
        </mxCell>
        <mxCell id="3_ge1cEKQbOKK87kORAc-10" value="0" style="text;html=1;align=center;verticalAlign=middle;whiteSpace=wrap;rounded=0;fontSize=18;" vertex="1" parent="3_ge1cEKQbOKK87kORAc-1">
          <mxGeometry x="100" y="420" width="60" height="30" as="geometry" />
        </mxCell>
        <mxCell id="3_ge1cEKQbOKK87kORAc-11" value="1" style="text;html=1;align=center;verticalAlign=middle;whiteSpace=wrap;rounded=0;fontSize=18;" vertex="1" parent="3_ge1cEKQbOKK87kORAc-1">
          <mxGeometry x="100" y="470" width="60" height="30" as="geometry" />
        </mxCell>
        <mxCell id="3_ge1cEKQbOKK87kORAc-12" value="2" style="text;html=1;align=center;verticalAlign=middle;whiteSpace=wrap;rounded=0;fontSize=18;" vertex="1" parent="3_ge1cEKQbOKK87kORAc-1">
          <mxGeometry x="100" y="520" width="60" height="30" as="geometry" />
        </mxCell>
        <mxCell id="3_ge1cEKQbOKK87kORAc-13" value="3" style="text;html=1;align=center;verticalAlign=middle;whiteSpace=wrap;rounded=0;fontSize=18;" vertex="1" parent="3_ge1cEKQbOKK87kORAc-1">
          <mxGeometry x="100" y="570" width="60" height="30" as="geometry" />
        </mxCell>
        <mxCell id="3_ge1cEKQbOKK87kORAc-14" value="4" style="text;html=1;align=center;verticalAlign=middle;whiteSpace=wrap;rounded=0;fontSize=18;" vertex="1" parent="3_ge1cEKQbOKK87kORAc-1">
          <mxGeometry x="100" y="620" width="60" height="30" as="geometry" />
        </mxCell>
        <mxCell id="3_ge1cEKQbOKK87kORAc-15" value="CAPACIDADE: 5" style="text;html=1;align=center;verticalAlign=middle;whiteSpace=wrap;rounded=0;fontSize=18;" vertex="1" parent="3_ge1cEKQbOKK87kORAc-1">
          <mxGeometry x="80" y="260" width="160" height="30" as="geometry" />
        </mxCell>
        <mxCell id="3_ge1cEKQbOKK87kORAc-16" value="h(k): k mod m" style="text;html=1;align=center;verticalAlign=middle;whiteSpace=wrap;rounded=0;fontSize=18;" vertex="1" parent="3_ge1cEKQbOKK87kORAc-1">
          <mxGeometry x="80" y="300" width="170" height="30" as="geometry" />
        </mxCell>
        <mxCell id="3_ge1cEKQbOKK87kORAc-17" value="" style="shape=image;verticalLabelPosition=bottom;labelBackgroundColor=default;verticalAlign=top;aspect=fixed;imageAspect=0;image=data:image/png,iVBORw0KGgoAAAANSUhEUgAAAXMAAABSCAIAAAApX6PiAAAM00lEQVR4Ae1d7Y3jOAy9nlLNpBUjxQxSyQCpZIGpIwdSIvkoS4lv1+P12S9/Rpb5+Ug9yd4F/M+TPyJABIjA2gj8s7ZB2iMCRIAIPMksbAIiQATWR4DMsj6mtEgEiACZhT1ABIjA+giQWdbHlBaJABEgs7AHiAARWB8BMsv6mNIiESACZBb2ABEgAusjQGZZH1NaJAJEgMzCHiACRGB9BMgs62NKi0SACKzMLN+f18vt8RZWEfu4f7+V+12Bn7bfj+vX/Xq53n/1b/7Y7Pf94zJ9rWz+cbvYb8JyCrD1N870azKZpGshSsDXz5fF/5o67dGdNKP170xmScCQ7OUyqqAU1zIfBv/wzDvxlxADHLEGOIQuTDbp1csl7T2QeUyjBPuufn92TWapVdwBs/w+Hn+ieRRmkZVmvJ8aVFaFEYqMe8QBMknXgC1N8mrxlLVnAVS97qTZHMpAME8Z9wJ+Pqb+PFqXZW8xy7hH5cKYvq0Khr2F8LgNdd/Zt3gKxzX42M36ty9TyMsq2KisfbkSs1RGn6YBoE3Y2HOP2+X6eXeyj5pVmw21P7VF6u7hwt+fVzcyfT3D/q/79eN+LzvwvNKlX9UDnDVi9+g2h+bSk5GAvWzaZyXMaALdMb5s95N5t+OKz+dzrPsZOOlRIiStL2MGgy/rWcMJR4FSKo+E5MA+JcKqkuVjHrXTikqAqJSUY5qGZ5aCxnW64ZG2O4k+nxqknACyIrSBiPcDfmqHvDxBPUXGQBBD0rEzjSFzYajf94/AP25kXcF53qtVWiw0aYadsUw5l11vEyYyU1xzYjVmueuBPDXWOE7sUc0ZerduINjfMMYaQL3FINQ+7ItMrw+ehaGszGK2jGVlWt/gGJOBeJQFqnzEkxQBE10klWh0bDGDzBJdkbHmk7ERQTtfZRA0HGNOo3EkNUesewQIQ1GFOlfWVUowpGX0uOuKzYrdyazXV1wW8Nd0/YgHHdhg0IUUy7oCqx8yUMGYnI0e08c1nBk95XxL2H1sdQf9buWzm67M41NfPmA1s9bqVysxi8W1DN+0mSSVyLxbP1xF4lIgVnZvsI7LMGgh1r9tf1sY7Xyjhk7rLXGhfeC+2qd93y1TUuZRzbiKD6r1vm4kqNRWmaVhDYzn/YF/nqjMpCCfZffWo08cxHqKEsnsncXXpMVahvDMPqTc86hzHRkB4VXAouLgSNi22bROJGz99QXKQUbgKr/uoUODsW0g2EpiQHkR6zJLfXDrpBnRvpTxlgj5nxrtllmUNdoiSTHa328yS1rkiS/qqoh3DQ320T0RSmIWbda4p6PSjslpOlQboSzUhd6Sji/NCpMlZGclXxV+umly6l9qptHiGptdvlqEbg3z9dcZ2zHLfw94xqQllQEjeJ6VguMpUgFHskBRHwuGgqfEicIDZvF3NLNCu0WJf9AMKkNmCahsnetZFDs1RCovwC4X0A+hbE31qqucgCVXn+027oGYr/Dut+ogOR0yCyQCBpIuuFjCLOa+7qj9XRd8ybChlfL2x54ITGAGTseIynjHz+00KvNqFgFIea5RZ7JMS2HDwoE9sTBLKpvtP62katZnbWNhsJ+GxiBL7MvrRQuslXejb2WsRV3j5wb7PbNgzgZl2ysuYwJ1Ii6HULam+m1nu4o7GvW9CLivnpZaSOyQetHOLC//CSNOHJHgkqchjB5fDKV5vBBw/J+H7MYSxEYyknj7s3Vi9uMvZPdmMm7rKCuOgkGljgyyZxHNZvvMIjKYUa8HOnbKLpKFW1MahBJ9A2HLXO9lvEURg58Z75ZZcBFC+aUGvuXGfFOzuHwBJZqKcdjsvGWoNZDYvP96vsRI9Fn0DSYlhwI3IoRSjyqLdMMpMouOzS/YiQCA/sb9JA3aOzeJU3/+D8SyIfTVl0kIZ+V6BdnF/e5k3NZRI7Mk4JlMu1zFsHSR03qqPgSAxQXwQWJux965ICZoB5Vj3KQZN2DUl3mxHEB3leHPMks/vfJgab2bDguYufSl/WA30Fao874yG0dxiQbngIULZyt4SXnpLzAxo61Wg7BE4swiEtIf9vNmTU0zYJZFupFgAfPiRKY9XRwDaLibWTen9+iBDabmCdj/xEPw3U7o6ghkANUQwlUUszjC7Hy+O+l3y2AuA8E4NTRK8EYvNq1WJlUcgM1yUPSRDMDr3atGQjfPZw96NU9zLtSXeb0c5lb+YGZlZvmDSKhKBIjAcRAgsxynlsyECOwHATLLfmrBSIjAcRAgsxynlsyECOwHATLLfmrBSIjAcRAgsxynlsyECOwHATLLfmrBSIjAcRAgsxynlsyECOwHATLLfmrBSIjAcRAgsxynlsyECOwHATLLfmrBSIjAcRAgsxynlsyECOwHATLLfmrBSIjAcRAgsxynlsyECOwHATLLfmrBSIjAcRAgsxynlsyECOwHATLLfmrBSIjAcRAgsxynlsyECOwHATLLfmrBSIjAcRAgsxynlsyECOwHATLLfmrBSIjAcRAgsxynlsyECOwHATLLfmrBSIjAcRAgsxynlsyECOwHATLLfmrBSIjAcRBYjVngK3z+ScAhTPjlOvsOX/d7ekMLR7qRvhK5WWLxvdcfchkf/et+TbH/Eb8mFvyWa9ySryx2bYYIR38bgXWYRdaGfYR0SceITP48pXLNe0r623D9iP8jMovQSv2KaPeLn+UjpNYzA1gLNzVdUT8vS2YZgLaX6VWYRToAKv2YXnwfVxOfM0v5EHI2YqcZ5yBpx+nhH2O+PeBru9h/sVvaJ3LbbwnDN5Vrp4qzaPTHdJnu8oF0nPSagYrH5t9XFp3h+UsJtOQVMolZPDuAtMAlYvqbvuBTxBCAfHbefo6k6t7lC/b6q4CEpOEWMxFY+jp1OGrK7bDAQKyZZf2OvRWiyHzfP67T7QqAg64NH7fLdEM7lvVtyv1mCvy7JwRWYZacUHePyiLvmAV7F0ihbHSlxcu4ti/I6KfarY/FThmLx0QcZf2g4hNWuHJTrCWMXmml3oIxriUcg2qKAWTCL0zi9+dF0YimjOuJD6FeoKvUY8SBT0OiC/N1jODgGFJaMsQgVf7783r9/E5ozO18TZIjJiXcfX+IJLbHXJMzu0BgfWaJdTJOULoqr1tdMHWXa+9Ka+qt1KOp111FBsEgz2hN1PVF5YMaqp+2xr2bez3WfzPfyd2Nm7NbZT1DTDLys8azHIIUpZQUJqLHAVVZpotrMnJPSMrCvV20Ou18J6c3U0rQRu4mK+fBR8kOK2W39a8cau6/oHzp7rg6SYwXfxOBlZlFmjKOwcPEZKm0Pz88a2d37/YXlXhxZrFVYa5FpViOdeKPQr0wytY97N20yMWJ84XYLz9kB4vjCQ9ukVs5T1nMdR3G7UtZ4ZqdL8LISPI2Mlqm22eWNlkHMx6v3Hvk8x9GlqDidavsOUMyDJZDjVz3+boNODQ52g0CazLLQlpBIhAcZKnY2z7FBRsxAfVHzOLr07nAZ5KTEsLoSX62HsJasaIg9F61pOCTR8t3uGCS0zGzdBkt6f5XZilhaoGE7/IxM+Xw+sIJojzjqHAODPR/3a9OZK4I9/k0lMDY68VazKI7tjfEu2ylq7BNpYHiQeBVz/nrgNiuxZkbbHWxNcva/pzicQnvppiHi7zdRft8EecjsDq0aczS1bLsHNs+syzT7TNLq2vxQOzD40OWsatRFYx28VgWZ9WiLbrtz94BVftDJM0///59BNZhFukYb/0FSTkRuKz2nDeQtI69hYWTRVrGsh58lwaDqIvj+uyQ914xEhwXRPOid1EFxqFbTmGei6eoicSjYriIlSxGXFGMd14/95mlPDi80+0zS9aNGCIAePkS6bwcRXbliOHVdK2WffwGDhDVmEfjMcvRrhBYg1mk19tfWfOj7gEicDR0lfrCQ5vOWYuYpf7bQQmoaWjxC4cj9S1taj/fP1/3bglVleDkhRuyU56nVwZdmWCWcviyaDz4BOOIWZboIrPoOIhM1nD5OT3ld0NehWSkyQ8uoYKeCNyGDQNnmzGZpQHk/3O5BrP8f7JlpESACGyDAJllG5zphQicCwEyy7nqzWyJwDYIkFm2wZleiMC5ECCznKvezJYIbIMAmWUbnOmFCJwLATLLuerNbInANgiQWbbBmV6IwLkQILOcq97MlghsgwCZZRuc6YUInAsBMsu56s1sicA2CJBZtsGZXojAuRAgs5yr3syWCGyDAJllG5zphQicCwEyy7nqzWyJwDYIkFm2wZleiMC5ECCznKvezJYIbIMAmWUbnOmFCJwLATLLuerNbInANgiQWbbBmV6IwLkQILOcq97MlghsgwCZZRuc6YUInAsBMsu56s1sicA2CJBZtsGZXojAuRAgs5yr3syWCGyDwL+NJDhkGVVXHQAAAABJRU5ErkJggg==;" vertex="1" parent="3_ge1cEKQbOKK87kORAc-1">
          <mxGeometry x="80" y="34" width="371" height="82" as="geometry" />
        </mxCell>
        <mxCell id="3_ge1cEKQbOKK87kORAc-18" value="4 mod 5 = 0" style="text;html=1;align=center;verticalAlign=middle;whiteSpace=wrap;rounded=0;fontSize=18;" vertex="1" parent="3_ge1cEKQbOKK87kORAc-1">
          <mxGeometry x="105" y="340" width="120" height="30" as="geometry" />
        </mxCell>
        <mxCell id="3_ge1cEKQbOKK87kORAc-19" style="edgeStyle=orthogonalEdgeStyle;rounded=0;orthogonalLoop=1;jettySize=auto;html=1;entryX=0;entryY=0.5;entryDx=0;entryDy=0;" edge="1" parent="3_ge1cEKQbOKK87kORAc-1" source="3_ge1cEKQbOKK87kORAc-20" target="3_ge1cEKQbOKK87kORAc-21">
          <mxGeometry relative="1" as="geometry" />
        </mxCell>
        <mxCell id="3_ge1cEKQbOKK87kORAc-20" value="18" style="rounded=0;whiteSpace=wrap;html=1;fontSize=18;" vertex="1" parent="3_ge1cEKQbOKK87kORAc-1">
          <mxGeometry x="360" y="560" width="80" height="50" as="geometry" />
        </mxCell>
        <mxCell id="3_ge1cEKQbOKK87kORAc-21" value="8" style="rounded=0;whiteSpace=wrap;html=1;fontSize=18;" vertex="1" parent="3_ge1cEKQbOKK87kORAc-1">
          <mxGeometry x="480" y="560" width="80" height="50" as="geometry" />
        </mxCell>
        <mxCell id="3_ge1cEKQbOKK87kORAc-22" value="6" style="rounded=0;whiteSpace=wrap;html=1;fontSize=18;" vertex="1" parent="3_ge1cEKQbOKK87kORAc-1">
          <mxGeometry x="360" y="460" width="80" height="50" as="geometry" />
        </mxCell>
        <mxCell id="3_ge1cEKQbOKK87kORAc-23" value="50" style="rounded=0;whiteSpace=wrap;html=1;fontSize=18;" vertex="1" parent="3_ge1cEKQbOKK87kORAc-1">
          <mxGeometry x="360" y="410" width="80" height="50" as="geometry" />
        </mxCell>
        <mxCell id="D509GFSLjh7sNcOQE1TG-0" value="4" style="rounded=0;whiteSpace=wrap;html=1;fontSize=18;" vertex="1" parent="3_ge1cEKQbOKK87kORAc-1">
          <mxGeometry x="360" y="610" width="80" height="50" as="geometry" />
        </mxCell>
      </root>
    </mxGraphModel>
  </diagram>
  <diagram name="TabelaHash1.99" id="urkrV2J4cP4nv62eQOuL">
    <mxGraphModel dx="1434" dy="746" grid="1" gridSize="10" guides="1" tooltips="1" connect="1" arrows="1" fold="1" page="1" pageScale="1" pageWidth="827" pageHeight="1169" background="none" math="0" shadow="0">
      <root>
        <mxCell id="OlsVmW_k_DUnZwVmzffn-0" />
        <mxCell id="OlsVmW_k_DUnZwVmzffn-1" parent="OlsVmW_k_DUnZwVmzffn-0" />
        <mxCell id="OlsVmW_k_DUnZwVmzffn-2" style="edgeStyle=orthogonalEdgeStyle;rounded=0;orthogonalLoop=1;jettySize=auto;html=1;entryX=0;entryY=0.5;entryDx=0;entryDy=0;" edge="1" parent="OlsVmW_k_DUnZwVmzffn-1" source="OlsVmW_k_DUnZwVmzffn-3" target="OlsVmW_k_DUnZwVmzffn-24">
          <mxGeometry relative="1" as="geometry" />
        </mxCell>
        <mxCell id="OlsVmW_k_DUnZwVmzffn-3" value="5" style="rounded=0;whiteSpace=wrap;html=1;fontSize=18;" vertex="1" parent="OlsVmW_k_DUnZwVmzffn-1">
          <mxGeometry x="170" y="410" width="150" height="50" as="geometry" />
        </mxCell>
        <mxCell id="OlsVmW_k_DUnZwVmzffn-4" style="edgeStyle=orthogonalEdgeStyle;rounded=0;orthogonalLoop=1;jettySize=auto;html=1;entryX=0;entryY=0.5;entryDx=0;entryDy=0;" edge="1" parent="OlsVmW_k_DUnZwVmzffn-1" source="OlsVmW_k_DUnZwVmzffn-5" target="OlsVmW_k_DUnZwVmzffn-23">
          <mxGeometry relative="1" as="geometry" />
        </mxCell>
        <mxCell id="OlsVmW_k_DUnZwVmzffn-5" value="11" style="rounded=0;whiteSpace=wrap;html=1;fontSize=18;" vertex="1" parent="OlsVmW_k_DUnZwVmzffn-1">
          <mxGeometry x="170" y="460" width="150" height="50" as="geometry" />
        </mxCell>
        <mxCell id="OlsVmW_k_DUnZwVmzffn-6" value="" style="rounded=0;whiteSpace=wrap;html=1;fontSize=18;" vertex="1" parent="OlsVmW_k_DUnZwVmzffn-1">
          <mxGeometry x="170" y="510" width="150" height="50" as="geometry" />
        </mxCell>
        <mxCell id="OlsVmW_k_DUnZwVmzffn-7" style="edgeStyle=orthogonalEdgeStyle;rounded=0;orthogonalLoop=1;jettySize=auto;html=1;entryX=0;entryY=0.5;entryDx=0;entryDy=0;" edge="1" parent="OlsVmW_k_DUnZwVmzffn-1" source="OlsVmW_k_DUnZwVmzffn-8" target="OlsVmW_k_DUnZwVmzffn-21">
          <mxGeometry relative="1" as="geometry">
            <mxPoint x="370" y="585" as="targetPoint" />
          </mxGeometry>
        </mxCell>
        <mxCell id="OlsVmW_k_DUnZwVmzffn-8" value="28" style="rounded=0;whiteSpace=wrap;html=1;fontSize=18;" vertex="1" parent="OlsVmW_k_DUnZwVmzffn-1">
          <mxGeometry x="170" y="560" width="150" height="50" as="geometry" />
        </mxCell>
        <mxCell id="OlsVmW_k_DUnZwVmzffn-9" style="edgeStyle=orthogonalEdgeStyle;rounded=0;orthogonalLoop=1;jettySize=auto;html=1;entryX=0;entryY=0.5;entryDx=0;entryDy=0;" edge="1" parent="OlsVmW_k_DUnZwVmzffn-1" source="OlsVmW_k_DUnZwVmzffn-10" target="OlsVmW_k_DUnZwVmzffn-25">
          <mxGeometry relative="1" as="geometry" />
        </mxCell>
        <mxCell id="OlsVmW_k_DUnZwVmzffn-10" value="34" style="rounded=0;whiteSpace=wrap;html=1;fontSize=18;" vertex="1" parent="OlsVmW_k_DUnZwVmzffn-1">
          <mxGeometry x="170" y="610" width="150" height="50" as="geometry" />
        </mxCell>
        <mxCell id="OlsVmW_k_DUnZwVmzffn-11" value="0" style="text;html=1;align=center;verticalAlign=middle;whiteSpace=wrap;rounded=0;fontSize=18;" vertex="1" parent="OlsVmW_k_DUnZwVmzffn-1">
          <mxGeometry x="100" y="420" width="60" height="30" as="geometry" />
        </mxCell>
        <mxCell id="OlsVmW_k_DUnZwVmzffn-12" value="1" style="text;html=1;align=center;verticalAlign=middle;whiteSpace=wrap;rounded=0;fontSize=18;" vertex="1" parent="OlsVmW_k_DUnZwVmzffn-1">
          <mxGeometry x="100" y="470" width="60" height="30" as="geometry" />
        </mxCell>
        <mxCell id="OlsVmW_k_DUnZwVmzffn-13" value="2" style="text;html=1;align=center;verticalAlign=middle;whiteSpace=wrap;rounded=0;fontSize=18;" vertex="1" parent="OlsVmW_k_DUnZwVmzffn-1">
          <mxGeometry x="100" y="520" width="60" height="30" as="geometry" />
        </mxCell>
        <mxCell id="OlsVmW_k_DUnZwVmzffn-14" value="3" style="text;html=1;align=center;verticalAlign=middle;whiteSpace=wrap;rounded=0;fontSize=18;" vertex="1" parent="OlsVmW_k_DUnZwVmzffn-1">
          <mxGeometry x="100" y="570" width="60" height="30" as="geometry" />
        </mxCell>
        <mxCell id="OlsVmW_k_DUnZwVmzffn-15" value="4" style="text;html=1;align=center;verticalAlign=middle;whiteSpace=wrap;rounded=0;fontSize=18;" vertex="1" parent="OlsVmW_k_DUnZwVmzffn-1">
          <mxGeometry x="100" y="620" width="60" height="30" as="geometry" />
        </mxCell>
        <mxCell id="OlsVmW_k_DUnZwVmzffn-16" value="CAPACIDADE: 5" style="text;html=1;align=center;verticalAlign=middle;whiteSpace=wrap;rounded=0;fontSize=18;" vertex="1" parent="OlsVmW_k_DUnZwVmzffn-1">
          <mxGeometry x="80" y="260" width="160" height="30" as="geometry" />
        </mxCell>
        <mxCell id="OlsVmW_k_DUnZwVmzffn-17" value="h(k): k mod m" style="text;html=1;align=center;verticalAlign=middle;whiteSpace=wrap;rounded=0;fontSize=18;" vertex="1" parent="OlsVmW_k_DUnZwVmzffn-1">
          <mxGeometry x="80" y="300" width="170" height="30" as="geometry" />
        </mxCell>
        <mxCell id="OlsVmW_k_DUnZwVmzffn-18" value="" style="shape=image;verticalLabelPosition=bottom;labelBackgroundColor=default;verticalAlign=top;aspect=fixed;imageAspect=0;image=data:image/png,iVBORw0KGgoAAAANSUhEUgAAAXMAAABSCAIAAAApX6PiAAAM00lEQVR4Ae1d7Y3jOAy9nlLNpBUjxQxSyQCpZIGpIwdSIvkoS4lv1+P12S9/Rpb5+Ug9yd4F/M+TPyJABIjA2gj8s7ZB2iMCRIAIPMksbAIiQATWR4DMsj6mtEgEiACZhT1ABIjA+giQWdbHlBaJABEgs7AHiAARWB8BMsv6mNIiESACZBb2ABEgAusjQGZZH1NaJAJEgMzCHiACRGB9BMgs62NKi0SACKzMLN+f18vt8RZWEfu4f7+V+12Bn7bfj+vX/Xq53n/1b/7Y7Pf94zJ9rWz+cbvYb8JyCrD1N870azKZpGshSsDXz5fF/5o67dGdNKP170xmScCQ7OUyqqAU1zIfBv/wzDvxlxADHLEGOIQuTDbp1csl7T2QeUyjBPuufn92TWapVdwBs/w+Hn+ieRRmkZVmvJ8aVFaFEYqMe8QBMknXgC1N8mrxlLVnAVS97qTZHMpAME8Z9wJ+Pqb+PFqXZW8xy7hH5cKYvq0Khr2F8LgNdd/Zt3gKxzX42M36ty9TyMsq2KisfbkSs1RGn6YBoE3Y2HOP2+X6eXeyj5pVmw21P7VF6u7hwt+fVzcyfT3D/q/79eN+LzvwvNKlX9UDnDVi9+g2h+bSk5GAvWzaZyXMaALdMb5s95N5t+OKz+dzrPsZOOlRIiStL2MGgy/rWcMJR4FSKo+E5MA+JcKqkuVjHrXTikqAqJSUY5qGZ5aCxnW64ZG2O4k+nxqknACyIrSBiPcDfmqHvDxBPUXGQBBD0rEzjSFzYajf94/AP25kXcF53qtVWiw0aYadsUw5l11vEyYyU1xzYjVmueuBPDXWOE7sUc0ZerduINjfMMYaQL3FINQ+7ItMrw+ehaGszGK2jGVlWt/gGJOBeJQFqnzEkxQBE10klWh0bDGDzBJdkbHmk7ERQTtfZRA0HGNOo3EkNUesewQIQ1GFOlfWVUowpGX0uOuKzYrdyazXV1wW8Nd0/YgHHdhg0IUUy7oCqx8yUMGYnI0e08c1nBk95XxL2H1sdQf9buWzm67M41NfPmA1s9bqVysxi8W1DN+0mSSVyLxbP1xF4lIgVnZvsI7LMGgh1r9tf1sY7Xyjhk7rLXGhfeC+2qd93y1TUuZRzbiKD6r1vm4kqNRWmaVhDYzn/YF/nqjMpCCfZffWo08cxHqKEsnsncXXpMVahvDMPqTc86hzHRkB4VXAouLgSNi22bROJGz99QXKQUbgKr/uoUODsW0g2EpiQHkR6zJLfXDrpBnRvpTxlgj5nxrtllmUNdoiSTHa328yS1rkiS/qqoh3DQ320T0RSmIWbda4p6PSjslpOlQboSzUhd6Sji/NCpMlZGclXxV+umly6l9qptHiGptdvlqEbg3z9dcZ2zHLfw94xqQllQEjeJ6VguMpUgFHskBRHwuGgqfEicIDZvF3NLNCu0WJf9AMKkNmCahsnetZFDs1RCovwC4X0A+hbE31qqucgCVXn+027oGYr/Dut+ogOR0yCyQCBpIuuFjCLOa+7qj9XRd8ybChlfL2x54ITGAGTseIynjHz+00KvNqFgFIea5RZ7JMS2HDwoE9sTBLKpvtP62katZnbWNhsJ+GxiBL7MvrRQuslXejb2WsRV3j5wb7PbNgzgZl2ysuYwJ1Ii6HULam+m1nu4o7GvW9CLivnpZaSOyQetHOLC//CSNOHJHgkqchjB5fDKV5vBBw/J+H7MYSxEYyknj7s3Vi9uMvZPdmMm7rKCuOgkGljgyyZxHNZvvMIjKYUa8HOnbKLpKFW1MahBJ9A2HLXO9lvEURg58Z75ZZcBFC+aUGvuXGfFOzuHwBJZqKcdjsvGWoNZDYvP96vsRI9Fn0DSYlhwI3IoRSjyqLdMMpMouOzS/YiQCA/sb9JA3aOzeJU3/+D8SyIfTVl0kIZ+V6BdnF/e5k3NZRI7Mk4JlMu1zFsHSR03qqPgSAxQXwQWJux965ICZoB5Vj3KQZN2DUl3mxHEB3leHPMks/vfJgab2bDguYufSl/WA30Fao874yG0dxiQbngIULZyt4SXnpLzAxo61Wg7BE4swiEtIf9vNmTU0zYJZFupFgAfPiRKY9XRwDaLibWTen9+iBDabmCdj/xEPw3U7o6ghkANUQwlUUszjC7Hy+O+l3y2AuA8E4NTRK8EYvNq1WJlUcgM1yUPSRDMDr3atGQjfPZw96NU9zLtSXeb0c5lb+YGZlZvmDSKhKBIjAcRAgsxynlsyECOwHATLLfmrBSIjAcRAgsxynlsyECOwHATLLfmrBSIjAcRAgsxynlsyECOwHATLLfmrBSIjAcRAgsxynlsyECOwHATLLfmrBSIjAcRAgsxynlsyECOwHATLLfmrBSIjAcRAgsxynlsyECOwHATLLfmrBSIjAcRAgsxynlsyECOwHATLLfmrBSIjAcRAgsxynlsyECOwHATLLfmrBSIjAcRAgsxynlsyECOwHATLLfmrBSIjAcRAgsxynlsyECOwHATLLfmrBSIjAcRAgsxynlsyECOwHATLLfmrBSIjAcRAgsxynlsyECOwHATLLfmrBSIjAcRBYjVngK3z+ScAhTPjlOvsOX/d7ekMLR7qRvhK5WWLxvdcfchkf/et+TbH/Eb8mFvyWa9ySryx2bYYIR38bgXWYRdaGfYR0SceITP48pXLNe0r623D9iP8jMovQSv2KaPeLn+UjpNYzA1gLNzVdUT8vS2YZgLaX6VWYRToAKv2YXnwfVxOfM0v5EHI2YqcZ5yBpx+nhH2O+PeBru9h/sVvaJ3LbbwnDN5Vrp4qzaPTHdJnu8oF0nPSagYrH5t9XFp3h+UsJtOQVMolZPDuAtMAlYvqbvuBTxBCAfHbefo6k6t7lC/b6q4CEpOEWMxFY+jp1OGrK7bDAQKyZZf2OvRWiyHzfP67T7QqAg64NH7fLdEM7lvVtyv1mCvy7JwRWYZacUHePyiLvmAV7F0ihbHSlxcu4ti/I6KfarY/FThmLx0QcZf2g4hNWuHJTrCWMXmml3oIxriUcg2qKAWTCL0zi9+dF0YimjOuJD6FeoKvUY8SBT0OiC/N1jODgGFJaMsQgVf7783r9/E5ozO18TZIjJiXcfX+IJLbHXJMzu0BgfWaJdTJOULoqr1tdMHWXa+9Ka+qt1KOp111FBsEgz2hN1PVF5YMaqp+2xr2bez3WfzPfyd2Nm7NbZT1DTDLys8azHIIUpZQUJqLHAVVZpotrMnJPSMrCvV20Ou18J6c3U0rQRu4mK+fBR8kOK2W39a8cau6/oHzp7rg6SYwXfxOBlZlFmjKOwcPEZKm0Pz88a2d37/YXlXhxZrFVYa5FpViOdeKPQr0wytY97N20yMWJ84XYLz9kB4vjCQ9ukVs5T1nMdR3G7UtZ4ZqdL8LISPI2Mlqm22eWNlkHMx6v3Hvk8x9GlqDidavsOUMyDJZDjVz3+boNODQ52g0CazLLQlpBIhAcZKnY2z7FBRsxAfVHzOLr07nAZ5KTEsLoSX62HsJasaIg9F61pOCTR8t3uGCS0zGzdBkt6f5XZilhaoGE7/IxM+Xw+sIJojzjqHAODPR/3a9OZK4I9/k0lMDY68VazKI7tjfEu2ylq7BNpYHiQeBVz/nrgNiuxZkbbHWxNcva/pzicQnvppiHi7zdRft8EecjsDq0aczS1bLsHNs+syzT7TNLq2vxQOzD40OWsatRFYx28VgWZ9WiLbrtz94BVftDJM0///59BNZhFukYb/0FSTkRuKz2nDeQtI69hYWTRVrGsh58lwaDqIvj+uyQ914xEhwXRPOid1EFxqFbTmGei6eoicSjYriIlSxGXFGMd14/95mlPDi80+0zS9aNGCIAePkS6bwcRXbliOHVdK2WffwGDhDVmEfjMcvRrhBYg1mk19tfWfOj7gEicDR0lfrCQ5vOWYuYpf7bQQmoaWjxC4cj9S1taj/fP1/3bglVleDkhRuyU56nVwZdmWCWcviyaDz4BOOIWZboIrPoOIhM1nD5OT3ld0NehWSkyQ8uoYKeCNyGDQNnmzGZpQHk/3O5BrP8f7JlpESACGyDAJllG5zphQicCwEyy7nqzWyJwDYIkFm2wZleiMC5ECCznKvezJYIbIMAmWUbnOmFCJwLATLLuerNbInANgiQWbbBmV6IwLkQILOcq97MlghsgwCZZRuc6YUInAsBMsu56s1sicA2CJBZtsGZXojAuRAgs5yr3syWCGyDAJllG5zphQicCwEyy7nqzWyJwDYIkFm2wZleiMC5ECCznKvezJYIbIMAmWUbnOmFCJwLATLLuerNbInANgiQWbbBmV6IwLkQILOcq97MlghsgwCZZRuc6YUInAsBMsu56s1sicA2CJBZtsGZXojAuRAgs5yr3syWCGyDwL+NJDhkGVVXHQAAAABJRU5ErkJggg==;" vertex="1" parent="OlsVmW_k_DUnZwVmzffn-1">
          <mxGeometry x="80" y="34" width="371" height="82" as="geometry" />
        </mxCell>
        <mxCell id="OlsVmW_k_DUnZwVmzffn-19" value="41 mod 5 = 1" style="text;html=1;align=center;verticalAlign=middle;whiteSpace=wrap;rounded=0;fontSize=18;" vertex="1" parent="OlsVmW_k_DUnZwVmzffn-1">
          <mxGeometry x="105" y="340" width="120" height="30" as="geometry" />
        </mxCell>
        <mxCell id="OlsVmW_k_DUnZwVmzffn-20" style="edgeStyle=orthogonalEdgeStyle;rounded=0;orthogonalLoop=1;jettySize=auto;html=1;entryX=0;entryY=0.5;entryDx=0;entryDy=0;" edge="1" parent="OlsVmW_k_DUnZwVmzffn-1" source="OlsVmW_k_DUnZwVmzffn-21" target="OlsVmW_k_DUnZwVmzffn-22">
          <mxGeometry relative="1" as="geometry" />
        </mxCell>
        <mxCell id="OlsVmW_k_DUnZwVmzffn-21" value="18" style="rounded=0;whiteSpace=wrap;html=1;fontSize=18;" vertex="1" parent="OlsVmW_k_DUnZwVmzffn-1">
          <mxGeometry x="360" y="560" width="80" height="50" as="geometry" />
        </mxCell>
        <mxCell id="OlsVmW_k_DUnZwVmzffn-22" value="8" style="rounded=0;whiteSpace=wrap;html=1;fontSize=18;shadow=0;glass=0;" vertex="1" parent="OlsVmW_k_DUnZwVmzffn-1">
          <mxGeometry x="480" y="560" width="80" height="50" as="geometry" />
        </mxCell>
        <mxCell id="Z40bEVlmrXlBwyz-SuN3-1" style="edgeStyle=orthogonalEdgeStyle;rounded=0;orthogonalLoop=1;jettySize=auto;html=1;entryX=0;entryY=0.5;entryDx=0;entryDy=0;" edge="1" parent="OlsVmW_k_DUnZwVmzffn-1" source="OlsVmW_k_DUnZwVmzffn-23" target="Z40bEVlmrXlBwyz-SuN3-0">
          <mxGeometry relative="1" as="geometry" />
        </mxCell>
        <mxCell id="OlsVmW_k_DUnZwVmzffn-23" value="6" style="rounded=0;whiteSpace=wrap;html=1;fontSize=18;" vertex="1" parent="OlsVmW_k_DUnZwVmzffn-1">
          <mxGeometry x="360" y="460" width="80" height="50" as="geometry" />
        </mxCell>
        <mxCell id="OlsVmW_k_DUnZwVmzffn-24" value="50" style="rounded=0;whiteSpace=wrap;html=1;fontSize=18;" vertex="1" parent="OlsVmW_k_DUnZwVmzffn-1">
          <mxGeometry x="360" y="410" width="80" height="50" as="geometry" />
        </mxCell>
        <mxCell id="OlsVmW_k_DUnZwVmzffn-25" value="4" style="rounded=0;whiteSpace=wrap;html=1;fontSize=18;" vertex="1" parent="OlsVmW_k_DUnZwVmzffn-1">
          <mxGeometry x="360" y="610" width="80" height="50" as="geometry" />
        </mxCell>
        <mxCell id="Z40bEVlmrXlBwyz-SuN3-0" value="41" style="rounded=0;whiteSpace=wrap;html=1;fontSize=18;" vertex="1" parent="OlsVmW_k_DUnZwVmzffn-1">
          <mxGeometry x="480" y="460" width="80" height="50" as="geometry" />
        </mxCell>
      </root>
    </mxGraphModel>
  </diagram>
  <diagram name="TabelaHash2.0" id="YF04cORijupBs6SZJxXs">
    <mxGraphModel dx="1434" dy="746" grid="1" gridSize="10" guides="1" tooltips="1" connect="1" arrows="1" fold="1" page="1" pageScale="1" pageWidth="827" pageHeight="1169" background="none" math="0" shadow="0">
      <root>
        <mxCell id="BV6GRFz_UruxcBUIph5P-0" />
        <mxCell id="BV6GRFz_UruxcBUIph5P-1" parent="BV6GRFz_UruxcBUIph5P-0" />
        <mxCell id="BV6GRFz_UruxcBUIph5P-2" style="edgeStyle=orthogonalEdgeStyle;rounded=0;orthogonalLoop=1;jettySize=auto;html=1;entryX=0;entryY=0.5;entryDx=0;entryDy=0;" edge="1" parent="BV6GRFz_UruxcBUIph5P-1" source="BV6GRFz_UruxcBUIph5P-3" target="BV6GRFz_UruxcBUIph5P-25">
          <mxGeometry relative="1" as="geometry" />
        </mxCell>
        <mxCell id="BV6GRFz_UruxcBUIph5P-3" value="5" style="rounded=0;whiteSpace=wrap;html=1;fontSize=18;" vertex="1" parent="BV6GRFz_UruxcBUIph5P-1">
          <mxGeometry x="170" y="410" width="150" height="50" as="geometry" />
        </mxCell>
        <mxCell id="BV6GRFz_UruxcBUIph5P-4" style="edgeStyle=orthogonalEdgeStyle;rounded=0;orthogonalLoop=1;jettySize=auto;html=1;entryX=0;entryY=0.5;entryDx=0;entryDy=0;" edge="1" parent="BV6GRFz_UruxcBUIph5P-1" source="BV6GRFz_UruxcBUIph5P-5" target="BV6GRFz_UruxcBUIph5P-24">
          <mxGeometry relative="1" as="geometry" />
        </mxCell>
        <mxCell id="BV6GRFz_UruxcBUIph5P-5" value="11" style="rounded=0;whiteSpace=wrap;html=1;fontSize=18;" vertex="1" parent="BV6GRFz_UruxcBUIph5P-1">
          <mxGeometry x="170" y="460" width="150" height="50" as="geometry" />
        </mxCell>
        <mxCell id="BV6GRFz_UruxcBUIph5P-6" value="" style="rounded=0;whiteSpace=wrap;html=1;fontSize=18;" vertex="1" parent="BV6GRFz_UruxcBUIph5P-1">
          <mxGeometry x="170" y="510" width="150" height="50" as="geometry" />
        </mxCell>
        <mxCell id="BV6GRFz_UruxcBUIph5P-7" style="edgeStyle=orthogonalEdgeStyle;rounded=0;orthogonalLoop=1;jettySize=auto;html=1;entryX=0;entryY=0.5;entryDx=0;entryDy=0;" edge="1" parent="BV6GRFz_UruxcBUIph5P-1" source="BV6GRFz_UruxcBUIph5P-8" target="BV6GRFz_UruxcBUIph5P-21">
          <mxGeometry relative="1" as="geometry">
            <mxPoint x="370" y="585" as="targetPoint" />
          </mxGeometry>
        </mxCell>
        <mxCell id="BV6GRFz_UruxcBUIph5P-8" value="28" style="rounded=0;whiteSpace=wrap;html=1;fontSize=18;" vertex="1" parent="BV6GRFz_UruxcBUIph5P-1">
          <mxGeometry x="170" y="560" width="150" height="50" as="geometry" />
        </mxCell>
        <mxCell id="BV6GRFz_UruxcBUIph5P-9" style="edgeStyle=orthogonalEdgeStyle;rounded=0;orthogonalLoop=1;jettySize=auto;html=1;entryX=0;entryY=0.5;entryDx=0;entryDy=0;" edge="1" parent="BV6GRFz_UruxcBUIph5P-1" source="BV6GRFz_UruxcBUIph5P-10" target="BV6GRFz_UruxcBUIph5P-26">
          <mxGeometry relative="1" as="geometry" />
        </mxCell>
        <mxCell id="BV6GRFz_UruxcBUIph5P-10" value="34" style="rounded=0;whiteSpace=wrap;html=1;fontSize=18;" vertex="1" parent="BV6GRFz_UruxcBUIph5P-1">
          <mxGeometry x="170" y="610" width="150" height="50" as="geometry" />
        </mxCell>
        <mxCell id="fHhTn8LKC2x4HXRK3oWR-4" style="edgeStyle=orthogonalEdgeStyle;rounded=0;orthogonalLoop=1;jettySize=auto;html=1;entryX=0;entryY=0.5;entryDx=0;entryDy=0;" edge="1" parent="BV6GRFz_UruxcBUIph5P-1" source="BV6GRFz_UruxcBUIph5P-11" target="BV6GRFz_UruxcBUIph5P-3">
          <mxGeometry relative="1" as="geometry" />
        </mxCell>
        <mxCell id="BV6GRFz_UruxcBUIph5P-11" value="0" style="text;html=1;align=center;verticalAlign=middle;whiteSpace=wrap;rounded=0;fontSize=18;" vertex="1" parent="BV6GRFz_UruxcBUIph5P-1">
          <mxGeometry x="60" y="420" width="60" height="30" as="geometry" />
        </mxCell>
        <mxCell id="fHhTn8LKC2x4HXRK3oWR-3" style="edgeStyle=orthogonalEdgeStyle;rounded=0;orthogonalLoop=1;jettySize=auto;html=1;entryX=0;entryY=0.5;entryDx=0;entryDy=0;" edge="1" parent="BV6GRFz_UruxcBUIph5P-1" source="BV6GRFz_UruxcBUIph5P-12" target="BV6GRFz_UruxcBUIph5P-5">
          <mxGeometry relative="1" as="geometry" />
        </mxCell>
        <mxCell id="BV6GRFz_UruxcBUIph5P-12" value="1" style="text;html=1;align=center;verticalAlign=middle;whiteSpace=wrap;rounded=0;fontSize=18;" vertex="1" parent="BV6GRFz_UruxcBUIph5P-1">
          <mxGeometry x="60" y="470" width="60" height="30" as="geometry" />
        </mxCell>
        <mxCell id="fHhTn8LKC2x4HXRK3oWR-2" style="edgeStyle=orthogonalEdgeStyle;rounded=0;orthogonalLoop=1;jettySize=auto;html=1;entryX=0;entryY=0.5;entryDx=0;entryDy=0;" edge="1" parent="BV6GRFz_UruxcBUIph5P-1" source="BV6GRFz_UruxcBUIph5P-13" target="BV6GRFz_UruxcBUIph5P-6">
          <mxGeometry relative="1" as="geometry" />
        </mxCell>
        <mxCell id="BV6GRFz_UruxcBUIph5P-13" value="2" style="text;html=1;align=center;verticalAlign=middle;whiteSpace=wrap;rounded=0;fontSize=18;" vertex="1" parent="BV6GRFz_UruxcBUIph5P-1">
          <mxGeometry x="60" y="520" width="60" height="30" as="geometry" />
        </mxCell>
        <mxCell id="fHhTn8LKC2x4HXRK3oWR-1" style="edgeStyle=orthogonalEdgeStyle;rounded=0;orthogonalLoop=1;jettySize=auto;html=1;entryX=0;entryY=0.5;entryDx=0;entryDy=0;" edge="1" parent="BV6GRFz_UruxcBUIph5P-1" source="BV6GRFz_UruxcBUIph5P-14" target="BV6GRFz_UruxcBUIph5P-8">
          <mxGeometry relative="1" as="geometry" />
        </mxCell>
        <mxCell id="BV6GRFz_UruxcBUIph5P-14" value="3" style="text;html=1;align=center;verticalAlign=middle;whiteSpace=wrap;rounded=0;fontSize=18;" vertex="1" parent="BV6GRFz_UruxcBUIph5P-1">
          <mxGeometry x="60" y="570" width="60" height="30" as="geometry" />
        </mxCell>
        <mxCell id="fHhTn8LKC2x4HXRK3oWR-0" style="edgeStyle=orthogonalEdgeStyle;rounded=0;orthogonalLoop=1;jettySize=auto;html=1;entryX=0;entryY=0.5;entryDx=0;entryDy=0;" edge="1" parent="BV6GRFz_UruxcBUIph5P-1" source="BV6GRFz_UruxcBUIph5P-15" target="BV6GRFz_UruxcBUIph5P-10">
          <mxGeometry relative="1" as="geometry" />
        </mxCell>
        <mxCell id="BV6GRFz_UruxcBUIph5P-15" value="4" style="text;html=1;align=center;verticalAlign=middle;whiteSpace=wrap;rounded=0;fontSize=18;" vertex="1" parent="BV6GRFz_UruxcBUIph5P-1">
          <mxGeometry x="60" y="620" width="60" height="30" as="geometry" />
        </mxCell>
        <mxCell id="BV6GRFz_UruxcBUIph5P-16" value="CAPACIDADE: 5" style="text;html=1;align=center;verticalAlign=middle;whiteSpace=wrap;rounded=0;fontSize=18;" vertex="1" parent="BV6GRFz_UruxcBUIph5P-1">
          <mxGeometry x="80" y="260" width="160" height="30" as="geometry" />
        </mxCell>
        <mxCell id="BV6GRFz_UruxcBUIph5P-17" value="h(k): k mod m" style="text;html=1;align=center;verticalAlign=middle;whiteSpace=wrap;rounded=0;fontSize=18;" vertex="1" parent="BV6GRFz_UruxcBUIph5P-1">
          <mxGeometry x="80" y="300" width="170" height="30" as="geometry" />
        </mxCell>
        <mxCell id="BV6GRFz_UruxcBUIph5P-18" value="" style="shape=image;verticalLabelPosition=bottom;labelBackgroundColor=default;verticalAlign=top;aspect=fixed;imageAspect=0;image=data:image/png,iVBORw0KGgoAAAANSUhEUgAAAXMAAABSCAIAAAApX6PiAAAM00lEQVR4Ae1d7Y3jOAy9nlLNpBUjxQxSyQCpZIGpIwdSIvkoS4lv1+P12S9/Rpb5+Ug9yd4F/M+TPyJABIjA2gj8s7ZB2iMCRIAIPMksbAIiQATWR4DMsj6mtEgEiACZhT1ABIjA+giQWdbHlBaJABEgs7AHiAARWB8BMsv6mNIiESACZBb2ABEgAusjQGZZH1NaJAJEgMzCHiACRGB9BMgs62NKi0SACKzMLN+f18vt8RZWEfu4f7+V+12Bn7bfj+vX/Xq53n/1b/7Y7Pf94zJ9rWz+cbvYb8JyCrD1N870azKZpGshSsDXz5fF/5o67dGdNKP170xmScCQ7OUyqqAU1zIfBv/wzDvxlxADHLEGOIQuTDbp1csl7T2QeUyjBPuufn92TWapVdwBs/w+Hn+ieRRmkZVmvJ8aVFaFEYqMe8QBMknXgC1N8mrxlLVnAVS97qTZHMpAME8Z9wJ+Pqb+PFqXZW8xy7hH5cKYvq0Khr2F8LgNdd/Zt3gKxzX42M36ty9TyMsq2KisfbkSs1RGn6YBoE3Y2HOP2+X6eXeyj5pVmw21P7VF6u7hwt+fVzcyfT3D/q/79eN+LzvwvNKlX9UDnDVi9+g2h+bSk5GAvWzaZyXMaALdMb5s95N5t+OKz+dzrPsZOOlRIiStL2MGgy/rWcMJR4FSKo+E5MA+JcKqkuVjHrXTikqAqJSUY5qGZ5aCxnW64ZG2O4k+nxqknACyIrSBiPcDfmqHvDxBPUXGQBBD0rEzjSFzYajf94/AP25kXcF53qtVWiw0aYadsUw5l11vEyYyU1xzYjVmueuBPDXWOE7sUc0ZerduINjfMMYaQL3FINQ+7ItMrw+ehaGszGK2jGVlWt/gGJOBeJQFqnzEkxQBE10klWh0bDGDzBJdkbHmk7ERQTtfZRA0HGNOo3EkNUesewQIQ1GFOlfWVUowpGX0uOuKzYrdyazXV1wW8Nd0/YgHHdhg0IUUy7oCqx8yUMGYnI0e08c1nBk95XxL2H1sdQf9buWzm67M41NfPmA1s9bqVysxi8W1DN+0mSSVyLxbP1xF4lIgVnZvsI7LMGgh1r9tf1sY7Xyjhk7rLXGhfeC+2qd93y1TUuZRzbiKD6r1vm4kqNRWmaVhDYzn/YF/nqjMpCCfZffWo08cxHqKEsnsncXXpMVahvDMPqTc86hzHRkB4VXAouLgSNi22bROJGz99QXKQUbgKr/uoUODsW0g2EpiQHkR6zJLfXDrpBnRvpTxlgj5nxrtllmUNdoiSTHa328yS1rkiS/qqoh3DQ320T0RSmIWbda4p6PSjslpOlQboSzUhd6Sji/NCpMlZGclXxV+umly6l9qptHiGptdvlqEbg3z9dcZ2zHLfw94xqQllQEjeJ6VguMpUgFHskBRHwuGgqfEicIDZvF3NLNCu0WJf9AMKkNmCahsnetZFDs1RCovwC4X0A+hbE31qqucgCVXn+027oGYr/Dut+ogOR0yCyQCBpIuuFjCLOa+7qj9XRd8ybChlfL2x54ITGAGTseIynjHz+00KvNqFgFIea5RZ7JMS2HDwoE9sTBLKpvtP62katZnbWNhsJ+GxiBL7MvrRQuslXejb2WsRV3j5wb7PbNgzgZl2ysuYwJ1Ii6HULam+m1nu4o7GvW9CLivnpZaSOyQetHOLC//CSNOHJHgkqchjB5fDKV5vBBw/J+H7MYSxEYyknj7s3Vi9uMvZPdmMm7rKCuOgkGljgyyZxHNZvvMIjKYUa8HOnbKLpKFW1MahBJ9A2HLXO9lvEURg58Z75ZZcBFC+aUGvuXGfFOzuHwBJZqKcdjsvGWoNZDYvP96vsRI9Fn0DSYlhwI3IoRSjyqLdMMpMouOzS/YiQCA/sb9JA3aOzeJU3/+D8SyIfTVl0kIZ+V6BdnF/e5k3NZRI7Mk4JlMu1zFsHSR03qqPgSAxQXwQWJux965ICZoB5Vj3KQZN2DUl3mxHEB3leHPMks/vfJgab2bDguYufSl/WA30Fao874yG0dxiQbngIULZyt4SXnpLzAxo61Wg7BE4swiEtIf9vNmTU0zYJZFupFgAfPiRKY9XRwDaLibWTen9+iBDabmCdj/xEPw3U7o6ghkANUQwlUUszjC7Hy+O+l3y2AuA8E4NTRK8EYvNq1WJlUcgM1yUPSRDMDr3atGQjfPZw96NU9zLtSXeb0c5lb+YGZlZvmDSKhKBIjAcRAgsxynlsyECOwHATLLfmrBSIjAcRAgsxynlsyECOwHATLLfmrBSIjAcRAgsxynlsyECOwHATLLfmrBSIjAcRAgsxynlsyECOwHATLLfmrBSIjAcRAgsxynlsyECOwHATLLfmrBSIjAcRAgsxynlsyECOwHATLLfmrBSIjAcRAgsxynlsyECOwHATLLfmrBSIjAcRAgsxynlsyECOwHATLLfmrBSIjAcRAgsxynlsyECOwHATLLfmrBSIjAcRAgsxynlsyECOwHATLLfmrBSIjAcRAgsxynlsyECOwHATLLfmrBSIjAcRAgsxynlsyECOwHATLLfmrBSIjAcRBYjVngK3z+ScAhTPjlOvsOX/d7ekMLR7qRvhK5WWLxvdcfchkf/et+TbH/Eb8mFvyWa9ySryx2bYYIR38bgXWYRdaGfYR0SceITP48pXLNe0r623D9iP8jMovQSv2KaPeLn+UjpNYzA1gLNzVdUT8vS2YZgLaX6VWYRToAKv2YXnwfVxOfM0v5EHI2YqcZ5yBpx+nhH2O+PeBru9h/sVvaJ3LbbwnDN5Vrp4qzaPTHdJnu8oF0nPSagYrH5t9XFp3h+UsJtOQVMolZPDuAtMAlYvqbvuBTxBCAfHbefo6k6t7lC/b6q4CEpOEWMxFY+jp1OGrK7bDAQKyZZf2OvRWiyHzfP67T7QqAg64NH7fLdEM7lvVtyv1mCvy7JwRWYZacUHePyiLvmAV7F0ihbHSlxcu4ti/I6KfarY/FThmLx0QcZf2g4hNWuHJTrCWMXmml3oIxriUcg2qKAWTCL0zi9+dF0YimjOuJD6FeoKvUY8SBT0OiC/N1jODgGFJaMsQgVf7783r9/E5ozO18TZIjJiXcfX+IJLbHXJMzu0BgfWaJdTJOULoqr1tdMHWXa+9Ka+qt1KOp111FBsEgz2hN1PVF5YMaqp+2xr2bez3WfzPfyd2Nm7NbZT1DTDLys8azHIIUpZQUJqLHAVVZpotrMnJPSMrCvV20Ou18J6c3U0rQRu4mK+fBR8kOK2W39a8cau6/oHzp7rg6SYwXfxOBlZlFmjKOwcPEZKm0Pz88a2d37/YXlXhxZrFVYa5FpViOdeKPQr0wytY97N20yMWJ84XYLz9kB4vjCQ9ukVs5T1nMdR3G7UtZ4ZqdL8LISPI2Mlqm22eWNlkHMx6v3Hvk8x9GlqDidavsOUMyDJZDjVz3+boNODQ52g0CazLLQlpBIhAcZKnY2z7FBRsxAfVHzOLr07nAZ5KTEsLoSX62HsJasaIg9F61pOCTR8t3uGCS0zGzdBkt6f5XZilhaoGE7/IxM+Xw+sIJojzjqHAODPR/3a9OZK4I9/k0lMDY68VazKI7tjfEu2ylq7BNpYHiQeBVz/nrgNiuxZkbbHWxNcva/pzicQnvppiHi7zdRft8EecjsDq0aczS1bLsHNs+syzT7TNLq2vxQOzD40OWsatRFYx28VgWZ9WiLbrtz94BVftDJM0///59BNZhFukYb/0FSTkRuKz2nDeQtI69hYWTRVrGsh58lwaDqIvj+uyQ914xEhwXRPOid1EFxqFbTmGei6eoicSjYriIlSxGXFGMd14/95mlPDi80+0zS9aNGCIAePkS6bwcRXbliOHVdK2WffwGDhDVmEfjMcvRrhBYg1mk19tfWfOj7gEicDR0lfrCQ5vOWYuYpf7bQQmoaWjxC4cj9S1taj/fP1/3bglVleDkhRuyU56nVwZdmWCWcviyaDz4BOOIWZboIrPoOIhM1nD5OT3ld0NehWSkyQ8uoYKeCNyGDQNnmzGZpQHk/3O5BrP8f7JlpESACGyDAJllG5zphQicCwEyy7nqzWyJwDYIkFm2wZleiMC5ECCznKvezJYIbIMAmWUbnOmFCJwLATLLuerNbInANgiQWbbBmV6IwLkQILOcq97MlghsgwCZZRuc6YUInAsBMsu56s1sicA2CJBZtsGZXojAuRAgs5yr3syWCGyDAJllG5zphQicCwEyy7nqzWyJwDYIkFm2wZleiMC5ECCznKvezJYIbIMAmWUbnOmFCJwLATLLuerNbInANgiQWbbBmV6IwLkQILOcq97MlghsgwCZZRuc6YUInAsBMsu56s1sicA2CJBZtsGZXojAuRAgs5yr3syWCGyDwL+NJDhkGVVXHQAAAABJRU5ErkJggg==;" vertex="1" parent="BV6GRFz_UruxcBUIph5P-1">
          <mxGeometry x="80" y="34" width="371" height="82" as="geometry" />
        </mxCell>
        <mxCell id="BV6GRFz_UruxcBUIph5P-19" value="41 mod 5 = 1" style="text;html=1;align=center;verticalAlign=middle;whiteSpace=wrap;rounded=0;fontSize=18;" vertex="1" parent="BV6GRFz_UruxcBUIph5P-1">
          <mxGeometry x="105" y="340" width="120" height="30" as="geometry" />
        </mxCell>
        <mxCell id="BV6GRFz_UruxcBUIph5P-20" style="edgeStyle=orthogonalEdgeStyle;rounded=0;orthogonalLoop=1;jettySize=auto;html=1;entryX=0;entryY=0.5;entryDx=0;entryDy=0;" edge="1" parent="BV6GRFz_UruxcBUIph5P-1" source="BV6GRFz_UruxcBUIph5P-21" target="BV6GRFz_UruxcBUIph5P-22">
          <mxGeometry relative="1" as="geometry" />
        </mxCell>
        <mxCell id="BV6GRFz_UruxcBUIph5P-21" value="18" style="rounded=0;whiteSpace=wrap;html=1;fontSize=18;" vertex="1" parent="BV6GRFz_UruxcBUIph5P-1">
          <mxGeometry x="360" y="560" width="80" height="50" as="geometry" />
        </mxCell>
        <mxCell id="BV6GRFz_UruxcBUIph5P-22" value="8" style="rounded=0;whiteSpace=wrap;html=1;fontSize=18;shadow=0;glass=0;" vertex="1" parent="BV6GRFz_UruxcBUIph5P-1">
          <mxGeometry x="480" y="560" width="80" height="50" as="geometry" />
        </mxCell>
        <mxCell id="BV6GRFz_UruxcBUIph5P-23" style="edgeStyle=orthogonalEdgeStyle;rounded=0;orthogonalLoop=1;jettySize=auto;html=1;entryX=0;entryY=0.5;entryDx=0;entryDy=0;" edge="1" parent="BV6GRFz_UruxcBUIph5P-1" source="BV6GRFz_UruxcBUIph5P-24" target="BV6GRFz_UruxcBUIph5P-27">
          <mxGeometry relative="1" as="geometry" />
        </mxCell>
        <mxCell id="BV6GRFz_UruxcBUIph5P-24" value="6" style="rounded=0;whiteSpace=wrap;html=1;fontSize=18;" vertex="1" parent="BV6GRFz_UruxcBUIph5P-1">
          <mxGeometry x="360" y="460" width="80" height="50" as="geometry" />
        </mxCell>
        <mxCell id="BV6GRFz_UruxcBUIph5P-25" value="50" style="rounded=0;whiteSpace=wrap;html=1;fontSize=18;" vertex="1" parent="BV6GRFz_UruxcBUIph5P-1">
          <mxGeometry x="360" y="410" width="80" height="50" as="geometry" />
        </mxCell>
        <mxCell id="BV6GRFz_UruxcBUIph5P-26" value="4" style="rounded=0;whiteSpace=wrap;html=1;fontSize=18;" vertex="1" parent="BV6GRFz_UruxcBUIph5P-1">
          <mxGeometry x="360" y="610" width="80" height="50" as="geometry" />
        </mxCell>
        <mxCell id="BV6GRFz_UruxcBUIph5P-27" value="41" style="rounded=0;whiteSpace=wrap;html=1;fontSize=18;" vertex="1" parent="BV6GRFz_UruxcBUIph5P-1">
          <mxGeometry x="480" y="460" width="80" height="50" as="geometry" />
        </mxCell>
        <mxCell id="dlJerXGysvMmrhJgFHhw-0" value="" style="endArrow=classic;html=1;rounded=0;entryX=0.25;entryY=1;entryDx=0;entryDy=0;" edge="1" parent="BV6GRFz_UruxcBUIph5P-1" target="BV6GRFz_UruxcBUIph5P-10">
          <mxGeometry width="50" height="50" relative="1" as="geometry">
            <mxPoint x="220" y="750" as="sourcePoint" />
            <mxPoint x="220" y="680" as="targetPoint" />
          </mxGeometry>
        </mxCell>
        <mxCell id="dlJerXGysvMmrhJgFHhw-2" value="AUX" style="text;html=1;align=center;verticalAlign=middle;whiteSpace=wrap;rounded=0;fontSize=18;" vertex="1" parent="BV6GRFz_UruxcBUIph5P-1">
          <mxGeometry x="190" y="750" width="60" height="30" as="geometry" />
        </mxCell>
      </root>
    </mxGraphModel>
  </diagram>
  <diagram name="TabelaHash2.1" id="39oddHh4gKDkTztNcreU">
    <mxGraphModel dx="1434" dy="746" grid="1" gridSize="10" guides="1" tooltips="1" connect="1" arrows="1" fold="1" page="1" pageScale="1" pageWidth="827" pageHeight="1169" background="none" math="0" shadow="0">
      <root>
        <mxCell id="c4hBEOBirp2lQ6MX5P5y-0" />
        <mxCell id="c4hBEOBirp2lQ6MX5P5y-1" parent="c4hBEOBirp2lQ6MX5P5y-0" />
        <mxCell id="c4hBEOBirp2lQ6MX5P5y-2" style="edgeStyle=orthogonalEdgeStyle;rounded=0;orthogonalLoop=1;jettySize=auto;html=1;entryX=0;entryY=0.5;entryDx=0;entryDy=0;" edge="1" parent="c4hBEOBirp2lQ6MX5P5y-1" source="c4hBEOBirp2lQ6MX5P5y-3" target="c4hBEOBirp2lQ6MX5P5y-30">
          <mxGeometry relative="1" as="geometry" />
        </mxCell>
        <mxCell id="c4hBEOBirp2lQ6MX5P5y-3" value="5" style="rounded=0;whiteSpace=wrap;html=1;fontSize=18;" vertex="1" parent="c4hBEOBirp2lQ6MX5P5y-1">
          <mxGeometry x="170" y="410" width="150" height="50" as="geometry" />
        </mxCell>
        <mxCell id="c4hBEOBirp2lQ6MX5P5y-4" style="edgeStyle=orthogonalEdgeStyle;rounded=0;orthogonalLoop=1;jettySize=auto;html=1;entryX=0;entryY=0.5;entryDx=0;entryDy=0;" edge="1" parent="c4hBEOBirp2lQ6MX5P5y-1" source="c4hBEOBirp2lQ6MX5P5y-5" target="c4hBEOBirp2lQ6MX5P5y-29">
          <mxGeometry relative="1" as="geometry" />
        </mxCell>
        <mxCell id="c4hBEOBirp2lQ6MX5P5y-5" value="11" style="rounded=0;whiteSpace=wrap;html=1;fontSize=18;" vertex="1" parent="c4hBEOBirp2lQ6MX5P5y-1">
          <mxGeometry x="170" y="460" width="150" height="50" as="geometry" />
        </mxCell>
        <mxCell id="c4hBEOBirp2lQ6MX5P5y-6" value="" style="rounded=0;whiteSpace=wrap;html=1;fontSize=18;" vertex="1" parent="c4hBEOBirp2lQ6MX5P5y-1">
          <mxGeometry x="170" y="510" width="150" height="50" as="geometry" />
        </mxCell>
        <mxCell id="c4hBEOBirp2lQ6MX5P5y-7" style="edgeStyle=orthogonalEdgeStyle;rounded=0;orthogonalLoop=1;jettySize=auto;html=1;entryX=0;entryY=0.5;entryDx=0;entryDy=0;" edge="1" parent="c4hBEOBirp2lQ6MX5P5y-1" source="c4hBEOBirp2lQ6MX5P5y-8" target="c4hBEOBirp2lQ6MX5P5y-26">
          <mxGeometry relative="1" as="geometry">
            <mxPoint x="370" y="585" as="targetPoint" />
          </mxGeometry>
        </mxCell>
        <mxCell id="c4hBEOBirp2lQ6MX5P5y-8" value="28" style="rounded=0;whiteSpace=wrap;html=1;fontSize=18;" vertex="1" parent="c4hBEOBirp2lQ6MX5P5y-1">
          <mxGeometry x="170" y="560" width="150" height="50" as="geometry" />
        </mxCell>
        <mxCell id="c4hBEOBirp2lQ6MX5P5y-9" style="edgeStyle=orthogonalEdgeStyle;rounded=0;orthogonalLoop=1;jettySize=auto;html=1;entryX=0;entryY=0.5;entryDx=0;entryDy=0;" edge="1" parent="c4hBEOBirp2lQ6MX5P5y-1" source="c4hBEOBirp2lQ6MX5P5y-10" target="c4hBEOBirp2lQ6MX5P5y-31">
          <mxGeometry relative="1" as="geometry" />
        </mxCell>
        <mxCell id="c4hBEOBirp2lQ6MX5P5y-10" value="34" style="rounded=0;whiteSpace=wrap;html=1;fontSize=18;" vertex="1" parent="c4hBEOBirp2lQ6MX5P5y-1">
          <mxGeometry x="170" y="610" width="150" height="50" as="geometry" />
        </mxCell>
        <mxCell id="c4hBEOBirp2lQ6MX5P5y-11" style="edgeStyle=orthogonalEdgeStyle;rounded=0;orthogonalLoop=1;jettySize=auto;html=1;entryX=0;entryY=0.5;entryDx=0;entryDy=0;" edge="1" parent="c4hBEOBirp2lQ6MX5P5y-1" source="c4hBEOBirp2lQ6MX5P5y-12" target="c4hBEOBirp2lQ6MX5P5y-3">
          <mxGeometry relative="1" as="geometry" />
        </mxCell>
        <mxCell id="c4hBEOBirp2lQ6MX5P5y-12" value="0" style="text;html=1;align=center;verticalAlign=middle;whiteSpace=wrap;rounded=0;fontSize=18;" vertex="1" parent="c4hBEOBirp2lQ6MX5P5y-1">
          <mxGeometry x="60" y="420" width="60" height="30" as="geometry" />
        </mxCell>
        <mxCell id="c4hBEOBirp2lQ6MX5P5y-13" style="edgeStyle=orthogonalEdgeStyle;rounded=0;orthogonalLoop=1;jettySize=auto;html=1;entryX=0;entryY=0.5;entryDx=0;entryDy=0;" edge="1" parent="c4hBEOBirp2lQ6MX5P5y-1" source="c4hBEOBirp2lQ6MX5P5y-14" target="c4hBEOBirp2lQ6MX5P5y-5">
          <mxGeometry relative="1" as="geometry" />
        </mxCell>
        <mxCell id="c4hBEOBirp2lQ6MX5P5y-14" value="1" style="text;html=1;align=center;verticalAlign=middle;whiteSpace=wrap;rounded=0;fontSize=18;" vertex="1" parent="c4hBEOBirp2lQ6MX5P5y-1">
          <mxGeometry x="60" y="470" width="60" height="30" as="geometry" />
        </mxCell>
        <mxCell id="c4hBEOBirp2lQ6MX5P5y-15" style="edgeStyle=orthogonalEdgeStyle;rounded=0;orthogonalLoop=1;jettySize=auto;html=1;entryX=0;entryY=0.5;entryDx=0;entryDy=0;" edge="1" parent="c4hBEOBirp2lQ6MX5P5y-1" source="c4hBEOBirp2lQ6MX5P5y-16" target="c4hBEOBirp2lQ6MX5P5y-6">
          <mxGeometry relative="1" as="geometry" />
        </mxCell>
        <mxCell id="c4hBEOBirp2lQ6MX5P5y-16" value="2" style="text;html=1;align=center;verticalAlign=middle;whiteSpace=wrap;rounded=0;fontSize=18;" vertex="1" parent="c4hBEOBirp2lQ6MX5P5y-1">
          <mxGeometry x="60" y="520" width="60" height="30" as="geometry" />
        </mxCell>
        <mxCell id="c4hBEOBirp2lQ6MX5P5y-17" style="edgeStyle=orthogonalEdgeStyle;rounded=0;orthogonalLoop=1;jettySize=auto;html=1;entryX=0;entryY=0.5;entryDx=0;entryDy=0;" edge="1" parent="c4hBEOBirp2lQ6MX5P5y-1" source="c4hBEOBirp2lQ6MX5P5y-18" target="c4hBEOBirp2lQ6MX5P5y-8">
          <mxGeometry relative="1" as="geometry" />
        </mxCell>
        <mxCell id="c4hBEOBirp2lQ6MX5P5y-18" value="3" style="text;html=1;align=center;verticalAlign=middle;whiteSpace=wrap;rounded=0;fontSize=18;" vertex="1" parent="c4hBEOBirp2lQ6MX5P5y-1">
          <mxGeometry x="60" y="570" width="60" height="30" as="geometry" />
        </mxCell>
        <mxCell id="c4hBEOBirp2lQ6MX5P5y-19" style="edgeStyle=orthogonalEdgeStyle;rounded=0;orthogonalLoop=1;jettySize=auto;html=1;entryX=0.413;entryY=1;entryDx=0;entryDy=0;entryPerimeter=0;" edge="1" parent="c4hBEOBirp2lQ6MX5P5y-1" source="c4hBEOBirp2lQ6MX5P5y-20" target="c4hBEOBirp2lQ6MX5P5y-31">
          <mxGeometry relative="1" as="geometry">
            <mxPoint x="380" y="690" as="targetPoint" />
            <Array as="points">
              <mxPoint x="90" y="690" />
              <mxPoint x="393" y="690" />
            </Array>
          </mxGeometry>
        </mxCell>
        <mxCell id="c4hBEOBirp2lQ6MX5P5y-20" value="4" style="text;html=1;align=center;verticalAlign=middle;whiteSpace=wrap;rounded=0;fontSize=18;" vertex="1" parent="c4hBEOBirp2lQ6MX5P5y-1">
          <mxGeometry x="60" y="620" width="60" height="30" as="geometry" />
        </mxCell>
        <mxCell id="c4hBEOBirp2lQ6MX5P5y-21" value="CAPACIDADE: 5" style="text;html=1;align=center;verticalAlign=middle;whiteSpace=wrap;rounded=0;fontSize=18;" vertex="1" parent="c4hBEOBirp2lQ6MX5P5y-1">
          <mxGeometry x="80" y="260" width="160" height="30" as="geometry" />
        </mxCell>
        <mxCell id="c4hBEOBirp2lQ6MX5P5y-22" value="h(k): k mod m" style="text;html=1;align=center;verticalAlign=middle;whiteSpace=wrap;rounded=0;fontSize=18;" vertex="1" parent="c4hBEOBirp2lQ6MX5P5y-1">
          <mxGeometry x="80" y="300" width="170" height="30" as="geometry" />
        </mxCell>
        <mxCell id="c4hBEOBirp2lQ6MX5P5y-23" value="" style="shape=image;verticalLabelPosition=bottom;labelBackgroundColor=default;verticalAlign=top;aspect=fixed;imageAspect=0;image=data:image/png,iVBORw0KGgoAAAANSUhEUgAAAXMAAABSCAIAAAApX6PiAAAM00lEQVR4Ae1d7Y3jOAy9nlLNpBUjxQxSyQCpZIGpIwdSIvkoS4lv1+P12S9/Rpb5+Ug9yd4F/M+TPyJABIjA2gj8s7ZB2iMCRIAIPMksbAIiQATWR4DMsj6mtEgEiACZhT1ABIjA+giQWdbHlBaJABEgs7AHiAARWB8BMsv6mNIiESACZBb2ABEgAusjQGZZH1NaJAJEgMzCHiACRGB9BMgs62NKi0SACKzMLN+f18vt8RZWEfu4f7+V+12Bn7bfj+vX/Xq53n/1b/7Y7Pf94zJ9rWz+cbvYb8JyCrD1N870azKZpGshSsDXz5fF/5o67dGdNKP170xmScCQ7OUyqqAU1zIfBv/wzDvxlxADHLEGOIQuTDbp1csl7T2QeUyjBPuufn92TWapVdwBs/w+Hn+ieRRmkZVmvJ8aVFaFEYqMe8QBMknXgC1N8mrxlLVnAVS97qTZHMpAME8Z9wJ+Pqb+PFqXZW8xy7hH5cKYvq0Khr2F8LgNdd/Zt3gKxzX42M36ty9TyMsq2KisfbkSs1RGn6YBoE3Y2HOP2+X6eXeyj5pVmw21P7VF6u7hwt+fVzcyfT3D/q/79eN+LzvwvNKlX9UDnDVi9+g2h+bSk5GAvWzaZyXMaALdMb5s95N5t+OKz+dzrPsZOOlRIiStL2MGgy/rWcMJR4FSKo+E5MA+JcKqkuVjHrXTikqAqJSUY5qGZ5aCxnW64ZG2O4k+nxqknACyIrSBiPcDfmqHvDxBPUXGQBBD0rEzjSFzYajf94/AP25kXcF53qtVWiw0aYadsUw5l11vEyYyU1xzYjVmueuBPDXWOE7sUc0ZerduINjfMMYaQL3FINQ+7ItMrw+ehaGszGK2jGVlWt/gGJOBeJQFqnzEkxQBE10klWh0bDGDzBJdkbHmk7ERQTtfZRA0HGNOo3EkNUesewQIQ1GFOlfWVUowpGX0uOuKzYrdyazXV1wW8Nd0/YgHHdhg0IUUy7oCqx8yUMGYnI0e08c1nBk95XxL2H1sdQf9buWzm67M41NfPmA1s9bqVysxi8W1DN+0mSSVyLxbP1xF4lIgVnZvsI7LMGgh1r9tf1sY7Xyjhk7rLXGhfeC+2qd93y1TUuZRzbiKD6r1vm4kqNRWmaVhDYzn/YF/nqjMpCCfZffWo08cxHqKEsnsncXXpMVahvDMPqTc86hzHRkB4VXAouLgSNi22bROJGz99QXKQUbgKr/uoUODsW0g2EpiQHkR6zJLfXDrpBnRvpTxlgj5nxrtllmUNdoiSTHa328yS1rkiS/qqoh3DQ320T0RSmIWbda4p6PSjslpOlQboSzUhd6Sji/NCpMlZGclXxV+umly6l9qptHiGptdvlqEbg3z9dcZ2zHLfw94xqQllQEjeJ6VguMpUgFHskBRHwuGgqfEicIDZvF3NLNCu0WJf9AMKkNmCahsnetZFDs1RCovwC4X0A+hbE31qqucgCVXn+027oGYr/Dut+ogOR0yCyQCBpIuuFjCLOa+7qj9XRd8ybChlfL2x54ITGAGTseIynjHz+00KvNqFgFIea5RZ7JMS2HDwoE9sTBLKpvtP62katZnbWNhsJ+GxiBL7MvrRQuslXejb2WsRV3j5wb7PbNgzgZl2ysuYwJ1Ii6HULam+m1nu4o7GvW9CLivnpZaSOyQetHOLC//CSNOHJHgkqchjB5fDKV5vBBw/J+H7MYSxEYyknj7s3Vi9uMvZPdmMm7rKCuOgkGljgyyZxHNZvvMIjKYUa8HOnbKLpKFW1MahBJ9A2HLXO9lvEURg58Z75ZZcBFC+aUGvuXGfFOzuHwBJZqKcdjsvGWoNZDYvP96vsRI9Fn0DSYlhwI3IoRSjyqLdMMpMouOzS/YiQCA/sb9JA3aOzeJU3/+D8SyIfTVl0kIZ+V6BdnF/e5k3NZRI7Mk4JlMu1zFsHSR03qqPgSAxQXwQWJux965ICZoB5Vj3KQZN2DUl3mxHEB3leHPMks/vfJgab2bDguYufSl/WA30Fao874yG0dxiQbngIULZyt4SXnpLzAxo61Wg7BE4swiEtIf9vNmTU0zYJZFupFgAfPiRKY9XRwDaLibWTen9+iBDabmCdj/xEPw3U7o6ghkANUQwlUUszjC7Hy+O+l3y2AuA8E4NTRK8EYvNq1WJlUcgM1yUPSRDMDr3atGQjfPZw96NU9zLtSXeb0c5lb+YGZlZvmDSKhKBIjAcRAgsxynlsyECOwHATLLfmrBSIjAcRAgsxynlsyECOwHATLLfmrBSIjAcRAgsxynlsyECOwHATLLfmrBSIjAcRAgsxynlsyECOwHATLLfmrBSIjAcRAgsxynlsyECOwHATLLfmrBSIjAcRAgsxynlsyECOwHATLLfmrBSIjAcRAgsxynlsyECOwHATLLfmrBSIjAcRAgsxynlsyECOwHATLLfmrBSIjAcRAgsxynlsyECOwHATLLfmrBSIjAcRAgsxynlsyECOwHATLLfmrBSIjAcRAgsxynlsyECOwHATLLfmrBSIjAcRAgsxynlsyECOwHATLLfmrBSIjAcRBYjVngK3z+ScAhTPjlOvsOX/d7ekMLR7qRvhK5WWLxvdcfchkf/et+TbH/Eb8mFvyWa9ySryx2bYYIR38bgXWYRdaGfYR0SceITP48pXLNe0r623D9iP8jMovQSv2KaPeLn+UjpNYzA1gLNzVdUT8vS2YZgLaX6VWYRToAKv2YXnwfVxOfM0v5EHI2YqcZ5yBpx+nhH2O+PeBru9h/sVvaJ3LbbwnDN5Vrp4qzaPTHdJnu8oF0nPSagYrH5t9XFp3h+UsJtOQVMolZPDuAtMAlYvqbvuBTxBCAfHbefo6k6t7lC/b6q4CEpOEWMxFY+jp1OGrK7bDAQKyZZf2OvRWiyHzfP67T7QqAg64NH7fLdEM7lvVtyv1mCvy7JwRWYZacUHePyiLvmAV7F0ihbHSlxcu4ti/I6KfarY/FThmLx0QcZf2g4hNWuHJTrCWMXmml3oIxriUcg2qKAWTCL0zi9+dF0YimjOuJD6FeoKvUY8SBT0OiC/N1jODgGFJaMsQgVf7783r9/E5ozO18TZIjJiXcfX+IJLbHXJMzu0BgfWaJdTJOULoqr1tdMHWXa+9Ka+qt1KOp111FBsEgz2hN1PVF5YMaqp+2xr2bez3WfzPfyd2Nm7NbZT1DTDLys8azHIIUpZQUJqLHAVVZpotrMnJPSMrCvV20Ou18J6c3U0rQRu4mK+fBR8kOK2W39a8cau6/oHzp7rg6SYwXfxOBlZlFmjKOwcPEZKm0Pz88a2d37/YXlXhxZrFVYa5FpViOdeKPQr0wytY97N20yMWJ84XYLz9kB4vjCQ9ukVs5T1nMdR3G7UtZ4ZqdL8LISPI2Mlqm22eWNlkHMx6v3Hvk8x9GlqDidavsOUMyDJZDjVz3+boNODQ52g0CazLLQlpBIhAcZKnY2z7FBRsxAfVHzOLr07nAZ5KTEsLoSX62HsJasaIg9F61pOCTR8t3uGCS0zGzdBkt6f5XZilhaoGE7/IxM+Xw+sIJojzjqHAODPR/3a9OZK4I9/k0lMDY68VazKI7tjfEu2ylq7BNpYHiQeBVz/nrgNiuxZkbbHWxNcva/pzicQnvppiHi7zdRft8EecjsDq0aczS1bLsHNs+syzT7TNLq2vxQOzD40OWsatRFYx28VgWZ9WiLbrtz94BVftDJM0///59BNZhFukYb/0FSTkRuKz2nDeQtI69hYWTRVrGsh58lwaDqIvj+uyQ914xEhwXRPOid1EFxqFbTmGei6eoicSjYriIlSxGXFGMd14/95mlPDi80+0zS9aNGCIAePkS6bwcRXbliOHVdK2WffwGDhDVmEfjMcvRrhBYg1mk19tfWfOj7gEicDR0lfrCQ5vOWYuYpf7bQQmoaWjxC4cj9S1taj/fP1/3bglVleDkhRuyU56nVwZdmWCWcviyaDz4BOOIWZboIrPoOIhM1nD5OT3ld0NehWSkyQ8uoYKeCNyGDQNnmzGZpQHk/3O5BrP8f7JlpESACGyDAJllG5zphQicCwEyy7nqzWyJwDYIkFm2wZleiMC5ECCznKvezJYIbIMAmWUbnOmFCJwLATLLuerNbInANgiQWbbBmV6IwLkQILOcq97MlghsgwCZZRuc6YUInAsBMsu56s1sicA2CJBZtsGZXojAuRAgs5yr3syWCGyDAJllG5zphQicCwEyy7nqzWyJwDYIkFm2wZleiMC5ECCznKvezJYIbIMAmWUbnOmFCJwLATLLuerNbInANgiQWbbBmV6IwLkQILOcq97MlghsgwCZZRuc6YUInAsBMsu56s1sicA2CJBZtsGZXojAuRAgs5yr3syWCGyDwL+NJDhkGVVXHQAAAABJRU5ErkJggg==;" vertex="1" parent="c4hBEOBirp2lQ6MX5P5y-1">
          <mxGeometry x="80" y="34" width="371" height="82" as="geometry" />
        </mxCell>
        <mxCell id="c4hBEOBirp2lQ6MX5P5y-24" value="41 mod 5 = 1" style="text;html=1;align=center;verticalAlign=middle;whiteSpace=wrap;rounded=0;fontSize=18;" vertex="1" parent="c4hBEOBirp2lQ6MX5P5y-1">
          <mxGeometry x="105" y="340" width="120" height="30" as="geometry" />
        </mxCell>
        <mxCell id="c4hBEOBirp2lQ6MX5P5y-25" style="edgeStyle=orthogonalEdgeStyle;rounded=0;orthogonalLoop=1;jettySize=auto;html=1;entryX=0;entryY=0.5;entryDx=0;entryDy=0;" edge="1" parent="c4hBEOBirp2lQ6MX5P5y-1" source="c4hBEOBirp2lQ6MX5P5y-26" target="c4hBEOBirp2lQ6MX5P5y-27">
          <mxGeometry relative="1" as="geometry" />
        </mxCell>
        <mxCell id="c4hBEOBirp2lQ6MX5P5y-26" value="18" style="rounded=0;whiteSpace=wrap;html=1;fontSize=18;" vertex="1" parent="c4hBEOBirp2lQ6MX5P5y-1">
          <mxGeometry x="360" y="560" width="80" height="50" as="geometry" />
        </mxCell>
        <mxCell id="c4hBEOBirp2lQ6MX5P5y-27" value="8" style="rounded=0;whiteSpace=wrap;html=1;fontSize=18;shadow=0;glass=0;" vertex="1" parent="c4hBEOBirp2lQ6MX5P5y-1">
          <mxGeometry x="480" y="560" width="80" height="50" as="geometry" />
        </mxCell>
        <mxCell id="c4hBEOBirp2lQ6MX5P5y-28" style="edgeStyle=orthogonalEdgeStyle;rounded=0;orthogonalLoop=1;jettySize=auto;html=1;entryX=0;entryY=0.5;entryDx=0;entryDy=0;" edge="1" parent="c4hBEOBirp2lQ6MX5P5y-1" source="c4hBEOBirp2lQ6MX5P5y-29" target="c4hBEOBirp2lQ6MX5P5y-32">
          <mxGeometry relative="1" as="geometry" />
        </mxCell>
        <mxCell id="c4hBEOBirp2lQ6MX5P5y-29" value="6" style="rounded=0;whiteSpace=wrap;html=1;fontSize=18;" vertex="1" parent="c4hBEOBirp2lQ6MX5P5y-1">
          <mxGeometry x="360" y="460" width="80" height="50" as="geometry" />
        </mxCell>
        <mxCell id="c4hBEOBirp2lQ6MX5P5y-30" value="50" style="rounded=0;whiteSpace=wrap;html=1;fontSize=18;" vertex="1" parent="c4hBEOBirp2lQ6MX5P5y-1">
          <mxGeometry x="360" y="410" width="80" height="50" as="geometry" />
        </mxCell>
        <mxCell id="c4hBEOBirp2lQ6MX5P5y-31" value="4" style="rounded=0;whiteSpace=wrap;html=1;fontSize=18;" vertex="1" parent="c4hBEOBirp2lQ6MX5P5y-1">
          <mxGeometry x="360" y="610" width="80" height="50" as="geometry" />
        </mxCell>
        <mxCell id="c4hBEOBirp2lQ6MX5P5y-32" value="41" style="rounded=0;whiteSpace=wrap;html=1;fontSize=18;" vertex="1" parent="c4hBEOBirp2lQ6MX5P5y-1">
          <mxGeometry x="480" y="460" width="80" height="50" as="geometry" />
        </mxCell>
        <mxCell id="c4hBEOBirp2lQ6MX5P5y-33" value="" style="endArrow=classic;html=1;rounded=0;entryX=0.25;entryY=1;entryDx=0;entryDy=0;" edge="1" parent="c4hBEOBirp2lQ6MX5P5y-1" target="c4hBEOBirp2lQ6MX5P5y-10">
          <mxGeometry width="50" height="50" relative="1" as="geometry">
            <mxPoint x="220" y="750" as="sourcePoint" />
            <mxPoint x="220" y="680" as="targetPoint" />
          </mxGeometry>
        </mxCell>
        <mxCell id="c4hBEOBirp2lQ6MX5P5y-34" value="AUX" style="text;html=1;align=center;verticalAlign=middle;whiteSpace=wrap;rounded=0;fontSize=18;" vertex="1" parent="c4hBEOBirp2lQ6MX5P5y-1">
          <mxGeometry x="190" y="750" width="60" height="30" as="geometry" />
        </mxCell>
      </root>
    </mxGraphModel>
  </diagram>
  <diagram name="TabelaHash2.2" id="rKv6fPDMWt_S3kT7-F9Y">
    <mxGraphModel dx="1434" dy="746" grid="1" gridSize="10" guides="1" tooltips="1" connect="1" arrows="1" fold="1" page="1" pageScale="1" pageWidth="827" pageHeight="1169" background="none" math="0" shadow="0">
      <root>
        <mxCell id="ogvHpx1IwPGcVOF94QNU-0" />
        <mxCell id="ogvHpx1IwPGcVOF94QNU-1" parent="ogvHpx1IwPGcVOF94QNU-0" />
        <mxCell id="ogvHpx1IwPGcVOF94QNU-2" style="edgeStyle=orthogonalEdgeStyle;rounded=0;orthogonalLoop=1;jettySize=auto;html=1;entryX=0;entryY=0.5;entryDx=0;entryDy=0;" edge="1" parent="ogvHpx1IwPGcVOF94QNU-1" source="ogvHpx1IwPGcVOF94QNU-3" target="ogvHpx1IwPGcVOF94QNU-30">
          <mxGeometry relative="1" as="geometry" />
        </mxCell>
        <mxCell id="ogvHpx1IwPGcVOF94QNU-3" value="5" style="rounded=0;whiteSpace=wrap;html=1;fontSize=18;" vertex="1" parent="ogvHpx1IwPGcVOF94QNU-1">
          <mxGeometry x="170" y="410" width="150" height="50" as="geometry" />
        </mxCell>
        <mxCell id="ogvHpx1IwPGcVOF94QNU-4" style="edgeStyle=orthogonalEdgeStyle;rounded=0;orthogonalLoop=1;jettySize=auto;html=1;entryX=0;entryY=0.5;entryDx=0;entryDy=0;" edge="1" parent="ogvHpx1IwPGcVOF94QNU-1" source="ogvHpx1IwPGcVOF94QNU-5" target="ogvHpx1IwPGcVOF94QNU-29">
          <mxGeometry relative="1" as="geometry" />
        </mxCell>
        <mxCell id="ogvHpx1IwPGcVOF94QNU-5" value="11" style="rounded=0;whiteSpace=wrap;html=1;fontSize=18;" vertex="1" parent="ogvHpx1IwPGcVOF94QNU-1">
          <mxGeometry x="170" y="460" width="150" height="50" as="geometry" />
        </mxCell>
        <mxCell id="ogvHpx1IwPGcVOF94QNU-6" value="" style="rounded=0;whiteSpace=wrap;html=1;fontSize=18;" vertex="1" parent="ogvHpx1IwPGcVOF94QNU-1">
          <mxGeometry x="170" y="510" width="150" height="50" as="geometry" />
        </mxCell>
        <mxCell id="ogvHpx1IwPGcVOF94QNU-7" style="edgeStyle=orthogonalEdgeStyle;rounded=0;orthogonalLoop=1;jettySize=auto;html=1;entryX=0;entryY=0.5;entryDx=0;entryDy=0;" edge="1" parent="ogvHpx1IwPGcVOF94QNU-1" source="ogvHpx1IwPGcVOF94QNU-8" target="ogvHpx1IwPGcVOF94QNU-26">
          <mxGeometry relative="1" as="geometry">
            <mxPoint x="370" y="585" as="targetPoint" />
          </mxGeometry>
        </mxCell>
        <mxCell id="ogvHpx1IwPGcVOF94QNU-8" value="28" style="rounded=0;whiteSpace=wrap;html=1;fontSize=18;" vertex="1" parent="ogvHpx1IwPGcVOF94QNU-1">
          <mxGeometry x="170" y="560" width="150" height="50" as="geometry" />
        </mxCell>
        <mxCell id="ogvHpx1IwPGcVOF94QNU-9" style="edgeStyle=orthogonalEdgeStyle;rounded=0;orthogonalLoop=1;jettySize=auto;html=1;entryX=0;entryY=0.5;entryDx=0;entryDy=0;" edge="1" parent="ogvHpx1IwPGcVOF94QNU-1" source="ogvHpx1IwPGcVOF94QNU-10" target="ogvHpx1IwPGcVOF94QNU-31">
          <mxGeometry relative="1" as="geometry" />
        </mxCell>
        <mxCell id="ogvHpx1IwPGcVOF94QNU-10" value="34" style="rounded=0;whiteSpace=wrap;html=1;fontSize=18;" vertex="1" parent="ogvHpx1IwPGcVOF94QNU-1">
          <mxGeometry x="170" y="610" width="150" height="50" as="geometry" />
        </mxCell>
        <mxCell id="ogvHpx1IwPGcVOF94QNU-11" style="edgeStyle=orthogonalEdgeStyle;rounded=0;orthogonalLoop=1;jettySize=auto;html=1;entryX=0;entryY=0.5;entryDx=0;entryDy=0;" edge="1" parent="ogvHpx1IwPGcVOF94QNU-1" source="ogvHpx1IwPGcVOF94QNU-12" target="ogvHpx1IwPGcVOF94QNU-3">
          <mxGeometry relative="1" as="geometry" />
        </mxCell>
        <mxCell id="ogvHpx1IwPGcVOF94QNU-12" value="0" style="text;html=1;align=center;verticalAlign=middle;whiteSpace=wrap;rounded=0;fontSize=18;" vertex="1" parent="ogvHpx1IwPGcVOF94QNU-1">
          <mxGeometry x="60" y="420" width="60" height="30" as="geometry" />
        </mxCell>
        <mxCell id="ogvHpx1IwPGcVOF94QNU-13" style="edgeStyle=orthogonalEdgeStyle;rounded=0;orthogonalLoop=1;jettySize=auto;html=1;entryX=0;entryY=0.5;entryDx=0;entryDy=0;" edge="1" parent="ogvHpx1IwPGcVOF94QNU-1" source="ogvHpx1IwPGcVOF94QNU-14" target="ogvHpx1IwPGcVOF94QNU-5">
          <mxGeometry relative="1" as="geometry" />
        </mxCell>
        <mxCell id="ogvHpx1IwPGcVOF94QNU-14" value="1" style="text;html=1;align=center;verticalAlign=middle;whiteSpace=wrap;rounded=0;fontSize=18;" vertex="1" parent="ogvHpx1IwPGcVOF94QNU-1">
          <mxGeometry x="60" y="470" width="60" height="30" as="geometry" />
        </mxCell>
        <mxCell id="ogvHpx1IwPGcVOF94QNU-15" style="edgeStyle=orthogonalEdgeStyle;rounded=0;orthogonalLoop=1;jettySize=auto;html=1;entryX=0;entryY=0.5;entryDx=0;entryDy=0;" edge="1" parent="ogvHpx1IwPGcVOF94QNU-1" source="ogvHpx1IwPGcVOF94QNU-16" target="ogvHpx1IwPGcVOF94QNU-6">
          <mxGeometry relative="1" as="geometry" />
        </mxCell>
        <mxCell id="ogvHpx1IwPGcVOF94QNU-16" value="2" style="text;html=1;align=center;verticalAlign=middle;whiteSpace=wrap;rounded=0;fontSize=18;" vertex="1" parent="ogvHpx1IwPGcVOF94QNU-1">
          <mxGeometry x="60" y="520" width="60" height="30" as="geometry" />
        </mxCell>
        <mxCell id="ogvHpx1IwPGcVOF94QNU-17" style="edgeStyle=orthogonalEdgeStyle;rounded=0;orthogonalLoop=1;jettySize=auto;html=1;entryX=0;entryY=0.5;entryDx=0;entryDy=0;" edge="1" parent="ogvHpx1IwPGcVOF94QNU-1" source="ogvHpx1IwPGcVOF94QNU-18" target="ogvHpx1IwPGcVOF94QNU-8">
          <mxGeometry relative="1" as="geometry" />
        </mxCell>
        <mxCell id="ogvHpx1IwPGcVOF94QNU-18" value="3" style="text;html=1;align=center;verticalAlign=middle;whiteSpace=wrap;rounded=0;fontSize=18;" vertex="1" parent="ogvHpx1IwPGcVOF94QNU-1">
          <mxGeometry x="60" y="570" width="60" height="30" as="geometry" />
        </mxCell>
        <mxCell id="ogvHpx1IwPGcVOF94QNU-19" style="edgeStyle=orthogonalEdgeStyle;rounded=0;orthogonalLoop=1;jettySize=auto;html=1;entryX=0.413;entryY=1;entryDx=0;entryDy=0;entryPerimeter=0;" edge="1" parent="ogvHpx1IwPGcVOF94QNU-1" source="ogvHpx1IwPGcVOF94QNU-20" target="ogvHpx1IwPGcVOF94QNU-31">
          <mxGeometry relative="1" as="geometry">
            <mxPoint x="380" y="690" as="targetPoint" />
            <Array as="points">
              <mxPoint x="90" y="690" />
              <mxPoint x="393" y="690" />
            </Array>
          </mxGeometry>
        </mxCell>
        <mxCell id="ogvHpx1IwPGcVOF94QNU-20" value="4" style="text;html=1;align=center;verticalAlign=middle;whiteSpace=wrap;rounded=0;fontSize=18;" vertex="1" parent="ogvHpx1IwPGcVOF94QNU-1">
          <mxGeometry x="60" y="620" width="60" height="30" as="geometry" />
        </mxCell>
        <mxCell id="ogvHpx1IwPGcVOF94QNU-21" value="CAPACIDADE: 5" style="text;html=1;align=center;verticalAlign=middle;whiteSpace=wrap;rounded=0;fontSize=18;" vertex="1" parent="ogvHpx1IwPGcVOF94QNU-1">
          <mxGeometry x="80" y="260" width="160" height="30" as="geometry" />
        </mxCell>
        <mxCell id="ogvHpx1IwPGcVOF94QNU-22" value="h(k): k mod m" style="text;html=1;align=center;verticalAlign=middle;whiteSpace=wrap;rounded=0;fontSize=18;" vertex="1" parent="ogvHpx1IwPGcVOF94QNU-1">
          <mxGeometry x="80" y="300" width="170" height="30" as="geometry" />
        </mxCell>
        <mxCell id="ogvHpx1IwPGcVOF94QNU-23" value="" style="shape=image;verticalLabelPosition=bottom;labelBackgroundColor=default;verticalAlign=top;aspect=fixed;imageAspect=0;image=data:image/png,iVBORw0KGgoAAAANSUhEUgAAAXMAAABSCAIAAAApX6PiAAAM00lEQVR4Ae1d7Y3jOAy9nlLNpBUjxQxSyQCpZIGpIwdSIvkoS4lv1+P12S9/Rpb5+Ug9yd4F/M+TPyJABIjA2gj8s7ZB2iMCRIAIPMksbAIiQATWR4DMsj6mtEgEiACZhT1ABIjA+giQWdbHlBaJABEgs7AHiAARWB8BMsv6mNIiESACZBb2ABEgAusjQGZZH1NaJAJEgMzCHiACRGB9BMgs62NKi0SACKzMLN+f18vt8RZWEfu4f7+V+12Bn7bfj+vX/Xq53n/1b/7Y7Pf94zJ9rWz+cbvYb8JyCrD1N870azKZpGshSsDXz5fF/5o67dGdNKP170xmScCQ7OUyqqAU1zIfBv/wzDvxlxADHLEGOIQuTDbp1csl7T2QeUyjBPuufn92TWapVdwBs/w+Hn+ieRRmkZVmvJ8aVFaFEYqMe8QBMknXgC1N8mrxlLVnAVS97qTZHMpAME8Z9wJ+Pqb+PFqXZW8xy7hH5cKYvq0Khr2F8LgNdd/Zt3gKxzX42M36ty9TyMsq2KisfbkSs1RGn6YBoE3Y2HOP2+X6eXeyj5pVmw21P7VF6u7hwt+fVzcyfT3D/q/79eN+LzvwvNKlX9UDnDVi9+g2h+bSk5GAvWzaZyXMaALdMb5s95N5t+OKz+dzrPsZOOlRIiStL2MGgy/rWcMJR4FSKo+E5MA+JcKqkuVjHrXTikqAqJSUY5qGZ5aCxnW64ZG2O4k+nxqknACyIrSBiPcDfmqHvDxBPUXGQBBD0rEzjSFzYajf94/AP25kXcF53qtVWiw0aYadsUw5l11vEyYyU1xzYjVmueuBPDXWOE7sUc0ZerduINjfMMYaQL3FINQ+7ItMrw+ehaGszGK2jGVlWt/gGJOBeJQFqnzEkxQBE10klWh0bDGDzBJdkbHmk7ERQTtfZRA0HGNOo3EkNUesewQIQ1GFOlfWVUowpGX0uOuKzYrdyazXV1wW8Nd0/YgHHdhg0IUUy7oCqx8yUMGYnI0e08c1nBk95XxL2H1sdQf9buWzm67M41NfPmA1s9bqVysxi8W1DN+0mSSVyLxbP1xF4lIgVnZvsI7LMGgh1r9tf1sY7Xyjhk7rLXGhfeC+2qd93y1TUuZRzbiKD6r1vm4kqNRWmaVhDYzn/YF/nqjMpCCfZffWo08cxHqKEsnsncXXpMVahvDMPqTc86hzHRkB4VXAouLgSNi22bROJGz99QXKQUbgKr/uoUODsW0g2EpiQHkR6zJLfXDrpBnRvpTxlgj5nxrtllmUNdoiSTHa328yS1rkiS/qqoh3DQ320T0RSmIWbda4p6PSjslpOlQboSzUhd6Sji/NCpMlZGclXxV+umly6l9qptHiGptdvlqEbg3z9dcZ2zHLfw94xqQllQEjeJ6VguMpUgFHskBRHwuGgqfEicIDZvF3NLNCu0WJf9AMKkNmCahsnetZFDs1RCovwC4X0A+hbE31qqucgCVXn+027oGYr/Dut+ogOR0yCyQCBpIuuFjCLOa+7qj9XRd8ybChlfL2x54ITGAGTseIynjHz+00KvNqFgFIea5RZ7JMS2HDwoE9sTBLKpvtP62katZnbWNhsJ+GxiBL7MvrRQuslXejb2WsRV3j5wb7PbNgzgZl2ysuYwJ1Ii6HULam+m1nu4o7GvW9CLivnpZaSOyQetHOLC//CSNOHJHgkqchjB5fDKV5vBBw/J+H7MYSxEYyknj7s3Vi9uMvZPdmMm7rKCuOgkGljgyyZxHNZvvMIjKYUa8HOnbKLpKFW1MahBJ9A2HLXO9lvEURg58Z75ZZcBFC+aUGvuXGfFOzuHwBJZqKcdjsvGWoNZDYvP96vsRI9Fn0DSYlhwI3IoRSjyqLdMMpMouOzS/YiQCA/sb9JA3aOzeJU3/+D8SyIfTVl0kIZ+V6BdnF/e5k3NZRI7Mk4JlMu1zFsHSR03qqPgSAxQXwQWJux965ICZoB5Vj3KQZN2DUl3mxHEB3leHPMks/vfJgab2bDguYufSl/WA30Fao874yG0dxiQbngIULZyt4SXnpLzAxo61Wg7BE4swiEtIf9vNmTU0zYJZFupFgAfPiRKY9XRwDaLibWTen9+iBDabmCdj/xEPw3U7o6ghkANUQwlUUszjC7Hy+O+l3y2AuA8E4NTRK8EYvNq1WJlUcgM1yUPSRDMDr3atGQjfPZw96NU9zLtSXeb0c5lb+YGZlZvmDSKhKBIjAcRAgsxynlsyECOwHATLLfmrBSIjAcRAgsxynlsyECOwHATLLfmrBSIjAcRAgsxynlsyECOwHATLLfmrBSIjAcRAgsxynlsyECOwHATLLfmrBSIjAcRAgsxynlsyECOwHATLLfmrBSIjAcRAgsxynlsyECOwHATLLfmrBSIjAcRAgsxynlsyECOwHATLLfmrBSIjAcRAgsxynlsyECOwHATLLfmrBSIjAcRAgsxynlsyECOwHATLLfmrBSIjAcRAgsxynlsyECOwHATLLfmrBSIjAcRAgsxynlsyECOwHATLLfmrBSIjAcRAgsxynlsyECOwHATLLfmrBSIjAcRBYjVngK3z+ScAhTPjlOvsOX/d7ekMLR7qRvhK5WWLxvdcfchkf/et+TbH/Eb8mFvyWa9ySryx2bYYIR38bgXWYRdaGfYR0SceITP48pXLNe0r623D9iP8jMovQSv2KaPeLn+UjpNYzA1gLNzVdUT8vS2YZgLaX6VWYRToAKv2YXnwfVxOfM0v5EHI2YqcZ5yBpx+nhH2O+PeBru9h/sVvaJ3LbbwnDN5Vrp4qzaPTHdJnu8oF0nPSagYrH5t9XFp3h+UsJtOQVMolZPDuAtMAlYvqbvuBTxBCAfHbefo6k6t7lC/b6q4CEpOEWMxFY+jp1OGrK7bDAQKyZZf2OvRWiyHzfP67T7QqAg64NH7fLdEM7lvVtyv1mCvy7JwRWYZacUHePyiLvmAV7F0ihbHSlxcu4ti/I6KfarY/FThmLx0QcZf2g4hNWuHJTrCWMXmml3oIxriUcg2qKAWTCL0zi9+dF0YimjOuJD6FeoKvUY8SBT0OiC/N1jODgGFJaMsQgVf7783r9/E5ozO18TZIjJiXcfX+IJLbHXJMzu0BgfWaJdTJOULoqr1tdMHWXa+9Ka+qt1KOp111FBsEgz2hN1PVF5YMaqp+2xr2bez3WfzPfyd2Nm7NbZT1DTDLys8azHIIUpZQUJqLHAVVZpotrMnJPSMrCvV20Ou18J6c3U0rQRu4mK+fBR8kOK2W39a8cau6/oHzp7rg6SYwXfxOBlZlFmjKOwcPEZKm0Pz88a2d37/YXlXhxZrFVYa5FpViOdeKPQr0wytY97N20yMWJ84XYLz9kB4vjCQ9ukVs5T1nMdR3G7UtZ4ZqdL8LISPI2Mlqm22eWNlkHMx6v3Hvk8x9GlqDidavsOUMyDJZDjVz3+boNODQ52g0CazLLQlpBIhAcZKnY2z7FBRsxAfVHzOLr07nAZ5KTEsLoSX62HsJasaIg9F61pOCTR8t3uGCS0zGzdBkt6f5XZilhaoGE7/IxM+Xw+sIJojzjqHAODPR/3a9OZK4I9/k0lMDY68VazKI7tjfEu2ylq7BNpYHiQeBVz/nrgNiuxZkbbHWxNcva/pzicQnvppiHi7zdRft8EecjsDq0aczS1bLsHNs+syzT7TNLq2vxQOzD40OWsatRFYx28VgWZ9WiLbrtz94BVftDJM0///59BNZhFukYb/0FSTkRuKz2nDeQtI69hYWTRVrGsh58lwaDqIvj+uyQ914xEhwXRPOid1EFxqFbTmGei6eoicSjYriIlSxGXFGMd14/95mlPDi80+0zS9aNGCIAePkS6bwcRXbliOHVdK2WffwGDhDVmEfjMcvRrhBYg1mk19tfWfOj7gEicDR0lfrCQ5vOWYuYpf7bQQmoaWjxC4cj9S1taj/fP1/3bglVleDkhRuyU56nVwZdmWCWcviyaDz4BOOIWZboIrPoOIhM1nD5OT3ld0NehWSkyQ8uoYKeCNyGDQNnmzGZpQHk/3O5BrP8f7JlpESACGyDAJllG5zphQicCwEyy7nqzWyJwDYIkFm2wZleiMC5ECCznKvezJYIbIMAmWUbnOmFCJwLATLLuerNbInANgiQWbbBmV6IwLkQILOcq97MlghsgwCZZRuc6YUInAsBMsu56s1sicA2CJBZtsGZXojAuRAgs5yr3syWCGyDAJllG5zphQicCwEyy7nqzWyJwDYIkFm2wZleiMC5ECCznKvezJYIbIMAmWUbnOmFCJwLATLLuerNbInANgiQWbbBmV6IwLkQILOcq97MlghsgwCZZRuc6YUInAsBMsu56s1sicA2CJBZtsGZXojAuRAgs5yr3syWCGyDwL+NJDhkGVVXHQAAAABJRU5ErkJggg==;" vertex="1" parent="ogvHpx1IwPGcVOF94QNU-1">
          <mxGeometry x="80" y="34" width="371" height="82" as="geometry" />
        </mxCell>
        <mxCell id="ogvHpx1IwPGcVOF94QNU-24" value="41 mod 5 = 1" style="text;html=1;align=center;verticalAlign=middle;whiteSpace=wrap;rounded=0;fontSize=18;" vertex="1" parent="ogvHpx1IwPGcVOF94QNU-1">
          <mxGeometry x="105" y="340" width="120" height="30" as="geometry" />
        </mxCell>
        <mxCell id="ogvHpx1IwPGcVOF94QNU-25" style="edgeStyle=orthogonalEdgeStyle;rounded=0;orthogonalLoop=1;jettySize=auto;html=1;entryX=0;entryY=0.5;entryDx=0;entryDy=0;" edge="1" parent="ogvHpx1IwPGcVOF94QNU-1" source="ogvHpx1IwPGcVOF94QNU-26" target="ogvHpx1IwPGcVOF94QNU-27">
          <mxGeometry relative="1" as="geometry" />
        </mxCell>
        <mxCell id="ogvHpx1IwPGcVOF94QNU-26" value="18" style="rounded=0;whiteSpace=wrap;html=1;fontSize=18;" vertex="1" parent="ogvHpx1IwPGcVOF94QNU-1">
          <mxGeometry x="360" y="560" width="80" height="50" as="geometry" />
        </mxCell>
        <mxCell id="ogvHpx1IwPGcVOF94QNU-27" value="8" style="rounded=0;whiteSpace=wrap;html=1;fontSize=18;shadow=0;glass=0;" vertex="1" parent="ogvHpx1IwPGcVOF94QNU-1">
          <mxGeometry x="480" y="560" width="80" height="50" as="geometry" />
        </mxCell>
        <mxCell id="ogvHpx1IwPGcVOF94QNU-28" style="edgeStyle=orthogonalEdgeStyle;rounded=0;orthogonalLoop=1;jettySize=auto;html=1;entryX=0;entryY=0.5;entryDx=0;entryDy=0;" edge="1" parent="ogvHpx1IwPGcVOF94QNU-1" source="ogvHpx1IwPGcVOF94QNU-29" target="ogvHpx1IwPGcVOF94QNU-32">
          <mxGeometry relative="1" as="geometry" />
        </mxCell>
        <mxCell id="ogvHpx1IwPGcVOF94QNU-29" value="6" style="rounded=0;whiteSpace=wrap;html=1;fontSize=18;" vertex="1" parent="ogvHpx1IwPGcVOF94QNU-1">
          <mxGeometry x="360" y="460" width="80" height="50" as="geometry" />
        </mxCell>
        <mxCell id="ogvHpx1IwPGcVOF94QNU-30" value="50" style="rounded=0;whiteSpace=wrap;html=1;fontSize=18;" vertex="1" parent="ogvHpx1IwPGcVOF94QNU-1">
          <mxGeometry x="360" y="410" width="80" height="50" as="geometry" />
        </mxCell>
        <mxCell id="ogvHpx1IwPGcVOF94QNU-31" value="4" style="rounded=0;whiteSpace=wrap;html=1;fontSize=18;" vertex="1" parent="ogvHpx1IwPGcVOF94QNU-1">
          <mxGeometry x="360" y="610" width="80" height="50" as="geometry" />
        </mxCell>
        <mxCell id="ogvHpx1IwPGcVOF94QNU-32" value="41" style="rounded=0;whiteSpace=wrap;html=1;fontSize=18;" vertex="1" parent="ogvHpx1IwPGcVOF94QNU-1">
          <mxGeometry x="480" y="460" width="80" height="50" as="geometry" />
        </mxCell>
        <mxCell id="ogvHpx1IwPGcVOF94QNU-33" value="" style="endArrow=classic;html=1;rounded=0;entryX=0.25;entryY=1;entryDx=0;entryDy=0;" edge="1" parent="ogvHpx1IwPGcVOF94QNU-1" target="ogvHpx1IwPGcVOF94QNU-10">
          <mxGeometry width="50" height="50" relative="1" as="geometry">
            <mxPoint x="220" y="750" as="sourcePoint" />
            <mxPoint x="220" y="680" as="targetPoint" />
          </mxGeometry>
        </mxCell>
        <mxCell id="ogvHpx1IwPGcVOF94QNU-34" value="AUX" style="text;html=1;align=center;verticalAlign=middle;whiteSpace=wrap;rounded=0;fontSize=18;" vertex="1" parent="ogvHpx1IwPGcVOF94QNU-1">
          <mxGeometry x="190" y="750" width="60" height="30" as="geometry" />
        </mxCell>
        <mxCell id="VeCQ4oZokHJC5UsVDY0H-0" value="" style="shape=cross;whiteSpace=wrap;html=1;rotation=45;fillColor=#F19C99;strokeColor=#b85450;" vertex="1" parent="ogvHpx1IwPGcVOF94QNU-1">
          <mxGeometry x="212.5" y="603.11" width="65" height="65" as="geometry" />
        </mxCell>
      </root>
    </mxGraphModel>
  </diagram>
  <diagram name="TabelaHash2.3" id="efk2o5Oa2jqD55XzIX0b">
    <mxGraphModel dx="1434" dy="746" grid="1" gridSize="10" guides="1" tooltips="1" connect="1" arrows="1" fold="1" page="1" pageScale="1" pageWidth="827" pageHeight="1169" background="none" math="0" shadow="0">
      <root>
        <mxCell id="wgzBEyNvLthPIAAE-rNx-0" />
        <mxCell id="wgzBEyNvLthPIAAE-rNx-1" parent="wgzBEyNvLthPIAAE-rNx-0" />
        <mxCell id="wgzBEyNvLthPIAAE-rNx-2" style="edgeStyle=orthogonalEdgeStyle;rounded=0;orthogonalLoop=1;jettySize=auto;html=1;entryX=0;entryY=0.5;entryDx=0;entryDy=0;" edge="1" parent="wgzBEyNvLthPIAAE-rNx-1" source="wgzBEyNvLthPIAAE-rNx-3" target="wgzBEyNvLthPIAAE-rNx-30">
          <mxGeometry relative="1" as="geometry" />
        </mxCell>
        <mxCell id="wgzBEyNvLthPIAAE-rNx-3" value="5" style="rounded=0;whiteSpace=wrap;html=1;fontSize=18;" vertex="1" parent="wgzBEyNvLthPIAAE-rNx-1">
          <mxGeometry x="170" y="410" width="150" height="50" as="geometry" />
        </mxCell>
        <mxCell id="wgzBEyNvLthPIAAE-rNx-4" style="edgeStyle=orthogonalEdgeStyle;rounded=0;orthogonalLoop=1;jettySize=auto;html=1;entryX=0;entryY=0.5;entryDx=0;entryDy=0;" edge="1" parent="wgzBEyNvLthPIAAE-rNx-1" source="wgzBEyNvLthPIAAE-rNx-5" target="wgzBEyNvLthPIAAE-rNx-29">
          <mxGeometry relative="1" as="geometry" />
        </mxCell>
        <mxCell id="wgzBEyNvLthPIAAE-rNx-5" value="11" style="rounded=0;whiteSpace=wrap;html=1;fontSize=18;" vertex="1" parent="wgzBEyNvLthPIAAE-rNx-1">
          <mxGeometry x="170" y="460" width="150" height="50" as="geometry" />
        </mxCell>
        <mxCell id="wgzBEyNvLthPIAAE-rNx-6" value="" style="rounded=0;whiteSpace=wrap;html=1;fontSize=18;" vertex="1" parent="wgzBEyNvLthPIAAE-rNx-1">
          <mxGeometry x="170" y="510" width="150" height="50" as="geometry" />
        </mxCell>
        <mxCell id="wgzBEyNvLthPIAAE-rNx-7" style="edgeStyle=orthogonalEdgeStyle;rounded=0;orthogonalLoop=1;jettySize=auto;html=1;entryX=0;entryY=0.5;entryDx=0;entryDy=0;" edge="1" parent="wgzBEyNvLthPIAAE-rNx-1" source="wgzBEyNvLthPIAAE-rNx-8" target="wgzBEyNvLthPIAAE-rNx-26">
          <mxGeometry relative="1" as="geometry">
            <mxPoint x="370" y="585" as="targetPoint" />
          </mxGeometry>
        </mxCell>
        <mxCell id="wgzBEyNvLthPIAAE-rNx-8" value="28" style="rounded=0;whiteSpace=wrap;html=1;fontSize=18;" vertex="1" parent="wgzBEyNvLthPIAAE-rNx-1">
          <mxGeometry x="170" y="560" width="150" height="50" as="geometry" />
        </mxCell>
        <mxCell id="wgzBEyNvLthPIAAE-rNx-11" style="edgeStyle=orthogonalEdgeStyle;rounded=0;orthogonalLoop=1;jettySize=auto;html=1;entryX=0;entryY=0.5;entryDx=0;entryDy=0;" edge="1" parent="wgzBEyNvLthPIAAE-rNx-1" source="wgzBEyNvLthPIAAE-rNx-12" target="wgzBEyNvLthPIAAE-rNx-3">
          <mxGeometry relative="1" as="geometry" />
        </mxCell>
        <mxCell id="wgzBEyNvLthPIAAE-rNx-12" value="0" style="text;html=1;align=center;verticalAlign=middle;whiteSpace=wrap;rounded=0;fontSize=18;" vertex="1" parent="wgzBEyNvLthPIAAE-rNx-1">
          <mxGeometry x="60" y="420" width="60" height="30" as="geometry" />
        </mxCell>
        <mxCell id="wgzBEyNvLthPIAAE-rNx-13" style="edgeStyle=orthogonalEdgeStyle;rounded=0;orthogonalLoop=1;jettySize=auto;html=1;entryX=0;entryY=0.5;entryDx=0;entryDy=0;" edge="1" parent="wgzBEyNvLthPIAAE-rNx-1" source="wgzBEyNvLthPIAAE-rNx-14" target="wgzBEyNvLthPIAAE-rNx-5">
          <mxGeometry relative="1" as="geometry" />
        </mxCell>
        <mxCell id="wgzBEyNvLthPIAAE-rNx-14" value="1" style="text;html=1;align=center;verticalAlign=middle;whiteSpace=wrap;rounded=0;fontSize=18;" vertex="1" parent="wgzBEyNvLthPIAAE-rNx-1">
          <mxGeometry x="60" y="470" width="60" height="30" as="geometry" />
        </mxCell>
        <mxCell id="wgzBEyNvLthPIAAE-rNx-15" style="edgeStyle=orthogonalEdgeStyle;rounded=0;orthogonalLoop=1;jettySize=auto;html=1;entryX=0;entryY=0.5;entryDx=0;entryDy=0;" edge="1" parent="wgzBEyNvLthPIAAE-rNx-1" source="wgzBEyNvLthPIAAE-rNx-16" target="wgzBEyNvLthPIAAE-rNx-6">
          <mxGeometry relative="1" as="geometry" />
        </mxCell>
        <mxCell id="wgzBEyNvLthPIAAE-rNx-16" value="2" style="text;html=1;align=center;verticalAlign=middle;whiteSpace=wrap;rounded=0;fontSize=18;" vertex="1" parent="wgzBEyNvLthPIAAE-rNx-1">
          <mxGeometry x="60" y="520" width="60" height="30" as="geometry" />
        </mxCell>
        <mxCell id="wgzBEyNvLthPIAAE-rNx-17" style="edgeStyle=orthogonalEdgeStyle;rounded=0;orthogonalLoop=1;jettySize=auto;html=1;entryX=0;entryY=0.5;entryDx=0;entryDy=0;" edge="1" parent="wgzBEyNvLthPIAAE-rNx-1" source="wgzBEyNvLthPIAAE-rNx-18" target="wgzBEyNvLthPIAAE-rNx-8">
          <mxGeometry relative="1" as="geometry" />
        </mxCell>
        <mxCell id="wgzBEyNvLthPIAAE-rNx-18" value="3" style="text;html=1;align=center;verticalAlign=middle;whiteSpace=wrap;rounded=0;fontSize=18;" vertex="1" parent="wgzBEyNvLthPIAAE-rNx-1">
          <mxGeometry x="60" y="570" width="60" height="30" as="geometry" />
        </mxCell>
        <mxCell id="xA7tlLBCTcisRn1QGjLY-0" style="edgeStyle=orthogonalEdgeStyle;rounded=0;orthogonalLoop=1;jettySize=auto;html=1;entryX=0;entryY=0.5;entryDx=0;entryDy=0;" edge="1" parent="wgzBEyNvLthPIAAE-rNx-1" source="wgzBEyNvLthPIAAE-rNx-20" target="wgzBEyNvLthPIAAE-rNx-31">
          <mxGeometry relative="1" as="geometry" />
        </mxCell>
        <mxCell id="wgzBEyNvLthPIAAE-rNx-20" value="4" style="text;html=1;align=center;verticalAlign=middle;whiteSpace=wrap;rounded=0;fontSize=18;" vertex="1" parent="wgzBEyNvLthPIAAE-rNx-1">
          <mxGeometry x="60" y="620" width="60" height="30" as="geometry" />
        </mxCell>
        <mxCell id="wgzBEyNvLthPIAAE-rNx-21" value="CAPACIDADE: 5" style="text;html=1;align=center;verticalAlign=middle;whiteSpace=wrap;rounded=0;fontSize=18;" vertex="1" parent="wgzBEyNvLthPIAAE-rNx-1">
          <mxGeometry x="80" y="260" width="160" height="30" as="geometry" />
        </mxCell>
        <mxCell id="wgzBEyNvLthPIAAE-rNx-22" value="h(k): k mod m" style="text;html=1;align=center;verticalAlign=middle;whiteSpace=wrap;rounded=0;fontSize=18;" vertex="1" parent="wgzBEyNvLthPIAAE-rNx-1">
          <mxGeometry x="80" y="300" width="170" height="30" as="geometry" />
        </mxCell>
        <mxCell id="wgzBEyNvLthPIAAE-rNx-23" value="" style="shape=image;verticalLabelPosition=bottom;labelBackgroundColor=default;verticalAlign=top;aspect=fixed;imageAspect=0;image=data:image/png,iVBORw0KGgoAAAANSUhEUgAAAXMAAABSCAIAAAApX6PiAAAM00lEQVR4Ae1d7Y3jOAy9nlLNpBUjxQxSyQCpZIGpIwdSIvkoS4lv1+P12S9/Rpb5+Ug9yd4F/M+TPyJABIjA2gj8s7ZB2iMCRIAIPMksbAIiQATWR4DMsj6mtEgEiACZhT1ABIjA+giQWdbHlBaJABEgs7AHiAARWB8BMsv6mNIiESACZBb2ABEgAusjQGZZH1NaJAJEgMzCHiACRGB9BMgs62NKi0SACKzMLN+f18vt8RZWEfu4f7+V+12Bn7bfj+vX/Xq53n/1b/7Y7Pf94zJ9rWz+cbvYb8JyCrD1N870azKZpGshSsDXz5fF/5o67dGdNKP170xmScCQ7OUyqqAU1zIfBv/wzDvxlxADHLEGOIQuTDbp1csl7T2QeUyjBPuufn92TWapVdwBs/w+Hn+ieRRmkZVmvJ8aVFaFEYqMe8QBMknXgC1N8mrxlLVnAVS97qTZHMpAME8Z9wJ+Pqb+PFqXZW8xy7hH5cKYvq0Khr2F8LgNdd/Zt3gKxzX42M36ty9TyMsq2KisfbkSs1RGn6YBoE3Y2HOP2+X6eXeyj5pVmw21P7VF6u7hwt+fVzcyfT3D/q/79eN+LzvwvNKlX9UDnDVi9+g2h+bSk5GAvWzaZyXMaALdMb5s95N5t+OKz+dzrPsZOOlRIiStL2MGgy/rWcMJR4FSKo+E5MA+JcKqkuVjHrXTikqAqJSUY5qGZ5aCxnW64ZG2O4k+nxqknACyIrSBiPcDfmqHvDxBPUXGQBBD0rEzjSFzYajf94/AP25kXcF53qtVWiw0aYadsUw5l11vEyYyU1xzYjVmueuBPDXWOE7sUc0ZerduINjfMMYaQL3FINQ+7ItMrw+ehaGszGK2jGVlWt/gGJOBeJQFqnzEkxQBE10klWh0bDGDzBJdkbHmk7ERQTtfZRA0HGNOo3EkNUesewQIQ1GFOlfWVUowpGX0uOuKzYrdyazXV1wW8Nd0/YgHHdhg0IUUy7oCqx8yUMGYnI0e08c1nBk95XxL2H1sdQf9buWzm67M41NfPmA1s9bqVysxi8W1DN+0mSSVyLxbP1xF4lIgVnZvsI7LMGgh1r9tf1sY7Xyjhk7rLXGhfeC+2qd93y1TUuZRzbiKD6r1vm4kqNRWmaVhDYzn/YF/nqjMpCCfZffWo08cxHqKEsnsncXXpMVahvDMPqTc86hzHRkB4VXAouLgSNi22bROJGz99QXKQUbgKr/uoUODsW0g2EpiQHkR6zJLfXDrpBnRvpTxlgj5nxrtllmUNdoiSTHa328yS1rkiS/qqoh3DQ320T0RSmIWbda4p6PSjslpOlQboSzUhd6Sji/NCpMlZGclXxV+umly6l9qptHiGptdvlqEbg3z9dcZ2zHLfw94xqQllQEjeJ6VguMpUgFHskBRHwuGgqfEicIDZvF3NLNCu0WJf9AMKkNmCahsnetZFDs1RCovwC4X0A+hbE31qqucgCVXn+027oGYr/Dut+ogOR0yCyQCBpIuuFjCLOa+7qj9XRd8ybChlfL2x54ITGAGTseIynjHz+00KvNqFgFIea5RZ7JMS2HDwoE9sTBLKpvtP62katZnbWNhsJ+GxiBL7MvrRQuslXejb2WsRV3j5wb7PbNgzgZl2ysuYwJ1Ii6HULam+m1nu4o7GvW9CLivnpZaSOyQetHOLC//CSNOHJHgkqchjB5fDKV5vBBw/J+H7MYSxEYyknj7s3Vi9uMvZPdmMm7rKCuOgkGljgyyZxHNZvvMIjKYUa8HOnbKLpKFW1MahBJ9A2HLXO9lvEURg58Z75ZZcBFC+aUGvuXGfFOzuHwBJZqKcdjsvGWoNZDYvP96vsRI9Fn0DSYlhwI3IoRSjyqLdMMpMouOzS/YiQCA/sb9JA3aOzeJU3/+D8SyIfTVl0kIZ+V6BdnF/e5k3NZRI7Mk4JlMu1zFsHSR03qqPgSAxQXwQWJux965ICZoB5Vj3KQZN2DUl3mxHEB3leHPMks/vfJgab2bDguYufSl/WA30Fao874yG0dxiQbngIULZyt4SXnpLzAxo61Wg7BE4swiEtIf9vNmTU0zYJZFupFgAfPiRKY9XRwDaLibWTen9+iBDabmCdj/xEPw3U7o6ghkANUQwlUUszjC7Hy+O+l3y2AuA8E4NTRK8EYvNq1WJlUcgM1yUPSRDMDr3atGQjfPZw96NU9zLtSXeb0c5lb+YGZlZvmDSKhKBIjAcRAgsxynlsyECOwHATLLfmrBSIjAcRAgsxynlsyECOwHATLLfmrBSIjAcRAgsxynlsyECOwHATLLfmrBSIjAcRAgsxynlsyECOwHATLLfmrBSIjAcRAgsxynlsyECOwHATLLfmrBSIjAcRAgsxynlsyECOwHATLLfmrBSIjAcRAgsxynlsyECOwHATLLfmrBSIjAcRAgsxynlsyECOwHATLLfmrBSIjAcRAgsxynlsyECOwHATLLfmrBSIjAcRAgsxynlsyECOwHATLLfmrBSIjAcRAgsxynlsyECOwHATLLfmrBSIjAcRAgsxynlsyECOwHATLLfmrBSIjAcRBYjVngK3z+ScAhTPjlOvsOX/d7ekMLR7qRvhK5WWLxvdcfchkf/et+TbH/Eb8mFvyWa9ySryx2bYYIR38bgXWYRdaGfYR0SceITP48pXLNe0r623D9iP8jMovQSv2KaPeLn+UjpNYzA1gLNzVdUT8vS2YZgLaX6VWYRToAKv2YXnwfVxOfM0v5EHI2YqcZ5yBpx+nhH2O+PeBru9h/sVvaJ3LbbwnDN5Vrp4qzaPTHdJnu8oF0nPSagYrH5t9XFp3h+UsJtOQVMolZPDuAtMAlYvqbvuBTxBCAfHbefo6k6t7lC/b6q4CEpOEWMxFY+jp1OGrK7bDAQKyZZf2OvRWiyHzfP67T7QqAg64NH7fLdEM7lvVtyv1mCvy7JwRWYZacUHePyiLvmAV7F0ihbHSlxcu4ti/I6KfarY/FThmLx0QcZf2g4hNWuHJTrCWMXmml3oIxriUcg2qKAWTCL0zi9+dF0YimjOuJD6FeoKvUY8SBT0OiC/N1jODgGFJaMsQgVf7783r9/E5ozO18TZIjJiXcfX+IJLbHXJMzu0BgfWaJdTJOULoqr1tdMHWXa+9Ka+qt1KOp111FBsEgz2hN1PVF5YMaqp+2xr2bez3WfzPfyd2Nm7NbZT1DTDLys8azHIIUpZQUJqLHAVVZpotrMnJPSMrCvV20Ou18J6c3U0rQRu4mK+fBR8kOK2W39a8cau6/oHzp7rg6SYwXfxOBlZlFmjKOwcPEZKm0Pz88a2d37/YXlXhxZrFVYa5FpViOdeKPQr0wytY97N20yMWJ84XYLz9kB4vjCQ9ukVs5T1nMdR3G7UtZ4ZqdL8LISPI2Mlqm22eWNlkHMx6v3Hvk8x9GlqDidavsOUMyDJZDjVz3+boNODQ52g0CazLLQlpBIhAcZKnY2z7FBRsxAfVHzOLr07nAZ5KTEsLoSX62HsJasaIg9F61pOCTR8t3uGCS0zGzdBkt6f5XZilhaoGE7/IxM+Xw+sIJojzjqHAODPR/3a9OZK4I9/k0lMDY68VazKI7tjfEu2ylq7BNpYHiQeBVz/nrgNiuxZkbbHWxNcva/pzicQnvppiHi7zdRft8EecjsDq0aczS1bLsHNs+syzT7TNLq2vxQOzD40OWsatRFYx28VgWZ9WiLbrtz94BVftDJM0///59BNZhFukYb/0FSTkRuKz2nDeQtI69hYWTRVrGsh58lwaDqIvj+uyQ914xEhwXRPOid1EFxqFbTmGei6eoicSjYriIlSxGXFGMd14/95mlPDi80+0zS9aNGCIAePkS6bwcRXbliOHVdK2WffwGDhDVmEfjMcvRrhBYg1mk19tfWfOj7gEicDR0lfrCQ5vOWYuYpf7bQQmoaWjxC4cj9S1taj/fP1/3bglVleDkhRuyU56nVwZdmWCWcviyaDz4BOOIWZboIrPoOIhM1nD5OT3ld0NehWSkyQ8uoYKeCNyGDQNnmzGZpQHk/3O5BrP8f7JlpESACGyDAJllG5zphQicCwEyy7nqzWyJwDYIkFm2wZleiMC5ECCznKvezJYIbIMAmWUbnOmFCJwLATLLuerNbInANgiQWbbBmV6IwLkQILOcq97MlghsgwCZZRuc6YUInAsBMsu56s1sicA2CJBZtsGZXojAuRAgs5yr3syWCGyDAJllG5zphQicCwEyy7nqzWyJwDYIkFm2wZleiMC5ECCznKvezJYIbIMAmWUbnOmFCJwLATLLuerNbInANgiQWbbBmV6IwLkQILOcq97MlghsgwCZZRuc6YUInAsBMsu56s1sicA2CJBZtsGZXojAuRAgs5yr3syWCGyDwL+NJDhkGVVXHQAAAABJRU5ErkJggg==;" vertex="1" parent="wgzBEyNvLthPIAAE-rNx-1">
          <mxGeometry x="80" y="34" width="371" height="82" as="geometry" />
        </mxCell>
        <mxCell id="wgzBEyNvLthPIAAE-rNx-24" value="41 mod 5 = 1" style="text;html=1;align=center;verticalAlign=middle;whiteSpace=wrap;rounded=0;fontSize=18;" vertex="1" parent="wgzBEyNvLthPIAAE-rNx-1">
          <mxGeometry x="105" y="340" width="120" height="30" as="geometry" />
        </mxCell>
        <mxCell id="wgzBEyNvLthPIAAE-rNx-25" style="edgeStyle=orthogonalEdgeStyle;rounded=0;orthogonalLoop=1;jettySize=auto;html=1;entryX=0;entryY=0.5;entryDx=0;entryDy=0;" edge="1" parent="wgzBEyNvLthPIAAE-rNx-1" source="wgzBEyNvLthPIAAE-rNx-26" target="wgzBEyNvLthPIAAE-rNx-27">
          <mxGeometry relative="1" as="geometry" />
        </mxCell>
        <mxCell id="wgzBEyNvLthPIAAE-rNx-26" value="18" style="rounded=0;whiteSpace=wrap;html=1;fontSize=18;" vertex="1" parent="wgzBEyNvLthPIAAE-rNx-1">
          <mxGeometry x="360" y="560" width="80" height="50" as="geometry" />
        </mxCell>
        <mxCell id="wgzBEyNvLthPIAAE-rNx-27" value="8" style="rounded=0;whiteSpace=wrap;html=1;fontSize=18;shadow=0;glass=0;" vertex="1" parent="wgzBEyNvLthPIAAE-rNx-1">
          <mxGeometry x="480" y="560" width="80" height="50" as="geometry" />
        </mxCell>
        <mxCell id="wgzBEyNvLthPIAAE-rNx-28" style="edgeStyle=orthogonalEdgeStyle;rounded=0;orthogonalLoop=1;jettySize=auto;html=1;entryX=0;entryY=0.5;entryDx=0;entryDy=0;" edge="1" parent="wgzBEyNvLthPIAAE-rNx-1" source="wgzBEyNvLthPIAAE-rNx-29" target="wgzBEyNvLthPIAAE-rNx-32">
          <mxGeometry relative="1" as="geometry" />
        </mxCell>
        <mxCell id="wgzBEyNvLthPIAAE-rNx-29" value="6" style="rounded=0;whiteSpace=wrap;html=1;fontSize=18;" vertex="1" parent="wgzBEyNvLthPIAAE-rNx-1">
          <mxGeometry x="360" y="460" width="80" height="50" as="geometry" />
        </mxCell>
        <mxCell id="wgzBEyNvLthPIAAE-rNx-30" value="50" style="rounded=0;whiteSpace=wrap;html=1;fontSize=18;" vertex="1" parent="wgzBEyNvLthPIAAE-rNx-1">
          <mxGeometry x="360" y="410" width="80" height="50" as="geometry" />
        </mxCell>
        <mxCell id="wgzBEyNvLthPIAAE-rNx-31" value="4" style="rounded=0;whiteSpace=wrap;html=1;fontSize=18;" vertex="1" parent="wgzBEyNvLthPIAAE-rNx-1">
          <mxGeometry x="170" y="610" width="150" height="50" as="geometry" />
        </mxCell>
        <mxCell id="wgzBEyNvLthPIAAE-rNx-32" value="41" style="rounded=0;whiteSpace=wrap;html=1;fontSize=18;" vertex="1" parent="wgzBEyNvLthPIAAE-rNx-1">
          <mxGeometry x="480" y="460" width="80" height="50" as="geometry" />
        </mxCell>
      </root>
    </mxGraphModel>
  </diagram>
  <diagram name="TabelaHash2.4" id="IOOjtJt5kyiUY6VBctL2">
    <mxGraphModel dx="1434" dy="746" grid="1" gridSize="10" guides="1" tooltips="1" connect="1" arrows="1" fold="1" page="1" pageScale="1" pageWidth="827" pageHeight="1169" background="none" math="0" shadow="0">
      <root>
        <mxCell id="AmXgu6xs9jCBJl656izN-0" />
        <mxCell id="AmXgu6xs9jCBJl656izN-1" parent="AmXgu6xs9jCBJl656izN-0" />
        <mxCell id="AmXgu6xs9jCBJl656izN-2" style="edgeStyle=orthogonalEdgeStyle;rounded=0;orthogonalLoop=1;jettySize=auto;html=1;entryX=0;entryY=0.5;entryDx=0;entryDy=0;" edge="1" parent="AmXgu6xs9jCBJl656izN-1" source="AmXgu6xs9jCBJl656izN-3" target="AmXgu6xs9jCBJl656izN-28">
          <mxGeometry relative="1" as="geometry" />
        </mxCell>
        <mxCell id="AmXgu6xs9jCBJl656izN-3" value="5" style="rounded=0;whiteSpace=wrap;html=1;fontSize=18;" vertex="1" parent="AmXgu6xs9jCBJl656izN-1">
          <mxGeometry x="170" y="410" width="150" height="50" as="geometry" />
        </mxCell>
        <mxCell id="AmXgu6xs9jCBJl656izN-4" style="edgeStyle=orthogonalEdgeStyle;rounded=0;orthogonalLoop=1;jettySize=auto;html=1;entryX=0;entryY=0.5;entryDx=0;entryDy=0;" edge="1" parent="AmXgu6xs9jCBJl656izN-1" source="AmXgu6xs9jCBJl656izN-5" target="AmXgu6xs9jCBJl656izN-27">
          <mxGeometry relative="1" as="geometry" />
        </mxCell>
        <mxCell id="AmXgu6xs9jCBJl656izN-5" value="11" style="rounded=0;whiteSpace=wrap;html=1;fontSize=18;" vertex="1" parent="AmXgu6xs9jCBJl656izN-1">
          <mxGeometry x="170" y="460" width="150" height="50" as="geometry" />
        </mxCell>
        <mxCell id="AmXgu6xs9jCBJl656izN-6" value="" style="rounded=0;whiteSpace=wrap;html=1;fontSize=18;" vertex="1" parent="AmXgu6xs9jCBJl656izN-1">
          <mxGeometry x="170" y="510" width="150" height="50" as="geometry" />
        </mxCell>
        <mxCell id="AmXgu6xs9jCBJl656izN-7" style="edgeStyle=orthogonalEdgeStyle;rounded=0;orthogonalLoop=1;jettySize=auto;html=1;entryX=0;entryY=0.5;entryDx=0;entryDy=0;" edge="1" parent="AmXgu6xs9jCBJl656izN-1" source="AmXgu6xs9jCBJl656izN-8" target="AmXgu6xs9jCBJl656izN-24">
          <mxGeometry relative="1" as="geometry">
            <mxPoint x="370" y="585" as="targetPoint" />
          </mxGeometry>
        </mxCell>
        <mxCell id="AmXgu6xs9jCBJl656izN-8" value="28" style="rounded=0;whiteSpace=wrap;html=1;fontSize=18;" vertex="1" parent="AmXgu6xs9jCBJl656izN-1">
          <mxGeometry x="170" y="560" width="150" height="50" as="geometry" />
        </mxCell>
        <mxCell id="AmXgu6xs9jCBJl656izN-9" style="edgeStyle=orthogonalEdgeStyle;rounded=0;orthogonalLoop=1;jettySize=auto;html=1;entryX=0;entryY=0.5;entryDx=0;entryDy=0;" edge="1" parent="AmXgu6xs9jCBJl656izN-1" source="AmXgu6xs9jCBJl656izN-10" target="AmXgu6xs9jCBJl656izN-3">
          <mxGeometry relative="1" as="geometry" />
        </mxCell>
        <mxCell id="AmXgu6xs9jCBJl656izN-10" value="0" style="text;html=1;align=center;verticalAlign=middle;whiteSpace=wrap;rounded=0;fontSize=18;" vertex="1" parent="AmXgu6xs9jCBJl656izN-1">
          <mxGeometry x="60" y="420" width="60" height="30" as="geometry" />
        </mxCell>
        <mxCell id="AmXgu6xs9jCBJl656izN-11" style="edgeStyle=orthogonalEdgeStyle;rounded=0;orthogonalLoop=1;jettySize=auto;html=1;entryX=0;entryY=0.5;entryDx=0;entryDy=0;" edge="1" parent="AmXgu6xs9jCBJl656izN-1" source="AmXgu6xs9jCBJl656izN-12" target="AmXgu6xs9jCBJl656izN-5">
          <mxGeometry relative="1" as="geometry" />
        </mxCell>
        <mxCell id="AmXgu6xs9jCBJl656izN-12" value="1" style="text;html=1;align=center;verticalAlign=middle;whiteSpace=wrap;rounded=0;fontSize=18;" vertex="1" parent="AmXgu6xs9jCBJl656izN-1">
          <mxGeometry x="60" y="470" width="60" height="30" as="geometry" />
        </mxCell>
        <mxCell id="AmXgu6xs9jCBJl656izN-13" style="edgeStyle=orthogonalEdgeStyle;rounded=0;orthogonalLoop=1;jettySize=auto;html=1;entryX=0;entryY=0.5;entryDx=0;entryDy=0;" edge="1" parent="AmXgu6xs9jCBJl656izN-1" source="AmXgu6xs9jCBJl656izN-14" target="AmXgu6xs9jCBJl656izN-6">
          <mxGeometry relative="1" as="geometry" />
        </mxCell>
        <mxCell id="AmXgu6xs9jCBJl656izN-14" value="2" style="text;html=1;align=center;verticalAlign=middle;whiteSpace=wrap;rounded=0;fontSize=18;" vertex="1" parent="AmXgu6xs9jCBJl656izN-1">
          <mxGeometry x="60" y="520" width="60" height="30" as="geometry" />
        </mxCell>
        <mxCell id="AmXgu6xs9jCBJl656izN-15" style="edgeStyle=orthogonalEdgeStyle;rounded=0;orthogonalLoop=1;jettySize=auto;html=1;entryX=0;entryY=0.5;entryDx=0;entryDy=0;" edge="1" parent="AmXgu6xs9jCBJl656izN-1" source="AmXgu6xs9jCBJl656izN-16" target="AmXgu6xs9jCBJl656izN-8">
          <mxGeometry relative="1" as="geometry" />
        </mxCell>
        <mxCell id="AmXgu6xs9jCBJl656izN-16" value="3" style="text;html=1;align=center;verticalAlign=middle;whiteSpace=wrap;rounded=0;fontSize=18;" vertex="1" parent="AmXgu6xs9jCBJl656izN-1">
          <mxGeometry x="60" y="570" width="60" height="30" as="geometry" />
        </mxCell>
        <mxCell id="AmXgu6xs9jCBJl656izN-17" style="edgeStyle=orthogonalEdgeStyle;rounded=0;orthogonalLoop=1;jettySize=auto;html=1;entryX=0;entryY=0.5;entryDx=0;entryDy=0;" edge="1" parent="AmXgu6xs9jCBJl656izN-1" source="AmXgu6xs9jCBJl656izN-18" target="AmXgu6xs9jCBJl656izN-29">
          <mxGeometry relative="1" as="geometry" />
        </mxCell>
        <mxCell id="AmXgu6xs9jCBJl656izN-18" value="4" style="text;html=1;align=center;verticalAlign=middle;whiteSpace=wrap;rounded=0;fontSize=18;" vertex="1" parent="AmXgu6xs9jCBJl656izN-1">
          <mxGeometry x="60" y="620" width="60" height="30" as="geometry" />
        </mxCell>
        <mxCell id="AmXgu6xs9jCBJl656izN-19" value="CAPACIDADE: 5" style="text;html=1;align=center;verticalAlign=middle;whiteSpace=wrap;rounded=0;fontSize=18;" vertex="1" parent="AmXgu6xs9jCBJl656izN-1">
          <mxGeometry x="80" y="260" width="160" height="30" as="geometry" />
        </mxCell>
        <mxCell id="AmXgu6xs9jCBJl656izN-20" value="h(k): k mod m" style="text;html=1;align=center;verticalAlign=middle;whiteSpace=wrap;rounded=0;fontSize=18;" vertex="1" parent="AmXgu6xs9jCBJl656izN-1">
          <mxGeometry x="80" y="300" width="170" height="30" as="geometry" />
        </mxCell>
        <mxCell id="AmXgu6xs9jCBJl656izN-21" value="" style="shape=image;verticalLabelPosition=bottom;labelBackgroundColor=default;verticalAlign=top;aspect=fixed;imageAspect=0;image=data:image/png,iVBORw0KGgoAAAANSUhEUgAAAXMAAABSCAIAAAApX6PiAAAM00lEQVR4Ae1d7Y3jOAy9nlLNpBUjxQxSyQCpZIGpIwdSIvkoS4lv1+P12S9/Rpb5+Ug9yd4F/M+TPyJABIjA2gj8s7ZB2iMCRIAIPMksbAIiQATWR4DMsj6mtEgEiACZhT1ABIjA+giQWdbHlBaJABEgs7AHiAARWB8BMsv6mNIiESACZBb2ABEgAusjQGZZH1NaJAJEgMzCHiACRGB9BMgs62NKi0SACKzMLN+f18vt8RZWEfu4f7+V+12Bn7bfj+vX/Xq53n/1b/7Y7Pf94zJ9rWz+cbvYb8JyCrD1N870azKZpGshSsDXz5fF/5o67dGdNKP170xmScCQ7OUyqqAU1zIfBv/wzDvxlxADHLEGOIQuTDbp1csl7T2QeUyjBPuufn92TWapVdwBs/w+Hn+ieRRmkZVmvJ8aVFaFEYqMe8QBMknXgC1N8mrxlLVnAVS97qTZHMpAME8Z9wJ+Pqb+PFqXZW8xy7hH5cKYvq0Khr2F8LgNdd/Zt3gKxzX42M36ty9TyMsq2KisfbkSs1RGn6YBoE3Y2HOP2+X6eXeyj5pVmw21P7VF6u7hwt+fVzcyfT3D/q/79eN+LzvwvNKlX9UDnDVi9+g2h+bSk5GAvWzaZyXMaALdMb5s95N5t+OKz+dzrPsZOOlRIiStL2MGgy/rWcMJR4FSKo+E5MA+JcKqkuVjHrXTikqAqJSUY5qGZ5aCxnW64ZG2O4k+nxqknACyIrSBiPcDfmqHvDxBPUXGQBBD0rEzjSFzYajf94/AP25kXcF53qtVWiw0aYadsUw5l11vEyYyU1xzYjVmueuBPDXWOE7sUc0ZerduINjfMMYaQL3FINQ+7ItMrw+ehaGszGK2jGVlWt/gGJOBeJQFqnzEkxQBE10klWh0bDGDzBJdkbHmk7ERQTtfZRA0HGNOo3EkNUesewQIQ1GFOlfWVUowpGX0uOuKzYrdyazXV1wW8Nd0/YgHHdhg0IUUy7oCqx8yUMGYnI0e08c1nBk95XxL2H1sdQf9buWzm67M41NfPmA1s9bqVysxi8W1DN+0mSSVyLxbP1xF4lIgVnZvsI7LMGgh1r9tf1sY7Xyjhk7rLXGhfeC+2qd93y1TUuZRzbiKD6r1vm4kqNRWmaVhDYzn/YF/nqjMpCCfZffWo08cxHqKEsnsncXXpMVahvDMPqTc86hzHRkB4VXAouLgSNi22bROJGz99QXKQUbgKr/uoUODsW0g2EpiQHkR6zJLfXDrpBnRvpTxlgj5nxrtllmUNdoiSTHa328yS1rkiS/qqoh3DQ320T0RSmIWbda4p6PSjslpOlQboSzUhd6Sji/NCpMlZGclXxV+umly6l9qptHiGptdvlqEbg3z9dcZ2zHLfw94xqQllQEjeJ6VguMpUgFHskBRHwuGgqfEicIDZvF3NLNCu0WJf9AMKkNmCahsnetZFDs1RCovwC4X0A+hbE31qqucgCVXn+027oGYr/Dut+ogOR0yCyQCBpIuuFjCLOa+7qj9XRd8ybChlfL2x54ITGAGTseIynjHz+00KvNqFgFIea5RZ7JMS2HDwoE9sTBLKpvtP62katZnbWNhsJ+GxiBL7MvrRQuslXejb2WsRV3j5wb7PbNgzgZl2ysuYwJ1Ii6HULam+m1nu4o7GvW9CLivnpZaSOyQetHOLC//CSNOHJHgkqchjB5fDKV5vBBw/J+H7MYSxEYyknj7s3Vi9uMvZPdmMm7rKCuOgkGljgyyZxHNZvvMIjKYUa8HOnbKLpKFW1MahBJ9A2HLXO9lvEURg58Z75ZZcBFC+aUGvuXGfFOzuHwBJZqKcdjsvGWoNZDYvP96vsRI9Fn0DSYlhwI3IoRSjyqLdMMpMouOzS/YiQCA/sb9JA3aOzeJU3/+D8SyIfTVl0kIZ+V6BdnF/e5k3NZRI7Mk4JlMu1zFsHSR03qqPgSAxQXwQWJux965ICZoB5Vj3KQZN2DUl3mxHEB3leHPMks/vfJgab2bDguYufSl/WA30Fao874yG0dxiQbngIULZyt4SXnpLzAxo61Wg7BE4swiEtIf9vNmTU0zYJZFupFgAfPiRKY9XRwDaLibWTen9+iBDabmCdj/xEPw3U7o6ghkANUQwlUUszjC7Hy+O+l3y2AuA8E4NTRK8EYvNq1WJlUcgM1yUPSRDMDr3atGQjfPZw96NU9zLtSXeb0c5lb+YGZlZvmDSKhKBIjAcRAgsxynlsyECOwHATLLfmrBSIjAcRAgsxynlsyECOwHATLLfmrBSIjAcRAgsxynlsyECOwHATLLfmrBSIjAcRAgsxynlsyECOwHATLLfmrBSIjAcRAgsxynlsyECOwHATLLfmrBSIjAcRAgsxynlsyECOwHATLLfmrBSIjAcRAgsxynlsyECOwHATLLfmrBSIjAcRAgsxynlsyECOwHATLLfmrBSIjAcRAgsxynlsyECOwHATLLfmrBSIjAcRAgsxynlsyECOwHATLLfmrBSIjAcRAgsxynlsyECOwHATLLfmrBSIjAcRAgsxynlsyECOwHATLLfmrBSIjAcRBYjVngK3z+ScAhTPjlOvsOX/d7ekMLR7qRvhK5WWLxvdcfchkf/et+TbH/Eb8mFvyWa9ySryx2bYYIR38bgXWYRdaGfYR0SceITP48pXLNe0r623D9iP8jMovQSv2KaPeLn+UjpNYzA1gLNzVdUT8vS2YZgLaX6VWYRToAKv2YXnwfVxOfM0v5EHI2YqcZ5yBpx+nhH2O+PeBru9h/sVvaJ3LbbwnDN5Vrp4qzaPTHdJnu8oF0nPSagYrH5t9XFp3h+UsJtOQVMolZPDuAtMAlYvqbvuBTxBCAfHbefo6k6t7lC/b6q4CEpOEWMxFY+jp1OGrK7bDAQKyZZf2OvRWiyHzfP67T7QqAg64NH7fLdEM7lvVtyv1mCvy7JwRWYZacUHePyiLvmAV7F0ihbHSlxcu4ti/I6KfarY/FThmLx0QcZf2g4hNWuHJTrCWMXmml3oIxriUcg2qKAWTCL0zi9+dF0YimjOuJD6FeoKvUY8SBT0OiC/N1jODgGFJaMsQgVf7783r9/E5ozO18TZIjJiXcfX+IJLbHXJMzu0BgfWaJdTJOULoqr1tdMHWXa+9Ka+qt1KOp111FBsEgz2hN1PVF5YMaqp+2xr2bez3WfzPfyd2Nm7NbZT1DTDLys8azHIIUpZQUJqLHAVVZpotrMnJPSMrCvV20Ou18J6c3U0rQRu4mK+fBR8kOK2W39a8cau6/oHzp7rg6SYwXfxOBlZlFmjKOwcPEZKm0Pz88a2d37/YXlXhxZrFVYa5FpViOdeKPQr0wytY97N20yMWJ84XYLz9kB4vjCQ9ukVs5T1nMdR3G7UtZ4ZqdL8LISPI2Mlqm22eWNlkHMx6v3Hvk8x9GlqDidavsOUMyDJZDjVz3+boNODQ52g0CazLLQlpBIhAcZKnY2z7FBRsxAfVHzOLr07nAZ5KTEsLoSX62HsJasaIg9F61pOCTR8t3uGCS0zGzdBkt6f5XZilhaoGE7/IxM+Xw+sIJojzjqHAODPR/3a9OZK4I9/k0lMDY68VazKI7tjfEu2ylq7BNpYHiQeBVz/nrgNiuxZkbbHWxNcva/pzicQnvppiHi7zdRft8EecjsDq0aczS1bLsHNs+syzT7TNLq2vxQOzD40OWsatRFYx28VgWZ9WiLbrtz94BVftDJM0///59BNZhFukYb/0FSTkRuKz2nDeQtI69hYWTRVrGsh58lwaDqIvj+uyQ914xEhwXRPOid1EFxqFbTmGei6eoicSjYriIlSxGXFGMd14/95mlPDi80+0zS9aNGCIAePkS6bwcRXbliOHVdK2WffwGDhDVmEfjMcvRrhBYg1mk19tfWfOj7gEicDR0lfrCQ5vOWYuYpf7bQQmoaWjxC4cj9S1taj/fP1/3bglVleDkhRuyU56nVwZdmWCWcviyaDz4BOOIWZboIrPoOIhM1nD5OT3ld0NehWSkyQ8uoYKeCNyGDQNnmzGZpQHk/3O5BrP8f7JlpESACGyDAJllG5zphQicCwEyy7nqzWyJwDYIkFm2wZleiMC5ECCznKvezJYIbIMAmWUbnOmFCJwLATLLuerNbInANgiQWbbBmV6IwLkQILOcq97MlghsgwCZZRuc6YUInAsBMsu56s1sicA2CJBZtsGZXojAuRAgs5yr3syWCGyDAJllG5zphQicCwEyy7nqzWyJwDYIkFm2wZleiMC5ECCznKvezJYIbIMAmWUbnOmFCJwLATLLuerNbInANgiQWbbBmV6IwLkQILOcq97MlghsgwCZZRuc6YUInAsBMsu56s1sicA2CJBZtsGZXojAuRAgs5yr3syWCGyDwL+NJDhkGVVXHQAAAABJRU5ErkJggg==;" vertex="1" parent="AmXgu6xs9jCBJl656izN-1">
          <mxGeometry x="80" y="34" width="371" height="82" as="geometry" />
        </mxCell>
        <mxCell id="AmXgu6xs9jCBJl656izN-22" value="41 mod 5 = 1" style="text;html=1;align=center;verticalAlign=middle;whiteSpace=wrap;rounded=0;fontSize=18;" vertex="1" parent="AmXgu6xs9jCBJl656izN-1">
          <mxGeometry x="105" y="340" width="120" height="30" as="geometry" />
        </mxCell>
        <mxCell id="AmXgu6xs9jCBJl656izN-23" style="edgeStyle=orthogonalEdgeStyle;rounded=0;orthogonalLoop=1;jettySize=auto;html=1;entryX=0;entryY=0.5;entryDx=0;entryDy=0;" edge="1" parent="AmXgu6xs9jCBJl656izN-1" source="AmXgu6xs9jCBJl656izN-24" target="AmXgu6xs9jCBJl656izN-25">
          <mxGeometry relative="1" as="geometry" />
        </mxCell>
        <mxCell id="AmXgu6xs9jCBJl656izN-24" value="18" style="rounded=0;whiteSpace=wrap;html=1;fontSize=18;" vertex="1" parent="AmXgu6xs9jCBJl656izN-1">
          <mxGeometry x="360" y="560" width="80" height="50" as="geometry" />
        </mxCell>
        <mxCell id="AmXgu6xs9jCBJl656izN-25" value="8" style="rounded=0;whiteSpace=wrap;html=1;fontSize=18;shadow=0;glass=0;" vertex="1" parent="AmXgu6xs9jCBJl656izN-1">
          <mxGeometry x="480" y="560" width="80" height="50" as="geometry" />
        </mxCell>
        <mxCell id="AmXgu6xs9jCBJl656izN-26" style="edgeStyle=orthogonalEdgeStyle;rounded=0;orthogonalLoop=1;jettySize=auto;html=1;entryX=0;entryY=0.5;entryDx=0;entryDy=0;" edge="1" parent="AmXgu6xs9jCBJl656izN-1" source="AmXgu6xs9jCBJl656izN-27" target="AmXgu6xs9jCBJl656izN-30">
          <mxGeometry relative="1" as="geometry" />
        </mxCell>
        <mxCell id="AmXgu6xs9jCBJl656izN-27" value="6" style="rounded=0;whiteSpace=wrap;html=1;fontSize=18;" vertex="1" parent="AmXgu6xs9jCBJl656izN-1">
          <mxGeometry x="360" y="460" width="80" height="50" as="geometry" />
        </mxCell>
        <mxCell id="AmXgu6xs9jCBJl656izN-28" value="50" style="rounded=0;whiteSpace=wrap;html=1;fontSize=18;" vertex="1" parent="AmXgu6xs9jCBJl656izN-1">
          <mxGeometry x="360" y="410" width="80" height="50" as="geometry" />
        </mxCell>
        <mxCell id="AmXgu6xs9jCBJl656izN-29" value="4" style="rounded=0;whiteSpace=wrap;html=1;fontSize=18;" vertex="1" parent="AmXgu6xs9jCBJl656izN-1">
          <mxGeometry x="170" y="610" width="150" height="50" as="geometry" />
        </mxCell>
        <mxCell id="AmXgu6xs9jCBJl656izN-30" value="41" style="rounded=0;whiteSpace=wrap;html=1;fontSize=18;" vertex="1" parent="AmXgu6xs9jCBJl656izN-1">
          <mxGeometry x="480" y="460" width="80" height="50" as="geometry" />
        </mxCell>
        <mxCell id="b_RH2R_TcCv7VB63PNJb-0" value="" style="shape=cross;whiteSpace=wrap;html=1;rotation=45;fillColor=#f8cecc;strokeColor=#b85450;" vertex="1" parent="AmXgu6xs9jCBJl656izN-1">
          <mxGeometry x="485" y="450" width="70" height="70" as="geometry" />
        </mxCell>
      </root>
    </mxGraphModel>
  </diagram>
  <diagram name="TabelaHash2.5" id="lZYp1QPco3BwNGyF2lfv">
    <mxGraphModel dx="1434" dy="746" grid="1" gridSize="10" guides="1" tooltips="1" connect="1" arrows="1" fold="1" page="1" pageScale="1" pageWidth="827" pageHeight="1169" background="none" math="0" shadow="0">
      <root>
        <mxCell id="00WczEQUHdDhhw4uMy7t-0" />
        <mxCell id="00WczEQUHdDhhw4uMy7t-1" parent="00WczEQUHdDhhw4uMy7t-0" />
        <mxCell id="00WczEQUHdDhhw4uMy7t-2" style="edgeStyle=orthogonalEdgeStyle;rounded=0;orthogonalLoop=1;jettySize=auto;html=1;entryX=0;entryY=0.5;entryDx=0;entryDy=0;" edge="1" parent="00WczEQUHdDhhw4uMy7t-1" source="00WczEQUHdDhhw4uMy7t-3" target="00WczEQUHdDhhw4uMy7t-28">
          <mxGeometry relative="1" as="geometry" />
        </mxCell>
        <mxCell id="00WczEQUHdDhhw4uMy7t-3" value="5" style="rounded=0;whiteSpace=wrap;html=1;fontSize=18;" vertex="1" parent="00WczEQUHdDhhw4uMy7t-1">
          <mxGeometry x="170" y="410" width="150" height="50" as="geometry" />
        </mxCell>
        <mxCell id="00WczEQUHdDhhw4uMy7t-4" style="edgeStyle=orthogonalEdgeStyle;rounded=0;orthogonalLoop=1;jettySize=auto;html=1;entryX=0;entryY=0.5;entryDx=0;entryDy=0;" edge="1" parent="00WczEQUHdDhhw4uMy7t-1" source="00WczEQUHdDhhw4uMy7t-5" target="00WczEQUHdDhhw4uMy7t-27">
          <mxGeometry relative="1" as="geometry" />
        </mxCell>
        <mxCell id="00WczEQUHdDhhw4uMy7t-5" value="11" style="rounded=0;whiteSpace=wrap;html=1;fontSize=18;" vertex="1" parent="00WczEQUHdDhhw4uMy7t-1">
          <mxGeometry x="170" y="460" width="150" height="50" as="geometry" />
        </mxCell>
        <mxCell id="00WczEQUHdDhhw4uMy7t-6" value="" style="rounded=0;whiteSpace=wrap;html=1;fontSize=18;" vertex="1" parent="00WczEQUHdDhhw4uMy7t-1">
          <mxGeometry x="170" y="510" width="150" height="50" as="geometry" />
        </mxCell>
        <mxCell id="00WczEQUHdDhhw4uMy7t-7" style="edgeStyle=orthogonalEdgeStyle;rounded=0;orthogonalLoop=1;jettySize=auto;html=1;entryX=0;entryY=0.5;entryDx=0;entryDy=0;" edge="1" parent="00WczEQUHdDhhw4uMy7t-1" source="00WczEQUHdDhhw4uMy7t-8" target="00WczEQUHdDhhw4uMy7t-24">
          <mxGeometry relative="1" as="geometry">
            <mxPoint x="370" y="585" as="targetPoint" />
          </mxGeometry>
        </mxCell>
        <mxCell id="00WczEQUHdDhhw4uMy7t-8" value="28" style="rounded=0;whiteSpace=wrap;html=1;fontSize=18;" vertex="1" parent="00WczEQUHdDhhw4uMy7t-1">
          <mxGeometry x="170" y="560" width="150" height="50" as="geometry" />
        </mxCell>
        <mxCell id="00WczEQUHdDhhw4uMy7t-9" style="edgeStyle=orthogonalEdgeStyle;rounded=0;orthogonalLoop=1;jettySize=auto;html=1;entryX=0;entryY=0.5;entryDx=0;entryDy=0;" edge="1" parent="00WczEQUHdDhhw4uMy7t-1" source="00WczEQUHdDhhw4uMy7t-10" target="00WczEQUHdDhhw4uMy7t-3">
          <mxGeometry relative="1" as="geometry" />
        </mxCell>
        <mxCell id="00WczEQUHdDhhw4uMy7t-10" value="0" style="text;html=1;align=center;verticalAlign=middle;whiteSpace=wrap;rounded=0;fontSize=18;" vertex="1" parent="00WczEQUHdDhhw4uMy7t-1">
          <mxGeometry x="60" y="420" width="60" height="30" as="geometry" />
        </mxCell>
        <mxCell id="00WczEQUHdDhhw4uMy7t-11" style="edgeStyle=orthogonalEdgeStyle;rounded=0;orthogonalLoop=1;jettySize=auto;html=1;entryX=0;entryY=0.5;entryDx=0;entryDy=0;" edge="1" parent="00WczEQUHdDhhw4uMy7t-1" source="00WczEQUHdDhhw4uMy7t-12" target="00WczEQUHdDhhw4uMy7t-5">
          <mxGeometry relative="1" as="geometry" />
        </mxCell>
        <mxCell id="00WczEQUHdDhhw4uMy7t-12" value="1" style="text;html=1;align=center;verticalAlign=middle;whiteSpace=wrap;rounded=0;fontSize=18;" vertex="1" parent="00WczEQUHdDhhw4uMy7t-1">
          <mxGeometry x="60" y="470" width="60" height="30" as="geometry" />
        </mxCell>
        <mxCell id="00WczEQUHdDhhw4uMy7t-13" style="edgeStyle=orthogonalEdgeStyle;rounded=0;orthogonalLoop=1;jettySize=auto;html=1;entryX=0;entryY=0.5;entryDx=0;entryDy=0;" edge="1" parent="00WczEQUHdDhhw4uMy7t-1" source="00WczEQUHdDhhw4uMy7t-14" target="00WczEQUHdDhhw4uMy7t-6">
          <mxGeometry relative="1" as="geometry" />
        </mxCell>
        <mxCell id="00WczEQUHdDhhw4uMy7t-14" value="2" style="text;html=1;align=center;verticalAlign=middle;whiteSpace=wrap;rounded=0;fontSize=18;" vertex="1" parent="00WczEQUHdDhhw4uMy7t-1">
          <mxGeometry x="60" y="520" width="60" height="30" as="geometry" />
        </mxCell>
        <mxCell id="00WczEQUHdDhhw4uMy7t-15" style="edgeStyle=orthogonalEdgeStyle;rounded=0;orthogonalLoop=1;jettySize=auto;html=1;entryX=0;entryY=0.5;entryDx=0;entryDy=0;" edge="1" parent="00WczEQUHdDhhw4uMy7t-1" source="00WczEQUHdDhhw4uMy7t-16" target="00WczEQUHdDhhw4uMy7t-8">
          <mxGeometry relative="1" as="geometry" />
        </mxCell>
        <mxCell id="00WczEQUHdDhhw4uMy7t-16" value="3" style="text;html=1;align=center;verticalAlign=middle;whiteSpace=wrap;rounded=0;fontSize=18;" vertex="1" parent="00WczEQUHdDhhw4uMy7t-1">
          <mxGeometry x="60" y="570" width="60" height="30" as="geometry" />
        </mxCell>
        <mxCell id="00WczEQUHdDhhw4uMy7t-17" style="edgeStyle=orthogonalEdgeStyle;rounded=0;orthogonalLoop=1;jettySize=auto;html=1;entryX=0;entryY=0.5;entryDx=0;entryDy=0;" edge="1" parent="00WczEQUHdDhhw4uMy7t-1" source="00WczEQUHdDhhw4uMy7t-18" target="00WczEQUHdDhhw4uMy7t-29">
          <mxGeometry relative="1" as="geometry" />
        </mxCell>
        <mxCell id="00WczEQUHdDhhw4uMy7t-18" value="4" style="text;html=1;align=center;verticalAlign=middle;whiteSpace=wrap;rounded=0;fontSize=18;" vertex="1" parent="00WczEQUHdDhhw4uMy7t-1">
          <mxGeometry x="60" y="620" width="60" height="30" as="geometry" />
        </mxCell>
        <mxCell id="00WczEQUHdDhhw4uMy7t-19" value="CAPACIDADE: 5" style="text;html=1;align=center;verticalAlign=middle;whiteSpace=wrap;rounded=0;fontSize=18;" vertex="1" parent="00WczEQUHdDhhw4uMy7t-1">
          <mxGeometry x="80" y="260" width="160" height="30" as="geometry" />
        </mxCell>
        <mxCell id="00WczEQUHdDhhw4uMy7t-20" value="h(k): k mod m" style="text;html=1;align=center;verticalAlign=middle;whiteSpace=wrap;rounded=0;fontSize=18;" vertex="1" parent="00WczEQUHdDhhw4uMy7t-1">
          <mxGeometry x="80" y="300" width="170" height="30" as="geometry" />
        </mxCell>
        <mxCell id="00WczEQUHdDhhw4uMy7t-21" value="" style="shape=image;verticalLabelPosition=bottom;labelBackgroundColor=default;verticalAlign=top;aspect=fixed;imageAspect=0;image=data:image/png,iVBORw0KGgoAAAANSUhEUgAAAXMAAABSCAIAAAApX6PiAAAM00lEQVR4Ae1d7Y3jOAy9nlLNpBUjxQxSyQCpZIGpIwdSIvkoS4lv1+P12S9/Rpb5+Ug9yd4F/M+TPyJABIjA2gj8s7ZB2iMCRIAIPMksbAIiQATWR4DMsj6mtEgEiACZhT1ABIjA+giQWdbHlBaJABEgs7AHiAARWB8BMsv6mNIiESACZBb2ABEgAusjQGZZH1NaJAJEgMzCHiACRGB9BMgs62NKi0SACKzMLN+f18vt8RZWEfu4f7+V+12Bn7bfj+vX/Xq53n/1b/7Y7Pf94zJ9rWz+cbvYb8JyCrD1N870azKZpGshSsDXz5fF/5o67dGdNKP170xmScCQ7OUyqqAU1zIfBv/wzDvxlxADHLEGOIQuTDbp1csl7T2QeUyjBPuufn92TWapVdwBs/w+Hn+ieRRmkZVmvJ8aVFaFEYqMe8QBMknXgC1N8mrxlLVnAVS97qTZHMpAME8Z9wJ+Pqb+PFqXZW8xy7hH5cKYvq0Khr2F8LgNdd/Zt3gKxzX42M36ty9TyMsq2KisfbkSs1RGn6YBoE3Y2HOP2+X6eXeyj5pVmw21P7VF6u7hwt+fVzcyfT3D/q/79eN+LzvwvNKlX9UDnDVi9+g2h+bSk5GAvWzaZyXMaALdMb5s95N5t+OKz+dzrPsZOOlRIiStL2MGgy/rWcMJR4FSKo+E5MA+JcKqkuVjHrXTikqAqJSUY5qGZ5aCxnW64ZG2O4k+nxqknACyIrSBiPcDfmqHvDxBPUXGQBBD0rEzjSFzYajf94/AP25kXcF53qtVWiw0aYadsUw5l11vEyYyU1xzYjVmueuBPDXWOE7sUc0ZerduINjfMMYaQL3FINQ+7ItMrw+ehaGszGK2jGVlWt/gGJOBeJQFqnzEkxQBE10klWh0bDGDzBJdkbHmk7ERQTtfZRA0HGNOo3EkNUesewQIQ1GFOlfWVUowpGX0uOuKzYrdyazXV1wW8Nd0/YgHHdhg0IUUy7oCqx8yUMGYnI0e08c1nBk95XxL2H1sdQf9buWzm67M41NfPmA1s9bqVysxi8W1DN+0mSSVyLxbP1xF4lIgVnZvsI7LMGgh1r9tf1sY7Xyjhk7rLXGhfeC+2qd93y1TUuZRzbiKD6r1vm4kqNRWmaVhDYzn/YF/nqjMpCCfZffWo08cxHqKEsnsncXXpMVahvDMPqTc86hzHRkB4VXAouLgSNi22bROJGz99QXKQUbgKr/uoUODsW0g2EpiQHkR6zJLfXDrpBnRvpTxlgj5nxrtllmUNdoiSTHa328yS1rkiS/qqoh3DQ320T0RSmIWbda4p6PSjslpOlQboSzUhd6Sji/NCpMlZGclXxV+umly6l9qptHiGptdvlqEbg3z9dcZ2zHLfw94xqQllQEjeJ6VguMpUgFHskBRHwuGgqfEicIDZvF3NLNCu0WJf9AMKkNmCahsnetZFDs1RCovwC4X0A+hbE31qqucgCVXn+027oGYr/Dut+ogOR0yCyQCBpIuuFjCLOa+7qj9XRd8ybChlfL2x54ITGAGTseIynjHz+00KvNqFgFIea5RZ7JMS2HDwoE9sTBLKpvtP62katZnbWNhsJ+GxiBL7MvrRQuslXejb2WsRV3j5wb7PbNgzgZl2ysuYwJ1Ii6HULam+m1nu4o7GvW9CLivnpZaSOyQetHOLC//CSNOHJHgkqchjB5fDKV5vBBw/J+H7MYSxEYyknj7s3Vi9uMvZPdmMm7rKCuOgkGljgyyZxHNZvvMIjKYUa8HOnbKLpKFW1MahBJ9A2HLXO9lvEURg58Z75ZZcBFC+aUGvuXGfFOzuHwBJZqKcdjsvGWoNZDYvP96vsRI9Fn0DSYlhwI3IoRSjyqLdMMpMouOzS/YiQCA/sb9JA3aOzeJU3/+D8SyIfTVl0kIZ+V6BdnF/e5k3NZRI7Mk4JlMu1zFsHSR03qqPgSAxQXwQWJux965ICZoB5Vj3KQZN2DUl3mxHEB3leHPMks/vfJgab2bDguYufSl/WA30Fao874yG0dxiQbngIULZyt4SXnpLzAxo61Wg7BE4swiEtIf9vNmTU0zYJZFupFgAfPiRKY9XRwDaLibWTen9+iBDabmCdj/xEPw3U7o6ghkANUQwlUUszjC7Hy+O+l3y2AuA8E4NTRK8EYvNq1WJlUcgM1yUPSRDMDr3atGQjfPZw96NU9zLtSXeb0c5lb+YGZlZvmDSKhKBIjAcRAgsxynlsyECOwHATLLfmrBSIjAcRAgsxynlsyECOwHATLLfmrBSIjAcRAgsxynlsyECOwHATLLfmrBSIjAcRAgsxynlsyECOwHATLLfmrBSIjAcRAgsxynlsyECOwHATLLfmrBSIjAcRAgsxynlsyECOwHATLLfmrBSIjAcRAgsxynlsyECOwHATLLfmrBSIjAcRAgsxynlsyECOwHATLLfmrBSIjAcRAgsxynlsyECOwHATLLfmrBSIjAcRAgsxynlsyECOwHATLLfmrBSIjAcRAgsxynlsyECOwHATLLfmrBSIjAcRAgsxynlsyECOwHATLLfmrBSIjAcRBYjVngK3z+ScAhTPjlOvsOX/d7ekMLR7qRvhK5WWLxvdcfchkf/et+TbH/Eb8mFvyWa9ySryx2bYYIR38bgXWYRdaGfYR0SceITP48pXLNe0r623D9iP8jMovQSv2KaPeLn+UjpNYzA1gLNzVdUT8vS2YZgLaX6VWYRToAKv2YXnwfVxOfM0v5EHI2YqcZ5yBpx+nhH2O+PeBru9h/sVvaJ3LbbwnDN5Vrp4qzaPTHdJnu8oF0nPSagYrH5t9XFp3h+UsJtOQVMolZPDuAtMAlYvqbvuBTxBCAfHbefo6k6t7lC/b6q4CEpOEWMxFY+jp1OGrK7bDAQKyZZf2OvRWiyHzfP67T7QqAg64NH7fLdEM7lvVtyv1mCvy7JwRWYZacUHePyiLvmAV7F0ihbHSlxcu4ti/I6KfarY/FThmLx0QcZf2g4hNWuHJTrCWMXmml3oIxriUcg2qKAWTCL0zi9+dF0YimjOuJD6FeoKvUY8SBT0OiC/N1jODgGFJaMsQgVf7783r9/E5ozO18TZIjJiXcfX+IJLbHXJMzu0BgfWaJdTJOULoqr1tdMHWXa+9Ka+qt1KOp111FBsEgz2hN1PVF5YMaqp+2xr2bez3WfzPfyd2Nm7NbZT1DTDLys8azHIIUpZQUJqLHAVVZpotrMnJPSMrCvV20Ou18J6c3U0rQRu4mK+fBR8kOK2W39a8cau6/oHzp7rg6SYwXfxOBlZlFmjKOwcPEZKm0Pz88a2d37/YXlXhxZrFVYa5FpViOdeKPQr0wytY97N20yMWJ84XYLz9kB4vjCQ9ukVs5T1nMdR3G7UtZ4ZqdL8LISPI2Mlqm22eWNlkHMx6v3Hvk8x9GlqDidavsOUMyDJZDjVz3+boNODQ52g0CazLLQlpBIhAcZKnY2z7FBRsxAfVHzOLr07nAZ5KTEsLoSX62HsJasaIg9F61pOCTR8t3uGCS0zGzdBkt6f5XZilhaoGE7/IxM+Xw+sIJojzjqHAODPR/3a9OZK4I9/k0lMDY68VazKI7tjfEu2ylq7BNpYHiQeBVz/nrgNiuxZkbbHWxNcva/pzicQnvppiHi7zdRft8EecjsDq0aczS1bLsHNs+syzT7TNLq2vxQOzD40OWsatRFYx28VgWZ9WiLbrtz94BVftDJM0///59BNZhFukYb/0FSTkRuKz2nDeQtI69hYWTRVrGsh58lwaDqIvj+uyQ914xEhwXRPOid1EFxqFbTmGei6eoicSjYriIlSxGXFGMd14/95mlPDi80+0zS9aNGCIAePkS6bwcRXbliOHVdK2WffwGDhDVmEfjMcvRrhBYg1mk19tfWfOj7gEicDR0lfrCQ5vOWYuYpf7bQQmoaWjxC4cj9S1taj/fP1/3bglVleDkhRuyU56nVwZdmWCWcviyaDz4BOOIWZboIrPoOIhM1nD5OT3ld0NehWSkyQ8uoYKeCNyGDQNnmzGZpQHk/3O5BrP8f7JlpESACGyDAJllG5zphQicCwEyy7nqzWyJwDYIkFm2wZleiMC5ECCznKvezJYIbIMAmWUbnOmFCJwLATLLuerNbInANgiQWbbBmV6IwLkQILOcq97MlghsgwCZZRuc6YUInAsBMsu56s1sicA2CJBZtsGZXojAuRAgs5yr3syWCGyDAJllG5zphQicCwEyy7nqzWyJwDYIkFm2wZleiMC5ECCznKvezJYIbIMAmWUbnOmFCJwLATLLuerNbInANgiQWbbBmV6IwLkQILOcq97MlghsgwCZZRuc6YUInAsBMsu56s1sicA2CJBZtsGZXojAuRAgs5yr3syWCGyDwL+NJDhkGVVXHQAAAABJRU5ErkJggg==;" vertex="1" parent="00WczEQUHdDhhw4uMy7t-1">
          <mxGeometry x="80" y="34" width="371" height="82" as="geometry" />
        </mxCell>
        <mxCell id="00WczEQUHdDhhw4uMy7t-22" value="41 mod 5 = 1" style="text;html=1;align=center;verticalAlign=middle;whiteSpace=wrap;rounded=0;fontSize=18;" vertex="1" parent="00WczEQUHdDhhw4uMy7t-1">
          <mxGeometry x="105" y="340" width="120" height="30" as="geometry" />
        </mxCell>
        <mxCell id="00WczEQUHdDhhw4uMy7t-23" style="edgeStyle=orthogonalEdgeStyle;rounded=0;orthogonalLoop=1;jettySize=auto;html=1;entryX=0;entryY=0.5;entryDx=0;entryDy=0;" edge="1" parent="00WczEQUHdDhhw4uMy7t-1" source="00WczEQUHdDhhw4uMy7t-24" target="00WczEQUHdDhhw4uMy7t-25">
          <mxGeometry relative="1" as="geometry" />
        </mxCell>
        <mxCell id="00WczEQUHdDhhw4uMy7t-24" value="18" style="rounded=0;whiteSpace=wrap;html=1;fontSize=18;" vertex="1" parent="00WczEQUHdDhhw4uMy7t-1">
          <mxGeometry x="360" y="560" width="80" height="50" as="geometry" />
        </mxCell>
        <mxCell id="00WczEQUHdDhhw4uMy7t-25" value="8" style="rounded=0;whiteSpace=wrap;html=1;fontSize=18;shadow=0;glass=0;" vertex="1" parent="00WczEQUHdDhhw4uMy7t-1">
          <mxGeometry x="480" y="560" width="80" height="50" as="geometry" />
        </mxCell>
        <mxCell id="00WczEQUHdDhhw4uMy7t-27" value="6" style="rounded=0;whiteSpace=wrap;html=1;fontSize=18;" vertex="1" parent="00WczEQUHdDhhw4uMy7t-1">
          <mxGeometry x="360" y="460" width="80" height="50" as="geometry" />
        </mxCell>
        <mxCell id="00WczEQUHdDhhw4uMy7t-28" value="50" style="rounded=0;whiteSpace=wrap;html=1;fontSize=18;" vertex="1" parent="00WczEQUHdDhhw4uMy7t-1">
          <mxGeometry x="360" y="410" width="80" height="50" as="geometry" />
        </mxCell>
        <mxCell id="00WczEQUHdDhhw4uMy7t-29" value="4" style="rounded=0;whiteSpace=wrap;html=1;fontSize=18;" vertex="1" parent="00WczEQUHdDhhw4uMy7t-1">
          <mxGeometry x="170" y="610" width="150" height="50" as="geometry" />
        </mxCell>
      </root>
    </mxGraphModel>
  </diagram>
</mxfile>
